G75*
%MOIN*%
%OFA0B0*%
%FSLAX24Y24*%
%IPPOS*%
%LPD*%
%AMOC8*
5,1,8,0,0,1.08239X$1,22.5*
%
%ADD10R,0.0551X0.1181*%
%ADD11R,0.0600X0.0500*%
%ADD12R,0.0551X0.0551*%
%ADD13R,0.0236X0.0866*%
%ADD14C,0.0600*%
%ADD15OC8,0.0600*%
%ADD16C,0.0885*%
%ADD17R,0.0400X0.0250*%
%ADD18R,0.0591X0.0512*%
%ADD19R,0.0512X0.0591*%
%ADD20R,0.0551X0.0394*%
%ADD21R,0.4098X0.4252*%
%ADD22R,0.0850X0.0420*%
%ADD23R,0.1150X0.1098*%
%ADD24R,0.1181X0.0551*%
%ADD25C,0.0709*%
%ADD26R,0.0554X0.0554*%
%ADD27R,0.0787X0.2165*%
%ADD28R,0.0472X0.0472*%
%ADD29OC8,0.0630*%
%ADD30C,0.0160*%
%ADD31C,0.0240*%
%ADD32C,0.0080*%
%ADD33C,0.0396*%
%ADD34C,0.0320*%
%ADD35C,0.0100*%
%ADD36C,0.0120*%
%ADD37C,0.0436*%
%ADD38R,0.0396X0.0396*%
%ADD39C,0.0070*%
%ADD40C,0.0300*%
D10*
X013619Y001259D03*
X013619Y003149D03*
D11*
X014958Y004394D03*
X014958Y005144D03*
D12*
X015703Y002428D03*
X017199Y002428D03*
X023777Y012643D03*
X025273Y012643D03*
D13*
X018689Y007789D03*
X018189Y007789D03*
X017689Y007789D03*
X017189Y007789D03*
X017189Y005742D03*
X017689Y005742D03*
X018189Y005742D03*
X018689Y005742D03*
D14*
X015895Y006702D02*
X015895Y007302D01*
X014895Y007302D02*
X014895Y006702D01*
X013895Y006702D02*
X013895Y007302D01*
X012895Y007302D02*
X012895Y006702D01*
X011895Y006702D02*
X011895Y007302D01*
X010895Y007302D02*
X010895Y006702D01*
X004967Y006946D02*
X004367Y006946D01*
X004367Y005946D02*
X004967Y005946D01*
X004967Y004946D02*
X004367Y004946D01*
X004367Y003946D02*
X004967Y003946D01*
X004967Y002946D02*
X004367Y002946D01*
X004367Y007946D02*
X004967Y007946D01*
X004967Y008946D02*
X004367Y008946D01*
X004367Y009946D02*
X004967Y009946D01*
X004967Y010946D02*
X004367Y010946D01*
X004367Y011946D02*
X004967Y011946D01*
X004967Y012946D02*
X004367Y012946D01*
X004367Y013946D02*
X004967Y013946D01*
X024328Y004506D02*
X024328Y003906D01*
X025328Y003906D02*
X025328Y004506D01*
X026328Y004506D02*
X026328Y003906D01*
X027328Y003906D02*
X027328Y004506D01*
D15*
X025285Y015047D03*
X023505Y015047D03*
D16*
X023015Y014067D03*
X025775Y014067D03*
D17*
X016565Y014248D03*
X016565Y014748D03*
X016565Y015248D03*
X016565Y015748D03*
X016565Y013748D03*
X016565Y013248D03*
X016565Y012748D03*
X016565Y012248D03*
X016565Y011748D03*
X016565Y011248D03*
X016565Y010748D03*
X016565Y010248D03*
X016565Y009748D03*
X016565Y009248D03*
X012565Y009248D03*
X012565Y009748D03*
X012565Y010248D03*
X012565Y010748D03*
X012565Y011248D03*
X012565Y011748D03*
X012565Y012248D03*
X012565Y012748D03*
X012565Y013248D03*
X012565Y013748D03*
X012565Y014248D03*
X012565Y014748D03*
X012565Y015248D03*
X012565Y015748D03*
D18*
X011340Y013639D03*
X011340Y012891D03*
X017635Y009998D03*
X017635Y009250D03*
X018215Y011312D03*
X018215Y012060D03*
X018227Y012718D03*
X018227Y013466D03*
X021297Y015061D03*
X022135Y015069D03*
X022135Y015817D03*
X021297Y015809D03*
D19*
X026647Y015789D03*
X027395Y015789D03*
X022486Y012155D03*
X021738Y012155D03*
X020360Y008620D03*
X019612Y008620D03*
X016486Y003588D03*
X015738Y003588D03*
D20*
X016521Y004506D03*
X015655Y004880D03*
X016521Y005254D03*
D21*
X008066Y002743D03*
D22*
X011346Y002743D03*
X011346Y003413D03*
X011346Y004083D03*
X011346Y002073D03*
X011346Y001403D03*
D23*
X018883Y003054D03*
X023040Y003054D03*
D24*
X024886Y002004D03*
X026776Y002004D03*
D25*
X002021Y002194D03*
X002021Y003572D03*
X002021Y004950D03*
X002021Y006328D03*
X002021Y007706D03*
X002021Y009084D03*
X002021Y010462D03*
X002021Y011840D03*
X002021Y013218D03*
X002021Y014596D03*
X002021Y015974D03*
X002021Y000817D03*
D26*
X021946Y007135D03*
X022943Y007628D03*
X021939Y008128D03*
X022946Y008628D03*
X021931Y009108D03*
X022946Y009620D03*
X021931Y010124D03*
X022946Y006631D03*
D27*
X019620Y010679D03*
X019620Y014419D03*
D28*
X027419Y014238D03*
X027419Y015065D03*
X020356Y007915D03*
X020356Y007088D03*
D29*
X020702Y005655D03*
X019691Y005647D03*
D30*
X024886Y002004D02*
X024922Y002050D01*
X013987Y000565D02*
X013619Y001259D01*
X013625Y001422D01*
X018848Y010679D02*
X018215Y011312D01*
X017979Y011312D01*
X017730Y011561D01*
X017730Y012876D01*
X017356Y013250D01*
X016567Y013250D01*
X016565Y013248D01*
X016590Y013722D02*
X016565Y013748D01*
X016590Y013722D02*
X017541Y013722D01*
X017765Y013498D01*
X018021Y013498D01*
X018195Y013498D01*
X018227Y013466D01*
X018076Y013443D02*
X018021Y013498D01*
X018076Y013443D02*
X019037Y013443D01*
X019620Y014025D01*
X019620Y014419D01*
X018197Y012748D02*
X018227Y012718D01*
X018227Y012072D01*
X018215Y012060D01*
X018725Y012060D01*
X018982Y012317D01*
X017096Y012722D02*
X017070Y012748D01*
X016565Y012748D01*
X018848Y010679D02*
X019620Y010679D01*
X023651Y012635D02*
X023777Y012643D01*
X025273Y012643D02*
X025486Y012643D01*
X025525Y012604D01*
X012565Y013748D02*
X011448Y013748D01*
X011340Y013639D01*
X010805Y013639D01*
X010742Y013702D01*
D31*
X010100Y013407D02*
X010100Y015691D01*
X009785Y016006D01*
X004943Y016006D01*
X004667Y015730D01*
X004667Y013946D01*
X004943Y016006D02*
X002053Y016006D01*
X002021Y015974D01*
X010100Y013407D02*
X010616Y012891D01*
X011340Y012891D01*
X014100Y016100D02*
X014100Y008100D01*
X014068Y008081D02*
X014139Y007958D01*
X014628Y007958D01*
X014935Y007651D01*
X014935Y007041D01*
X014895Y007002D02*
X014895Y006348D01*
X014915Y005659D01*
X014875Y005475D01*
X014958Y005144D01*
X014958Y004394D02*
X014967Y003832D01*
X014927Y003517D01*
X015070Y003149D01*
X015070Y002928D01*
X015427Y002642D02*
X015641Y002428D01*
X015703Y002428D01*
X015585Y002414D01*
X015621Y002378D01*
X015641Y002428D02*
X015681Y002388D01*
X014631Y002438D02*
X014521Y002498D01*
X013741Y002747D02*
X013616Y002717D01*
X013731Y002938D01*
X013740Y002928D01*
X013619Y003149D01*
X013658Y002915D01*
X013671Y002928D01*
X013671Y003428D01*
X013619Y003149D02*
X014521Y002928D01*
X013761Y002908D02*
X013740Y002928D01*
X013658Y002915D02*
X013621Y002878D01*
X012248Y003393D02*
X011346Y003413D01*
X011346Y002073D02*
X011381Y002048D01*
X011331Y002027D01*
X018883Y002389D02*
X018883Y003054D01*
X018911Y002428D01*
X018931Y002408D01*
X022088Y002411D02*
X023023Y002411D01*
X023100Y006600D02*
X022946Y006631D01*
X023100Y006600D02*
X023100Y007100D01*
X023100Y007600D01*
X022943Y007628D01*
X023100Y007100D02*
X022100Y007100D01*
X020356Y007088D02*
X019765Y007088D01*
X020356Y007915D02*
X020360Y007919D01*
X020360Y008620D01*
X021100Y009100D02*
X021100Y011100D01*
X023710Y011088D01*
X023694Y011462D01*
X023711Y012097D01*
X023726Y012687D01*
X021100Y015600D02*
X021297Y015809D01*
X021100Y015600D02*
X020600Y016100D01*
X014100Y016100D01*
D32*
X017600Y010600D02*
X017635Y010600D01*
X017600Y010600D02*
X019600Y008600D01*
X019612Y008620D01*
X021946Y007135D02*
X022100Y007100D01*
X021118Y006582D02*
X021100Y006600D01*
X021118Y006582D02*
X021600Y006100D01*
X021443Y005600D01*
X020600Y005600D01*
X020702Y005655D01*
X017689Y005742D02*
X017600Y005600D01*
X016813Y005116D02*
X016521Y005254D01*
X023600Y012100D02*
X023711Y012097D01*
X023600Y012100D02*
X023600Y012600D01*
X023777Y012643D01*
X027419Y014238D02*
X027600Y014100D01*
X027600Y013600D01*
X027419Y015065D02*
X027600Y015100D01*
X027600Y015600D01*
D33*
X027600Y013600D03*
X021100Y009100D03*
D34*
X021931Y009108D02*
X021931Y010124D01*
X021946Y010139D01*
X022620Y010139D01*
X022659Y010100D01*
X022738Y010100D01*
X022946Y009891D01*
X022946Y009620D01*
X023135Y009431D01*
X026084Y009431D01*
X027328Y008187D01*
X027328Y004206D01*
X027423Y004112D01*
X027423Y002738D01*
X026776Y002091D01*
X026776Y002004D01*
X024922Y002050D02*
X023040Y003054D01*
X018883Y003054D02*
X017199Y002428D01*
X018051Y001558D02*
X014731Y001558D01*
X014016Y002112D01*
X012311Y002108D01*
X011366Y002068D01*
X011381Y002048D01*
X011346Y001403D02*
X013625Y001422D01*
X013987Y000565D02*
X020167Y000545D01*
X021080Y000541D01*
X020994Y000545D01*
X021919Y000565D01*
X028045Y000541D01*
X028033Y004844D01*
X028033Y011698D01*
X026576Y012604D01*
X025525Y012604D01*
X019746Y007069D02*
X019194Y007069D01*
X019076Y006990D01*
X018269Y006911D02*
X018202Y006978D01*
X019076Y005836D02*
X019088Y005706D01*
X015585Y002414D02*
X015070Y002928D01*
X014521Y002928D01*
X014521Y002498D01*
X013741Y002747D02*
X011346Y002743D01*
X011346Y004083D02*
X013226Y004118D01*
X013671Y003428D01*
X018051Y001558D02*
X018883Y002389D01*
D35*
X000350Y000350D02*
X000350Y016385D01*
X001775Y016385D01*
X001753Y016376D01*
X001619Y016243D01*
X001547Y016068D01*
X001547Y015880D01*
X001619Y015705D01*
X001753Y015572D01*
X001927Y015500D01*
X002116Y015500D01*
X002290Y015572D01*
X002423Y015705D01*
X002448Y015766D01*
X004427Y015766D01*
X004427Y014366D01*
X004283Y014366D01*
X004129Y014303D01*
X004011Y014184D01*
X003947Y014030D01*
X003947Y013863D01*
X004011Y013709D01*
X004129Y013590D01*
X004283Y013526D01*
X005050Y013526D01*
X005205Y013590D01*
X005323Y013709D01*
X005387Y013863D01*
X005387Y014030D01*
X005323Y014184D01*
X005205Y014303D01*
X005050Y014366D01*
X004907Y014366D01*
X004907Y015631D01*
X005042Y015766D01*
X009686Y015766D01*
X009860Y015591D01*
X009860Y013359D01*
X009897Y013271D01*
X009964Y013204D01*
X010480Y012688D01*
X010568Y012651D01*
X010925Y012651D01*
X010925Y012586D01*
X010947Y012563D01*
X010490Y012563D01*
X010241Y012812D01*
X010135Y012918D01*
X005387Y012918D01*
X005387Y013030D01*
X005323Y013184D01*
X005205Y013303D01*
X005050Y013366D01*
X004283Y013366D01*
X004129Y013303D01*
X004011Y013184D01*
X003982Y013115D01*
X003403Y013115D01*
X003049Y013469D01*
X002970Y013469D01*
X002878Y013560D01*
X002878Y014230D01*
X002773Y014335D01*
X002496Y014613D01*
X002496Y014690D01*
X002423Y014865D01*
X002290Y014998D01*
X002116Y015070D01*
X001927Y015070D01*
X001753Y014998D01*
X001619Y014865D01*
X001547Y014690D01*
X001547Y014502D01*
X001619Y014327D01*
X001753Y014194D01*
X001927Y014122D01*
X002116Y014122D01*
X002290Y014194D01*
X002347Y014251D01*
X002518Y014081D01*
X002518Y013411D01*
X002624Y013306D01*
X002715Y013214D01*
X002821Y013109D01*
X002899Y013109D01*
X003148Y012860D01*
X003254Y012755D01*
X003992Y012755D01*
X004011Y012709D01*
X004129Y012590D01*
X004283Y012526D01*
X005050Y012526D01*
X005126Y012558D01*
X009986Y012558D01*
X010335Y012209D01*
X005298Y012209D01*
X005205Y012303D01*
X005050Y012366D01*
X004283Y012366D01*
X004129Y012303D01*
X004011Y012184D01*
X003989Y012130D01*
X003127Y012130D01*
X002957Y012301D01*
X002957Y012773D01*
X002852Y012878D01*
X002496Y013235D01*
X002496Y013312D01*
X002423Y013487D01*
X002290Y013620D01*
X002116Y013692D01*
X001927Y013692D01*
X001753Y013620D01*
X001619Y013487D01*
X001547Y013312D01*
X001547Y013124D01*
X001619Y012949D01*
X001753Y012816D01*
X001927Y012744D01*
X002116Y012744D01*
X002290Y012816D01*
X002347Y012874D01*
X002597Y012624D01*
X002597Y012151D01*
X002873Y011876D01*
X002978Y011770D01*
X003985Y011770D01*
X004011Y011709D01*
X004129Y011590D01*
X004283Y011526D01*
X005050Y011526D01*
X005205Y011590D01*
X005323Y011709D01*
X005381Y011849D01*
X011828Y011849D01*
X011934Y011955D01*
X012047Y012068D01*
X012250Y012068D01*
X012315Y012003D01*
X012814Y012003D01*
X012885Y012073D01*
X012885Y012422D01*
X012814Y012493D01*
X012315Y012493D01*
X012250Y012428D01*
X012013Y012428D01*
X012153Y012568D01*
X012250Y012568D01*
X012315Y012503D01*
X012814Y012503D01*
X012885Y012573D01*
X012885Y012922D01*
X012814Y012993D01*
X012315Y012993D01*
X012250Y012928D01*
X012004Y012928D01*
X011755Y012679D01*
X011755Y012686D01*
X011847Y012777D01*
X012137Y013068D01*
X012250Y013068D01*
X012315Y013003D01*
X012814Y013003D01*
X012879Y013068D01*
X012968Y013068D01*
X013818Y012761D01*
X013818Y008226D01*
X013805Y008176D01*
X013818Y008154D01*
X013818Y008128D01*
X013829Y008117D01*
X013824Y008097D01*
X013836Y008002D01*
X013924Y007852D01*
X013936Y007822D01*
X013948Y007811D01*
X013956Y007796D01*
X013981Y007777D01*
X014003Y007755D01*
X014019Y007749D01*
X014032Y007739D01*
X014062Y007730D01*
X014092Y007718D01*
X014108Y007718D01*
X014124Y007714D01*
X014155Y007718D01*
X014528Y007718D01*
X014623Y007623D01*
X014539Y007539D01*
X014475Y007385D01*
X014475Y006618D01*
X014539Y006464D01*
X014655Y006348D01*
X014655Y006345D01*
X014655Y006300D01*
X014657Y006297D01*
X014674Y005682D01*
X014649Y005564D01*
X014644Y005557D01*
X014638Y005518D01*
X014638Y005514D01*
X014609Y005514D01*
X014538Y005444D01*
X014538Y004845D01*
X014599Y004783D01*
X014566Y004764D01*
X014538Y004736D01*
X014518Y004702D01*
X014508Y004664D01*
X014508Y004444D01*
X014908Y004444D01*
X014908Y004344D01*
X015008Y004344D01*
X015008Y003994D01*
X015278Y003994D01*
X015316Y004005D01*
X015350Y004024D01*
X015378Y004052D01*
X015398Y004086D01*
X015408Y004125D01*
X015408Y004344D01*
X015008Y004344D01*
X015008Y004444D01*
X015408Y004444D01*
X015408Y004533D01*
X015607Y004533D01*
X015607Y004831D01*
X015704Y004831D01*
X015704Y004928D01*
X016081Y004928D01*
X016081Y005096D01*
X016070Y005134D01*
X016051Y005168D01*
X016023Y005196D01*
X015989Y005216D01*
X015950Y005226D01*
X015704Y005226D01*
X015704Y004928D01*
X015607Y004928D01*
X015607Y005226D01*
X015378Y005226D01*
X015378Y005444D01*
X015308Y005514D01*
X015129Y005514D01*
X015146Y005590D01*
X015156Y005618D01*
X015156Y005636D01*
X015160Y005654D01*
X015154Y005684D01*
X015148Y005900D01*
X016060Y005900D01*
X016166Y006006D01*
X016214Y006054D01*
X016549Y006054D01*
X016654Y006159D01*
X017304Y006810D01*
X017509Y006810D01*
X017615Y006915D01*
X017869Y007169D01*
X017869Y007248D01*
X017927Y007306D01*
X017927Y007313D01*
X017931Y007298D01*
X017950Y007264D01*
X017978Y007236D01*
X018013Y007216D01*
X018051Y007206D01*
X018180Y007206D01*
X018180Y007780D01*
X018198Y007780D01*
X018198Y007206D01*
X018326Y007206D01*
X018365Y007216D01*
X018399Y007236D01*
X018427Y007264D01*
X018446Y007298D01*
X018450Y007313D01*
X018450Y007306D01*
X018521Y007236D01*
X018856Y007236D01*
X018927Y007306D01*
X018927Y008272D01*
X018869Y008330D01*
X018869Y008342D01*
X018926Y008399D01*
X018926Y008895D01*
X018856Y008965D01*
X019009Y008965D01*
X018926Y008867D02*
X019107Y008867D01*
X019206Y008768D02*
X018926Y008768D01*
X018926Y008670D02*
X019236Y008670D01*
X019236Y008738D02*
X019236Y008275D01*
X019306Y008204D01*
X019917Y008204D01*
X019986Y008273D01*
X020029Y008230D01*
X020000Y008201D01*
X020000Y007629D01*
X020070Y007559D01*
X020642Y007559D01*
X020712Y007629D01*
X020712Y008201D01*
X020687Y008226D01*
X020736Y008275D01*
X020736Y008965D01*
X020665Y009035D01*
X020054Y009035D01*
X019986Y008967D01*
X019917Y009035D01*
X019391Y009035D01*
X017815Y010611D01*
X017815Y010915D01*
X017576Y011155D01*
X017576Y011432D01*
X017647Y011361D01*
X017800Y011208D01*
X017800Y011006D01*
X017870Y010936D01*
X018308Y010936D01*
X018765Y010479D01*
X019106Y010479D01*
X019106Y009546D01*
X019176Y009476D01*
X020063Y009476D01*
X020133Y009546D01*
X020133Y011811D01*
X020063Y011881D01*
X019176Y011881D01*
X019106Y011811D01*
X019106Y010879D01*
X018931Y010879D01*
X018630Y011180D01*
X018630Y011618D01*
X018578Y011670D01*
X018602Y011684D01*
X018630Y011712D01*
X018650Y011746D01*
X018660Y011784D01*
X018660Y012010D01*
X018265Y012010D01*
X018265Y012110D01*
X018660Y012110D01*
X018660Y012336D01*
X018650Y012374D01*
X018647Y012378D01*
X018662Y012404D01*
X018672Y012442D01*
X018672Y012668D01*
X018277Y012668D01*
X018277Y012768D01*
X018672Y012768D01*
X018672Y012993D01*
X018662Y013032D01*
X018642Y013066D01*
X018614Y013094D01*
X018590Y013108D01*
X018642Y013160D01*
X018642Y013243D01*
X019120Y013243D01*
X019135Y013258D01*
X019176Y013216D01*
X020063Y013216D01*
X020133Y013287D01*
X020133Y015511D01*
X020297Y015511D01*
X020385Y015423D01*
X020385Y015116D01*
X020490Y015011D01*
X020620Y014881D01*
X020882Y014881D01*
X020882Y014755D01*
X020952Y014685D01*
X021642Y014685D01*
X021712Y014755D01*
X021712Y014881D01*
X021720Y014881D01*
X021720Y014763D01*
X021790Y014693D01*
X022480Y014693D01*
X022551Y014763D01*
X022551Y014896D01*
X022592Y014896D01*
X022872Y014616D01*
X022697Y014544D01*
X022538Y014385D01*
X022453Y014179D01*
X022453Y013955D01*
X022538Y013748D01*
X022697Y013590D01*
X022903Y013504D01*
X023127Y013504D01*
X023334Y013590D01*
X023492Y013748D01*
X023578Y013955D01*
X023578Y014179D01*
X023520Y014318D01*
X023765Y014318D01*
X024314Y014867D01*
X024871Y014867D01*
X025111Y014627D01*
X025459Y014627D01*
X025705Y014873D01*
X025705Y015221D01*
X025459Y015467D01*
X025111Y015467D01*
X024871Y015227D01*
X024165Y015227D01*
X023935Y014997D01*
X023555Y014997D01*
X023555Y015097D01*
X023455Y015097D01*
X023455Y015497D01*
X023319Y015497D01*
X023055Y015233D01*
X023055Y015097D01*
X023455Y015097D01*
X023455Y014997D01*
X023055Y014997D01*
X023055Y014961D01*
X023037Y014961D01*
X022847Y015151D01*
X022741Y015256D01*
X022551Y015256D01*
X022551Y015374D01*
X022498Y015426D01*
X022523Y015441D01*
X022551Y015469D01*
X022570Y015503D01*
X022581Y015541D01*
X022581Y015767D01*
X022185Y015767D01*
X022185Y015867D01*
X022085Y015867D01*
X022085Y016222D01*
X021820Y016222D01*
X021782Y016212D01*
X021748Y016192D01*
X021720Y016165D01*
X021700Y016130D01*
X021699Y016127D01*
X021642Y016185D01*
X020952Y016185D01*
X020903Y016136D01*
X020803Y016236D01*
X020736Y016303D01*
X020648Y016340D01*
X014052Y016340D01*
X013964Y016303D01*
X013897Y016236D01*
X013860Y016148D01*
X013860Y013128D01*
X013098Y013403D01*
X013074Y013428D01*
X013031Y013428D01*
X012991Y013442D01*
X012959Y013428D01*
X012879Y013428D01*
X012823Y013483D01*
X012857Y013503D01*
X012885Y013531D01*
X012904Y013565D01*
X012915Y013603D01*
X012915Y013735D01*
X012577Y013735D01*
X012577Y013760D01*
X012915Y013760D01*
X012915Y013892D01*
X012904Y013931D01*
X012885Y013965D01*
X012857Y013993D01*
X012823Y014012D01*
X012885Y014073D01*
X012885Y014422D01*
X012814Y014493D01*
X012315Y014493D01*
X012250Y014428D01*
X011560Y014428D01*
X011560Y014568D01*
X012250Y014568D01*
X012315Y014503D01*
X012814Y014503D01*
X012885Y014573D01*
X012885Y014922D01*
X012814Y014993D01*
X012315Y014993D01*
X012250Y014928D01*
X011399Y014928D01*
X011442Y014970D01*
X011442Y015038D01*
X012279Y015038D01*
X012315Y015003D01*
X012814Y015003D01*
X012885Y015073D01*
X012885Y015422D01*
X012814Y015493D01*
X012315Y015493D01*
X012245Y015422D01*
X012245Y015398D01*
X011442Y015398D01*
X011442Y015466D01*
X011371Y015536D01*
X010891Y015536D01*
X010891Y015568D01*
X012250Y015568D01*
X012315Y015503D01*
X012814Y015503D01*
X012885Y015573D01*
X012885Y015922D01*
X012814Y015993D01*
X012315Y015993D01*
X012250Y015928D01*
X010891Y015928D01*
X010891Y015978D01*
X010820Y016048D01*
X010325Y016048D01*
X010254Y015978D01*
X010254Y015876D01*
X009989Y016141D01*
X009921Y016209D01*
X009833Y016246D01*
X002421Y016246D01*
X002290Y016376D01*
X002267Y016385D01*
X028163Y016385D01*
X028163Y011948D01*
X028161Y011948D01*
X026752Y012825D01*
X026735Y012841D01*
X026705Y012854D01*
X026677Y012871D01*
X026654Y012875D01*
X026632Y012884D01*
X026599Y012884D01*
X026567Y012889D01*
X026544Y012884D01*
X025669Y012884D01*
X025669Y012969D01*
X025599Y013039D01*
X024948Y013039D01*
X024878Y012969D01*
X024878Y012318D01*
X024948Y012248D01*
X025599Y012248D01*
X025669Y012318D01*
X025669Y012324D01*
X026496Y012324D01*
X027753Y011543D01*
X027753Y004899D01*
X027753Y004844D01*
X027753Y004788D01*
X027754Y004654D01*
X027745Y004679D01*
X027713Y004742D01*
X027672Y004799D01*
X027622Y004850D01*
X027564Y004891D01*
X027501Y004923D01*
X027434Y004945D01*
X027378Y004954D01*
X027378Y004256D01*
X027278Y004256D01*
X027278Y004156D01*
X026878Y004156D01*
X026878Y003871D01*
X026889Y003801D01*
X026911Y003734D01*
X026943Y003670D01*
X026985Y003613D01*
X027035Y003563D01*
X027092Y003521D01*
X027156Y003489D01*
X027223Y003467D01*
X027278Y003459D01*
X027278Y004156D01*
X027378Y004156D01*
X027378Y003459D01*
X027434Y003467D01*
X027501Y003489D01*
X027564Y003521D01*
X027622Y003563D01*
X027672Y003613D01*
X027713Y003670D01*
X027745Y003734D01*
X027756Y003766D01*
X027764Y000822D01*
X021972Y000844D01*
X021969Y000846D01*
X021916Y000845D01*
X021864Y000845D01*
X021861Y000843D01*
X020997Y000825D01*
X020951Y000827D01*
X020942Y000824D01*
X020932Y000824D01*
X020927Y000822D01*
X020224Y000825D01*
X020224Y000825D01*
X020168Y000825D01*
X020112Y000825D01*
X014065Y000844D01*
X014014Y000939D01*
X014014Y001759D01*
X014546Y001347D01*
X014573Y001320D01*
X014589Y001313D01*
X014604Y001302D01*
X014640Y001292D01*
X014676Y001278D01*
X014694Y001278D01*
X014711Y001273D01*
X014749Y001278D01*
X018107Y001278D01*
X018210Y001320D01*
X018289Y001399D01*
X019120Y002230D01*
X019163Y002333D01*
X019163Y002339D01*
X019171Y002360D01*
X019171Y002384D01*
X019507Y002384D01*
X019577Y002455D01*
X019577Y003653D01*
X019507Y003723D01*
X018258Y003723D01*
X018188Y003653D01*
X018188Y003094D01*
X017460Y002823D01*
X016874Y002823D01*
X016804Y002753D01*
X016804Y002102D01*
X016874Y002032D01*
X017525Y002032D01*
X017595Y002102D01*
X017595Y002276D01*
X018188Y002496D01*
X018188Y002455D01*
X018258Y002384D01*
X018482Y002384D01*
X017935Y001838D01*
X014827Y001838D01*
X014201Y002323D01*
X014174Y002350D01*
X014157Y002356D01*
X014143Y002367D01*
X014106Y002377D01*
X014071Y002392D01*
X014053Y002392D01*
X014036Y002397D01*
X013998Y002392D01*
X012361Y002388D01*
X012355Y002390D01*
X012305Y002388D01*
X012255Y002388D01*
X012250Y002386D01*
X011855Y002369D01*
X011830Y002393D01*
X011863Y002413D01*
X011891Y002441D01*
X011911Y002475D01*
X011921Y002513D01*
X011921Y002693D01*
X011396Y002693D01*
X011396Y002793D01*
X011921Y002793D01*
X011921Y002972D01*
X011911Y003011D01*
X011891Y003045D01*
X011863Y003073D01*
X011830Y003092D01*
X011891Y003153D01*
X011891Y003161D01*
X011975Y003159D01*
X012041Y003093D01*
X012537Y003093D01*
X012607Y003163D01*
X012607Y003659D01*
X012537Y003729D01*
X012041Y003729D01*
X011971Y003659D01*
X011971Y003639D01*
X011891Y003641D01*
X011891Y003672D01*
X011830Y003733D01*
X011863Y003753D01*
X011891Y003781D01*
X011911Y003815D01*
X011921Y003853D01*
X011921Y004033D01*
X011396Y004033D01*
X011396Y004133D01*
X011296Y004133D01*
X011296Y004443D01*
X010901Y004443D01*
X010863Y004432D01*
X010829Y004413D01*
X010801Y004385D01*
X010781Y004351D01*
X010771Y004312D01*
X010771Y004133D01*
X011296Y004133D01*
X011296Y004033D01*
X010771Y004033D01*
X010771Y003853D01*
X010781Y003815D01*
X010801Y003781D01*
X010829Y003753D01*
X010862Y003733D01*
X010801Y003672D01*
X010801Y003153D01*
X010862Y003092D01*
X010829Y003073D01*
X010801Y003045D01*
X010781Y003011D01*
X010771Y002972D01*
X010771Y002793D01*
X011296Y002793D01*
X011296Y002693D01*
X010771Y002693D01*
X010771Y002513D01*
X010781Y002475D01*
X010801Y002441D01*
X010829Y002413D01*
X010862Y002393D01*
X010801Y002332D01*
X010801Y001813D01*
X010871Y001743D01*
X011821Y001743D01*
X011888Y001810D01*
X012318Y001828D01*
X013223Y001830D01*
X013223Y001699D01*
X011866Y001687D01*
X011821Y001733D01*
X010871Y001733D01*
X010801Y001662D01*
X010801Y001143D01*
X010871Y001073D01*
X011821Y001073D01*
X011875Y001127D01*
X013223Y001139D01*
X013223Y000619D01*
X013294Y000549D01*
X013707Y000549D01*
X013706Y000510D01*
X013749Y000407D01*
X013805Y000350D01*
X002217Y000350D01*
X002286Y000385D01*
X002350Y000432D01*
X002406Y000488D01*
X002453Y000552D01*
X002489Y000623D01*
X002513Y000698D01*
X002524Y000767D01*
X002071Y000767D01*
X002071Y000867D01*
X001971Y000867D01*
X001971Y001319D01*
X001903Y001308D01*
X001828Y001284D01*
X001757Y001248D01*
X001693Y001201D01*
X001637Y001145D01*
X001590Y001081D01*
X001554Y001010D01*
X001529Y000935D01*
X001519Y000867D01*
X001971Y000867D01*
X001971Y000767D01*
X001519Y000767D01*
X001529Y000698D01*
X001554Y000623D01*
X001590Y000552D01*
X001637Y000488D01*
X001693Y000432D01*
X001757Y000385D01*
X001826Y000350D01*
X000350Y000350D01*
X000350Y000396D02*
X001743Y000396D01*
X001632Y000494D02*
X000350Y000494D01*
X000350Y000593D02*
X001569Y000593D01*
X001532Y000691D02*
X000350Y000691D01*
X000350Y000790D02*
X001971Y000790D01*
X001971Y000888D02*
X002071Y000888D01*
X002071Y000867D02*
X002071Y001319D01*
X002139Y001308D01*
X002215Y001284D01*
X002286Y001248D01*
X002350Y001201D01*
X002406Y001145D01*
X002453Y001081D01*
X002489Y001010D01*
X002513Y000935D01*
X002524Y000867D01*
X002071Y000867D01*
X002071Y000790D02*
X005897Y000790D01*
X005897Y000888D02*
X002521Y000888D01*
X002496Y000987D02*
X005897Y000987D01*
X005897Y001085D02*
X002450Y001085D01*
X002368Y001184D02*
X005897Y001184D01*
X005897Y001282D02*
X002219Y001282D01*
X002071Y001282D02*
X001971Y001282D01*
X001971Y001184D02*
X002071Y001184D01*
X002071Y001085D02*
X001971Y001085D01*
X001971Y000987D02*
X002071Y000987D01*
X002511Y000691D02*
X005897Y000691D01*
X005897Y000593D02*
X002473Y000593D01*
X002410Y000494D02*
X013713Y000494D01*
X013760Y000396D02*
X002300Y000396D01*
X001522Y000888D02*
X000350Y000888D01*
X000350Y000987D02*
X001546Y000987D01*
X001593Y001085D02*
X000350Y001085D01*
X000350Y001184D02*
X001675Y001184D01*
X001824Y001282D02*
X000350Y001282D01*
X000350Y001381D02*
X005897Y001381D01*
X005897Y001479D02*
X000350Y001479D01*
X000350Y001578D02*
X005897Y001578D01*
X005897Y001676D02*
X000350Y001676D01*
X000350Y001775D02*
X001796Y001775D01*
X001753Y001792D02*
X001927Y001720D01*
X002116Y001720D01*
X002290Y001792D01*
X002423Y001926D01*
X002460Y002014D01*
X003175Y002014D01*
X003364Y002203D01*
X003469Y002309D01*
X003469Y003529D01*
X003718Y003778D01*
X003982Y003778D01*
X004011Y003709D01*
X004129Y003590D01*
X004283Y003526D01*
X005050Y003526D01*
X005205Y003590D01*
X005323Y003709D01*
X005387Y003863D01*
X005387Y004030D01*
X005323Y004184D01*
X005205Y004303D01*
X005050Y004366D01*
X004283Y004366D01*
X004129Y004303D01*
X004011Y004184D01*
X003992Y004138D01*
X003569Y004138D01*
X003463Y004033D01*
X003193Y003763D01*
X003193Y004514D01*
X003442Y004763D01*
X003989Y004763D01*
X004011Y004709D01*
X004129Y004590D01*
X004283Y004526D01*
X005050Y004526D01*
X005205Y004590D01*
X005323Y004709D01*
X005387Y004863D01*
X005387Y005030D01*
X005323Y005184D01*
X005205Y005303D01*
X005050Y005366D01*
X004283Y005366D01*
X004129Y005303D01*
X004011Y005184D01*
X003985Y005123D01*
X003293Y005123D01*
X003188Y005017D01*
X002833Y004663D01*
X002833Y003797D01*
X002789Y003752D01*
X002460Y003752D01*
X002423Y003841D01*
X002290Y003975D01*
X002116Y004047D01*
X001927Y004047D01*
X001753Y003975D01*
X001619Y003841D01*
X001547Y003667D01*
X001547Y003478D01*
X001619Y003304D01*
X001753Y003170D01*
X001927Y003098D01*
X002116Y003098D01*
X002290Y003170D01*
X002423Y003304D01*
X002460Y003392D01*
X002938Y003392D01*
X003088Y003542D01*
X003109Y003563D01*
X003109Y002458D01*
X003025Y002374D01*
X002460Y002374D01*
X002423Y002463D01*
X002290Y002597D01*
X002116Y002669D01*
X001927Y002669D01*
X001753Y002597D01*
X001619Y002463D01*
X001547Y002289D01*
X001547Y002100D01*
X001619Y001926D01*
X001753Y001792D01*
X001672Y001873D02*
X000350Y001873D01*
X000350Y001972D02*
X001600Y001972D01*
X001559Y002070D02*
X000350Y002070D01*
X000350Y002169D02*
X001547Y002169D01*
X001547Y002267D02*
X000350Y002267D01*
X000350Y002366D02*
X001579Y002366D01*
X001620Y002464D02*
X000350Y002464D01*
X000350Y002563D02*
X001718Y002563D01*
X001908Y002661D02*
X000350Y002661D01*
X000350Y002760D02*
X003109Y002760D01*
X003109Y002858D02*
X000350Y002858D01*
X000350Y002957D02*
X003109Y002957D01*
X003109Y003055D02*
X000350Y003055D01*
X000350Y003154D02*
X001793Y003154D01*
X001671Y003252D02*
X000350Y003252D01*
X000350Y003351D02*
X001600Y003351D01*
X001559Y003449D02*
X000350Y003449D01*
X000350Y003548D02*
X001547Y003548D01*
X001547Y003646D02*
X000350Y003646D01*
X000350Y003745D02*
X001579Y003745D01*
X001621Y003843D02*
X000350Y003843D01*
X000350Y003942D02*
X001720Y003942D01*
X001911Y004040D02*
X000350Y004040D01*
X000350Y004139D02*
X002833Y004139D01*
X002833Y004237D02*
X000350Y004237D01*
X000350Y004336D02*
X002833Y004336D01*
X002833Y004434D02*
X000350Y004434D01*
X000350Y004533D02*
X001791Y004533D01*
X001753Y004548D02*
X001927Y004476D01*
X002116Y004476D01*
X002290Y004548D01*
X002423Y004682D01*
X002460Y004770D01*
X002899Y004770D01*
X003049Y004920D01*
X003154Y005025D01*
X003196Y005025D01*
X003154Y005025D02*
X003154Y005459D01*
X003442Y005747D01*
X003995Y005747D01*
X004011Y005709D01*
X004129Y005590D01*
X004283Y005526D01*
X005050Y005526D01*
X005205Y005590D01*
X005323Y005709D01*
X005387Y005863D01*
X005387Y006030D01*
X005323Y006184D01*
X005205Y006303D01*
X005050Y006366D01*
X004283Y006366D01*
X004129Y006303D01*
X004011Y006184D01*
X003979Y006107D01*
X003293Y006107D01*
X003188Y006001D01*
X002794Y005608D01*
X002794Y005175D01*
X002750Y005130D01*
X002460Y005130D01*
X002423Y005219D01*
X002290Y005353D01*
X002116Y005425D01*
X001927Y005425D01*
X001753Y005353D01*
X001619Y005219D01*
X001547Y005045D01*
X001547Y004856D01*
X001619Y004682D01*
X001753Y004548D01*
X001670Y004631D02*
X000350Y004631D01*
X000350Y004730D02*
X001599Y004730D01*
X001559Y004828D02*
X000350Y004828D01*
X000350Y004927D02*
X001547Y004927D01*
X001547Y005025D02*
X000350Y005025D01*
X000350Y005124D02*
X001580Y005124D01*
X001622Y005222D02*
X000350Y005222D01*
X000350Y005321D02*
X001721Y005321D01*
X001913Y005419D02*
X000350Y005419D01*
X000350Y005518D02*
X002794Y005518D01*
X002802Y005616D02*
X000350Y005616D01*
X000350Y005715D02*
X002901Y005715D01*
X002999Y005813D02*
X000350Y005813D01*
X000350Y005912D02*
X001788Y005912D01*
X001753Y005926D02*
X001927Y005854D01*
X002116Y005854D01*
X002290Y005926D01*
X002423Y006060D01*
X002460Y006148D01*
X002663Y006148D01*
X003245Y006731D01*
X004002Y006731D01*
X004011Y006709D01*
X004129Y006590D01*
X004283Y006526D01*
X005050Y006526D01*
X005205Y006590D01*
X005323Y006709D01*
X005387Y006863D01*
X005387Y007030D01*
X005323Y007184D01*
X005205Y007303D01*
X005050Y007366D01*
X004283Y007366D01*
X004129Y007303D01*
X004011Y007184D01*
X003972Y007091D01*
X003096Y007091D01*
X002991Y006986D01*
X002514Y006508D01*
X002460Y006508D01*
X002423Y006597D01*
X002290Y006730D01*
X002116Y006803D01*
X001927Y006803D01*
X001753Y006730D01*
X001619Y006597D01*
X001547Y006423D01*
X001547Y006234D01*
X001619Y006060D01*
X001753Y005926D01*
X001669Y006010D02*
X000350Y006010D01*
X000350Y006109D02*
X001599Y006109D01*
X001558Y006207D02*
X000350Y006207D01*
X000350Y006306D02*
X001547Y006306D01*
X001547Y006404D02*
X000350Y006404D01*
X000350Y006503D02*
X001580Y006503D01*
X001623Y006601D02*
X000350Y006601D01*
X000350Y006700D02*
X001722Y006700D01*
X001916Y006798D02*
X000350Y006798D01*
X000350Y006897D02*
X002902Y006897D01*
X003000Y006995D02*
X000350Y006995D01*
X000350Y007094D02*
X003973Y007094D01*
X004019Y007192D02*
X000350Y007192D01*
X000350Y007291D02*
X001786Y007291D01*
X001753Y007304D02*
X001927Y007232D01*
X002116Y007232D01*
X002290Y007304D01*
X002423Y007438D01*
X002496Y007612D01*
X002496Y007635D01*
X002616Y007755D01*
X003992Y007755D01*
X004011Y007709D01*
X004129Y007590D01*
X004283Y007526D01*
X005050Y007526D01*
X005205Y007590D01*
X005323Y007709D01*
X005387Y007863D01*
X005387Y008030D01*
X005323Y008184D01*
X005205Y008303D01*
X005050Y008366D01*
X004283Y008366D01*
X004129Y008303D01*
X004011Y008184D01*
X003982Y008115D01*
X002466Y008115D01*
X002375Y008023D01*
X002290Y008108D01*
X002116Y008181D01*
X001927Y008181D01*
X001753Y008108D01*
X001619Y007975D01*
X001547Y007801D01*
X001547Y007612D01*
X001619Y007438D01*
X001753Y007304D01*
X001668Y007389D02*
X000350Y007389D01*
X000350Y007488D02*
X001598Y007488D01*
X001558Y007586D02*
X000350Y007586D01*
X000350Y007685D02*
X001547Y007685D01*
X001547Y007783D02*
X000350Y007783D01*
X000350Y007882D02*
X001580Y007882D01*
X001624Y007980D02*
X000350Y007980D01*
X000350Y008079D02*
X001723Y008079D01*
X001918Y008177D02*
X000350Y008177D01*
X000350Y008276D02*
X004102Y008276D01*
X004008Y008177D02*
X002124Y008177D01*
X002320Y008079D02*
X002430Y008079D01*
X002545Y007685D02*
X004035Y007685D01*
X004140Y007586D02*
X002485Y007586D01*
X002444Y007488D02*
X010518Y007488D01*
X010539Y007539D02*
X010475Y007385D01*
X010475Y006618D01*
X010539Y006464D01*
X010657Y006346D01*
X010812Y006282D01*
X010979Y006282D01*
X011133Y006346D01*
X011251Y006464D01*
X011315Y006618D01*
X011315Y007385D01*
X011251Y007539D01*
X011133Y007658D01*
X011071Y007683D01*
X011071Y009671D01*
X011468Y010068D01*
X012250Y010068D01*
X012315Y010003D01*
X012814Y010003D01*
X012885Y010073D01*
X012885Y010422D01*
X012814Y010493D01*
X012315Y010493D01*
X012250Y010428D01*
X011319Y010428D01*
X010817Y009926D01*
X010711Y009820D01*
X010711Y007680D01*
X010657Y007658D01*
X010539Y007539D01*
X010586Y007586D02*
X005194Y007586D01*
X005299Y007685D02*
X010711Y007685D01*
X010711Y007783D02*
X005354Y007783D01*
X005387Y007882D02*
X010711Y007882D01*
X010711Y007980D02*
X005387Y007980D01*
X005367Y008079D02*
X010711Y008079D01*
X010711Y008177D02*
X005326Y008177D01*
X005232Y008276D02*
X010711Y008276D01*
X010711Y008374D02*
X000350Y008374D01*
X000350Y008473D02*
X010711Y008473D01*
X010711Y008571D02*
X005158Y008571D01*
X005205Y008590D02*
X005323Y008709D01*
X005387Y008863D01*
X005387Y009030D01*
X005323Y009184D01*
X005205Y009303D01*
X005050Y009366D01*
X004283Y009366D01*
X004129Y009303D01*
X004011Y009184D01*
X003947Y009030D01*
X003947Y008981D01*
X002616Y008981D01*
X002496Y009101D01*
X002496Y009179D01*
X002423Y009353D01*
X002290Y009486D01*
X002116Y009559D01*
X001927Y009559D01*
X001753Y009486D01*
X001619Y009353D01*
X001547Y009179D01*
X001547Y008990D01*
X001619Y008816D01*
X001753Y008682D01*
X001927Y008610D01*
X002116Y008610D01*
X002290Y008682D01*
X002347Y008740D01*
X002361Y008726D01*
X002466Y008621D01*
X004099Y008621D01*
X004129Y008590D01*
X004283Y008526D01*
X005050Y008526D01*
X005205Y008590D01*
X005284Y008670D02*
X010711Y008670D01*
X010711Y008768D02*
X005348Y008768D01*
X005387Y008867D02*
X010711Y008867D01*
X010711Y008965D02*
X005387Y008965D01*
X005373Y009064D02*
X010711Y009064D01*
X010711Y009162D02*
X005332Y009162D01*
X005247Y009261D02*
X010711Y009261D01*
X010711Y009359D02*
X005068Y009359D01*
X005050Y009526D02*
X005205Y009590D01*
X005323Y009709D01*
X005387Y009863D01*
X005387Y010030D01*
X005323Y010184D01*
X005205Y010303D01*
X005050Y010366D01*
X004283Y010366D01*
X004129Y010303D01*
X004011Y010184D01*
X003969Y010083D01*
X003088Y010083D01*
X002529Y010642D01*
X002460Y010642D01*
X002423Y010731D01*
X002290Y010864D01*
X002116Y010937D01*
X001927Y010937D01*
X001753Y010864D01*
X001619Y010731D01*
X001547Y010557D01*
X001547Y010368D01*
X001619Y010194D01*
X001753Y010060D01*
X001927Y009988D01*
X002116Y009988D01*
X002290Y010060D01*
X002423Y010194D01*
X002437Y010225D01*
X002833Y009829D01*
X002939Y009723D01*
X004005Y009723D01*
X004011Y009709D01*
X004129Y009590D01*
X004283Y009526D01*
X005050Y009526D01*
X005122Y009556D02*
X010711Y009556D01*
X010711Y009458D02*
X002319Y009458D01*
X002417Y009359D02*
X004265Y009359D01*
X004087Y009261D02*
X002462Y009261D01*
X002496Y009162D02*
X004002Y009162D01*
X003961Y009064D02*
X002533Y009064D01*
X002361Y008726D02*
X002361Y008726D01*
X002418Y008670D02*
X002259Y008670D01*
X001783Y008670D02*
X000350Y008670D01*
X000350Y008768D02*
X001667Y008768D01*
X001598Y008867D02*
X000350Y008867D01*
X000350Y008965D02*
X001557Y008965D01*
X001547Y009064D02*
X000350Y009064D01*
X000350Y009162D02*
X001547Y009162D01*
X001581Y009261D02*
X000350Y009261D01*
X000350Y009359D02*
X001625Y009359D01*
X001724Y009458D02*
X000350Y009458D01*
X000350Y009556D02*
X001921Y009556D01*
X002122Y009556D02*
X004212Y009556D01*
X004065Y009655D02*
X000350Y009655D01*
X000350Y009753D02*
X002909Y009753D01*
X002810Y009852D02*
X000350Y009852D01*
X000350Y009950D02*
X002712Y009950D01*
X002613Y010049D02*
X002262Y010049D01*
X002377Y010147D02*
X002515Y010147D01*
X002827Y010344D02*
X004229Y010344D01*
X004072Y010246D02*
X002926Y010246D01*
X003024Y010147D02*
X003995Y010147D01*
X004129Y010590D02*
X004283Y010526D01*
X005050Y010526D01*
X005205Y010590D01*
X005323Y010709D01*
X005387Y010863D01*
X005387Y011030D01*
X005323Y011184D01*
X005205Y011303D01*
X005050Y011366D01*
X004283Y011366D01*
X004129Y011303D01*
X004011Y011184D01*
X003995Y011146D01*
X002878Y011146D01*
X002878Y011474D01*
X002773Y011579D01*
X002496Y011857D01*
X002496Y011935D01*
X002423Y012109D01*
X002290Y012242D01*
X002116Y012314D01*
X001927Y012314D01*
X001753Y012242D01*
X001619Y012109D01*
X001547Y011935D01*
X001547Y011746D01*
X001619Y011571D01*
X001753Y011438D01*
X001927Y011366D01*
X002116Y011366D01*
X002290Y011438D01*
X002347Y011496D01*
X002518Y011325D01*
X002518Y010970D01*
X002597Y010892D01*
X002703Y010786D01*
X003979Y010786D01*
X004011Y010709D01*
X004129Y010590D01*
X004080Y010640D02*
X002532Y010640D01*
X002630Y010541D02*
X004248Y010541D01*
X003999Y010738D02*
X002416Y010738D01*
X002318Y010837D02*
X002652Y010837D01*
X002554Y010935D02*
X002119Y010935D01*
X001923Y010935D02*
X000350Y010935D01*
X000350Y010837D02*
X001725Y010837D01*
X001626Y010738D02*
X000350Y010738D01*
X000350Y010640D02*
X001581Y010640D01*
X001547Y010541D02*
X000350Y010541D01*
X000350Y010443D02*
X001547Y010443D01*
X001557Y010344D02*
X000350Y010344D01*
X000350Y010246D02*
X001598Y010246D01*
X001666Y010147D02*
X000350Y010147D01*
X000350Y010049D02*
X001780Y010049D01*
X002729Y010443D02*
X012265Y010443D01*
X012315Y010503D02*
X012245Y010573D01*
X012245Y010922D01*
X012315Y010993D01*
X012814Y010993D01*
X012885Y010922D01*
X012885Y010573D01*
X012814Y010503D01*
X012315Y010503D01*
X012276Y010541D02*
X005086Y010541D01*
X005254Y010640D02*
X012245Y010640D01*
X012245Y010738D02*
X005335Y010738D01*
X005376Y010837D02*
X012245Y010837D01*
X012257Y010935D02*
X012174Y010935D01*
X012163Y010924D02*
X012233Y010994D01*
X012233Y011062D01*
X012256Y011062D01*
X012315Y011003D01*
X012814Y011003D01*
X012885Y011073D01*
X012885Y011422D01*
X012814Y011493D01*
X012315Y011493D01*
X012245Y011422D01*
X012233Y011422D01*
X012233Y011490D01*
X012163Y011560D01*
X011667Y011560D01*
X011597Y011490D01*
X011597Y010994D01*
X011667Y010924D01*
X012163Y010924D01*
X012233Y011034D02*
X012284Y011034D01*
X012845Y011034D02*
X013133Y011034D01*
X013133Y011132D02*
X012885Y011132D01*
X012885Y011231D02*
X013113Y011231D01*
X013133Y011210D02*
X012827Y011516D01*
X012814Y011503D01*
X012315Y011503D01*
X012245Y011573D01*
X012245Y011922D01*
X012315Y011993D01*
X012814Y011993D01*
X012854Y011953D01*
X012899Y011953D01*
X013004Y011848D01*
X013493Y011360D01*
X013493Y009851D01*
X013560Y009851D01*
X013631Y009781D01*
X013631Y009285D01*
X013560Y009215D01*
X013082Y009215D01*
X013083Y009214D01*
X013083Y007678D01*
X013133Y007658D01*
X013251Y007539D01*
X013315Y007385D01*
X013315Y006618D01*
X013251Y006464D01*
X013133Y006346D01*
X012979Y006282D01*
X012812Y006282D01*
X012657Y006346D01*
X012539Y006464D01*
X012475Y006618D01*
X012475Y007385D01*
X012539Y007539D01*
X012657Y007658D01*
X012723Y007685D01*
X012723Y009003D01*
X012315Y009003D01*
X012245Y009073D01*
X012245Y009422D01*
X012315Y009493D01*
X012814Y009493D01*
X012885Y009422D01*
X012885Y009413D01*
X012978Y009319D01*
X012994Y009303D01*
X012994Y009781D01*
X013065Y009851D01*
X013133Y009851D01*
X013133Y011210D01*
X013014Y011329D02*
X012885Y011329D01*
X012879Y011428D02*
X012916Y011428D01*
X013129Y011723D02*
X013818Y011723D01*
X013818Y011625D02*
X013228Y011625D01*
X013326Y011526D02*
X013818Y011526D01*
X013818Y011428D02*
X013425Y011428D01*
X013493Y011329D02*
X013818Y011329D01*
X013818Y011231D02*
X013493Y011231D01*
X013493Y011132D02*
X013818Y011132D01*
X013818Y011034D02*
X013493Y011034D01*
X013493Y010935D02*
X013818Y010935D01*
X013818Y010837D02*
X013493Y010837D01*
X013493Y010738D02*
X013818Y010738D01*
X013818Y010640D02*
X013493Y010640D01*
X013493Y010541D02*
X013818Y010541D01*
X013818Y010443D02*
X013493Y010443D01*
X013493Y010344D02*
X013818Y010344D01*
X013818Y010246D02*
X013493Y010246D01*
X013493Y010147D02*
X013818Y010147D01*
X013818Y010049D02*
X013493Y010049D01*
X013493Y009950D02*
X013818Y009950D01*
X013818Y009852D02*
X013493Y009852D01*
X013631Y009753D02*
X013818Y009753D01*
X013818Y009655D02*
X013631Y009655D01*
X013631Y009556D02*
X013818Y009556D01*
X013818Y009458D02*
X013631Y009458D01*
X013631Y009359D02*
X013818Y009359D01*
X013818Y009261D02*
X013606Y009261D01*
X013818Y009162D02*
X013083Y009162D01*
X013083Y009064D02*
X013818Y009064D01*
X013818Y008965D02*
X013083Y008965D01*
X013083Y008867D02*
X013818Y008867D01*
X013818Y008768D02*
X013083Y008768D01*
X013083Y008670D02*
X013818Y008670D01*
X013818Y008571D02*
X013083Y008571D01*
X013083Y008473D02*
X013818Y008473D01*
X013818Y008374D02*
X013083Y008374D01*
X013083Y008276D02*
X013818Y008276D01*
X013805Y008177D02*
X013083Y008177D01*
X013083Y008079D02*
X013826Y008079D01*
X013849Y007980D02*
X013083Y007980D01*
X013083Y007882D02*
X013906Y007882D01*
X013973Y007783D02*
X013083Y007783D01*
X013083Y007685D02*
X013657Y007685D01*
X013659Y007686D02*
X013602Y007645D01*
X013552Y007595D01*
X013510Y007537D01*
X013478Y007474D01*
X013456Y007407D01*
X013445Y007337D01*
X013445Y007052D01*
X013845Y007052D01*
X013845Y007749D01*
X013790Y007740D01*
X013723Y007719D01*
X013659Y007686D01*
X013546Y007586D02*
X013205Y007586D01*
X013273Y007488D02*
X013485Y007488D01*
X013454Y007389D02*
X013314Y007389D01*
X013315Y007291D02*
X013445Y007291D01*
X013445Y007192D02*
X013315Y007192D01*
X013315Y007094D02*
X013445Y007094D01*
X013445Y006952D02*
X013445Y006666D01*
X013456Y006596D01*
X013478Y006529D01*
X013510Y006466D01*
X013552Y006408D01*
X013602Y006358D01*
X013659Y006317D01*
X013723Y006285D01*
X013790Y006263D01*
X013845Y006254D01*
X013845Y006952D01*
X013445Y006952D01*
X013445Y006897D02*
X013315Y006897D01*
X013315Y006995D02*
X013845Y006995D01*
X013845Y006952D02*
X013845Y007052D01*
X013945Y007052D01*
X013945Y007749D01*
X014001Y007740D01*
X014068Y007719D01*
X014131Y007686D01*
X014188Y007645D01*
X014239Y007595D01*
X014280Y007537D01*
X014312Y007474D01*
X014334Y007407D01*
X014345Y007337D01*
X014345Y007052D01*
X013945Y007052D01*
X013945Y006952D01*
X014345Y006952D01*
X014345Y006666D01*
X014334Y006596D01*
X014312Y006529D01*
X014280Y006466D01*
X014239Y006408D01*
X014188Y006358D01*
X014131Y006317D01*
X014068Y006285D01*
X014001Y006263D01*
X013945Y006254D01*
X013945Y006952D01*
X013845Y006952D01*
X013845Y006897D02*
X013945Y006897D01*
X013945Y006995D02*
X014475Y006995D01*
X014475Y006897D02*
X014345Y006897D01*
X014345Y006798D02*
X014475Y006798D01*
X014475Y006700D02*
X014345Y006700D01*
X014335Y006601D02*
X014482Y006601D01*
X014523Y006503D02*
X014299Y006503D01*
X014234Y006404D02*
X014599Y006404D01*
X014655Y006306D02*
X014109Y006306D01*
X013945Y006306D02*
X013845Y006306D01*
X013845Y006404D02*
X013945Y006404D01*
X013945Y006503D02*
X013845Y006503D01*
X013845Y006601D02*
X013945Y006601D01*
X013945Y006700D02*
X013845Y006700D01*
X013845Y006798D02*
X013945Y006798D01*
X013445Y006798D02*
X013315Y006798D01*
X013315Y006700D02*
X013445Y006700D01*
X013456Y006601D02*
X013308Y006601D01*
X013267Y006503D02*
X013492Y006503D01*
X013556Y006404D02*
X013192Y006404D01*
X013037Y006306D02*
X013681Y006306D01*
X012754Y006306D02*
X012037Y006306D01*
X011979Y006282D02*
X012133Y006346D01*
X012251Y006464D01*
X012315Y006618D01*
X012315Y007385D01*
X012251Y007539D01*
X012133Y007658D01*
X012103Y007670D01*
X012103Y009396D01*
X012262Y009555D01*
X012315Y009503D01*
X012814Y009503D01*
X012885Y009573D01*
X012885Y009922D01*
X012814Y009993D01*
X012315Y009993D01*
X012250Y009928D01*
X012126Y009928D01*
X011848Y009650D01*
X011743Y009545D01*
X011743Y007693D01*
X011657Y007658D01*
X011539Y007539D01*
X011475Y007385D01*
X011475Y006618D01*
X011539Y006464D01*
X011657Y006346D01*
X011812Y006282D01*
X011979Y006282D01*
X011754Y006306D02*
X011037Y006306D01*
X011192Y006404D02*
X011599Y006404D01*
X011523Y006503D02*
X011267Y006503D01*
X011308Y006601D02*
X011482Y006601D01*
X011475Y006700D02*
X011315Y006700D01*
X011315Y006798D02*
X011475Y006798D01*
X011475Y006897D02*
X011315Y006897D01*
X011315Y006995D02*
X011475Y006995D01*
X011475Y007094D02*
X011315Y007094D01*
X011315Y007192D02*
X011475Y007192D01*
X011475Y007291D02*
X011315Y007291D01*
X011314Y007389D02*
X011477Y007389D01*
X011518Y007488D02*
X011273Y007488D01*
X011205Y007586D02*
X011586Y007586D01*
X011722Y007685D02*
X011071Y007685D01*
X011071Y007783D02*
X011743Y007783D01*
X011743Y007882D02*
X011071Y007882D01*
X011071Y007980D02*
X011743Y007980D01*
X011743Y008079D02*
X011071Y008079D01*
X011071Y008177D02*
X011743Y008177D01*
X011743Y008276D02*
X011071Y008276D01*
X011071Y008374D02*
X011743Y008374D01*
X011743Y008473D02*
X011071Y008473D01*
X011071Y008571D02*
X011743Y008571D01*
X011743Y008670D02*
X011071Y008670D01*
X011071Y008768D02*
X011743Y008768D01*
X011743Y008867D02*
X011071Y008867D01*
X011071Y008965D02*
X011743Y008965D01*
X011743Y009064D02*
X011071Y009064D01*
X011071Y009162D02*
X011743Y009162D01*
X011743Y009261D02*
X011071Y009261D01*
X011071Y009359D02*
X011743Y009359D01*
X011743Y009458D02*
X011071Y009458D01*
X011071Y009556D02*
X011754Y009556D01*
X011853Y009655D02*
X011071Y009655D01*
X011153Y009753D02*
X011951Y009753D01*
X012050Y009852D02*
X011252Y009852D01*
X011350Y009950D02*
X012272Y009950D01*
X012269Y010049D02*
X011449Y010049D01*
X011235Y010344D02*
X005105Y010344D01*
X005262Y010246D02*
X011137Y010246D01*
X011038Y010147D02*
X005338Y010147D01*
X005379Y010049D02*
X010940Y010049D01*
X010841Y009950D02*
X005387Y009950D01*
X005382Y009852D02*
X010743Y009852D01*
X010711Y009753D02*
X005341Y009753D01*
X005269Y009655D02*
X010711Y009655D01*
X012103Y009359D02*
X012245Y009359D01*
X012245Y009261D02*
X012103Y009261D01*
X012103Y009162D02*
X012245Y009162D01*
X012254Y009064D02*
X012103Y009064D01*
X012103Y008965D02*
X012723Y008965D01*
X012723Y008867D02*
X012103Y008867D01*
X012103Y008768D02*
X012723Y008768D01*
X012723Y008670D02*
X012103Y008670D01*
X012103Y008571D02*
X012723Y008571D01*
X012723Y008473D02*
X012103Y008473D01*
X012103Y008374D02*
X012723Y008374D01*
X012723Y008276D02*
X012103Y008276D01*
X012103Y008177D02*
X012723Y008177D01*
X012723Y008079D02*
X012103Y008079D01*
X012103Y007980D02*
X012723Y007980D01*
X012723Y007882D02*
X012103Y007882D01*
X012103Y007783D02*
X012723Y007783D01*
X012722Y007685D02*
X012103Y007685D01*
X012205Y007586D02*
X012586Y007586D01*
X012518Y007488D02*
X012273Y007488D01*
X012314Y007389D02*
X012477Y007389D01*
X012475Y007291D02*
X012315Y007291D01*
X012315Y007192D02*
X012475Y007192D01*
X012475Y007094D02*
X012315Y007094D01*
X012315Y006995D02*
X012475Y006995D01*
X012475Y006897D02*
X012315Y006897D01*
X012315Y006798D02*
X012475Y006798D01*
X012475Y006700D02*
X012315Y006700D01*
X012308Y006601D02*
X012482Y006601D01*
X012523Y006503D02*
X012267Y006503D01*
X012192Y006404D02*
X012599Y006404D01*
X013845Y007094D02*
X013945Y007094D01*
X013945Y007192D02*
X013845Y007192D01*
X013845Y007291D02*
X013945Y007291D01*
X013945Y007389D02*
X013845Y007389D01*
X013845Y007488D02*
X013945Y007488D01*
X013945Y007586D02*
X013845Y007586D01*
X013845Y007685D02*
X013945Y007685D01*
X014134Y007685D02*
X014562Y007685D01*
X014586Y007586D02*
X014245Y007586D01*
X014306Y007488D02*
X014518Y007488D01*
X014477Y007389D02*
X014337Y007389D01*
X014345Y007291D02*
X014475Y007291D01*
X014475Y007192D02*
X014345Y007192D01*
X014345Y007094D02*
X014475Y007094D01*
X015315Y007094D02*
X015475Y007094D01*
X015475Y007192D02*
X015315Y007192D01*
X015315Y007291D02*
X015475Y007291D01*
X015475Y007385D02*
X015475Y006618D01*
X015539Y006464D01*
X015657Y006346D01*
X015812Y006282D01*
X015933Y006282D01*
X015911Y006260D01*
X015238Y006260D01*
X015143Y006355D01*
X015251Y006464D01*
X015315Y006618D01*
X015315Y007385D01*
X015251Y007539D01*
X015175Y007616D01*
X015175Y007699D01*
X015138Y007787D01*
X015071Y007855D01*
X014764Y008162D01*
X014675Y008198D01*
X014340Y008198D01*
X014340Y011018D01*
X015014Y011018D01*
X015014Y010951D01*
X015084Y010880D01*
X015530Y010880D01*
X015530Y010551D01*
X015505Y010576D01*
X015010Y010576D01*
X014939Y010505D01*
X014939Y010010D01*
X015010Y009939D01*
X015505Y009939D01*
X015530Y009964D01*
X015530Y009498D01*
X015600Y009428D01*
X016096Y009428D01*
X016166Y009498D01*
X016166Y009568D01*
X016250Y009568D01*
X016315Y009503D01*
X016814Y009503D01*
X016885Y009573D01*
X016885Y009922D01*
X016814Y009993D01*
X016315Y009993D01*
X016250Y009928D01*
X016166Y009928D01*
X016166Y009993D01*
X016096Y010064D01*
X015600Y010064D01*
X015576Y010039D01*
X015576Y010068D01*
X016250Y010068D01*
X016315Y010003D01*
X016814Y010003D01*
X016885Y010073D01*
X016885Y010422D01*
X016814Y010493D01*
X016315Y010493D01*
X016250Y010428D01*
X016112Y010428D01*
X016166Y010482D01*
X016166Y010568D01*
X016250Y010568D01*
X016315Y010503D01*
X016814Y010503D01*
X016885Y010573D01*
X016885Y010922D01*
X016814Y010993D01*
X016315Y010993D01*
X016250Y010928D01*
X016166Y010928D01*
X016166Y010978D01*
X016096Y011048D01*
X015650Y011048D01*
X015650Y011446D01*
X015580Y011517D01*
X015084Y011517D01*
X015014Y011446D01*
X015014Y011378D01*
X014340Y011378D01*
X014340Y015860D01*
X014897Y015860D01*
X014849Y015812D01*
X014537Y015812D01*
X014467Y015742D01*
X014467Y015246D01*
X014537Y015176D01*
X015033Y015176D01*
X015103Y015246D01*
X015103Y015557D01*
X015114Y015568D01*
X016250Y015568D01*
X016315Y015503D01*
X016814Y015503D01*
X016885Y015573D01*
X016885Y015860D01*
X019066Y015860D01*
X018809Y015603D01*
X018703Y015497D01*
X018703Y014600D01*
X018599Y014496D01*
X018599Y014978D01*
X018529Y015048D01*
X018033Y015048D01*
X017963Y014978D01*
X017963Y014894D01*
X016885Y014894D01*
X016885Y014922D01*
X016814Y014993D01*
X016315Y014993D01*
X016245Y014922D01*
X016245Y014573D01*
X016315Y014503D01*
X016814Y014503D01*
X016846Y014534D01*
X017963Y014534D01*
X017963Y014482D01*
X018023Y014422D01*
X016885Y014422D01*
X016885Y014422D01*
X016814Y014493D01*
X016315Y014493D01*
X016245Y014422D01*
X016245Y014073D01*
X016315Y014003D01*
X016814Y014003D01*
X016873Y014062D01*
X018675Y014062D01*
X018780Y014167D01*
X019063Y014451D01*
X019063Y015348D01*
X019106Y015391D01*
X019106Y013794D01*
X018954Y013643D01*
X018642Y013643D01*
X018642Y013771D01*
X018572Y013842D01*
X017882Y013842D01*
X017812Y013771D01*
X017812Y013734D01*
X017741Y013805D01*
X017624Y013922D01*
X016885Y013922D01*
X016885Y013922D01*
X016814Y013993D01*
X016315Y013993D01*
X016245Y013922D01*
X016245Y013573D01*
X016315Y013503D01*
X016814Y013503D01*
X016834Y013522D01*
X017458Y013522D01*
X017683Y013298D01*
X017812Y013298D01*
X017812Y013160D01*
X017864Y013108D01*
X017840Y013094D01*
X017817Y013071D01*
X017439Y013450D01*
X016857Y013450D01*
X016814Y013493D01*
X016315Y013493D01*
X016245Y013422D01*
X016245Y013073D01*
X016306Y013012D01*
X016272Y012993D01*
X016245Y012965D01*
X016225Y012931D01*
X016215Y012892D01*
X016215Y012760D01*
X016552Y012760D01*
X016552Y012735D01*
X016215Y012735D01*
X016215Y012603D01*
X016225Y012565D01*
X016245Y012531D01*
X016272Y012503D01*
X016306Y012483D01*
X016245Y012422D01*
X016245Y012073D01*
X016315Y012003D01*
X016814Y012003D01*
X016885Y012073D01*
X016885Y012422D01*
X016823Y012483D01*
X016857Y012503D01*
X016885Y012531D01*
X016904Y012565D01*
X016915Y012603D01*
X016915Y012735D01*
X016577Y012735D01*
X016577Y012760D01*
X016915Y012760D01*
X016915Y012892D01*
X016904Y012931D01*
X016885Y012965D01*
X016857Y012993D01*
X016823Y013012D01*
X016861Y013050D01*
X017273Y013050D01*
X017530Y012793D01*
X017530Y012035D01*
X017462Y012103D01*
X016966Y012103D01*
X016896Y012033D01*
X016896Y011955D01*
X016852Y011955D01*
X016814Y011993D01*
X016315Y011993D01*
X016245Y011922D01*
X016245Y011573D01*
X016315Y011503D01*
X016814Y011503D01*
X016885Y011573D01*
X016885Y011615D01*
X016896Y011615D01*
X016896Y011537D01*
X016945Y011488D01*
X016945Y011472D01*
X016939Y011466D01*
X016939Y011072D01*
X016937Y011058D01*
X016939Y011056D01*
X016939Y010970D01*
X017010Y010900D01*
X017321Y010900D01*
X017455Y010766D01*
X017455Y010682D01*
X017440Y010666D01*
X017440Y010534D01*
X017455Y010518D01*
X017455Y010374D01*
X017290Y010374D01*
X017220Y010303D01*
X017220Y009692D01*
X017289Y009624D01*
X017220Y009555D01*
X017220Y009430D01*
X016877Y009430D01*
X016814Y009493D01*
X016315Y009493D01*
X016245Y009422D01*
X016245Y009216D01*
X015836Y008808D01*
X015731Y008702D01*
X015731Y007688D01*
X015657Y007658D01*
X015539Y007539D01*
X015475Y007385D01*
X015477Y007389D02*
X015314Y007389D01*
X015273Y007488D02*
X015518Y007488D01*
X015586Y007586D02*
X015205Y007586D01*
X015175Y007685D02*
X015722Y007685D01*
X015731Y007783D02*
X015140Y007783D01*
X015044Y007882D02*
X015731Y007882D01*
X015731Y007980D02*
X014945Y007980D01*
X014847Y008079D02*
X015731Y008079D01*
X015731Y008177D02*
X014727Y008177D01*
X014340Y008276D02*
X015731Y008276D01*
X015731Y008374D02*
X014340Y008374D01*
X014340Y008473D02*
X015731Y008473D01*
X015731Y008571D02*
X014340Y008571D01*
X014340Y008670D02*
X015731Y008670D01*
X015797Y008768D02*
X014340Y008768D01*
X014340Y008867D02*
X015895Y008867D01*
X015994Y008965D02*
X014340Y008965D01*
X014340Y009064D02*
X016092Y009064D01*
X016191Y009162D02*
X014340Y009162D01*
X014340Y009261D02*
X016245Y009261D01*
X016245Y009359D02*
X014340Y009359D01*
X014340Y009458D02*
X015570Y009458D01*
X015530Y009556D02*
X014340Y009556D01*
X014340Y009655D02*
X015530Y009655D01*
X015530Y009753D02*
X014340Y009753D01*
X014340Y009852D02*
X015530Y009852D01*
X015516Y009950D02*
X015530Y009950D01*
X015576Y010049D02*
X015585Y010049D01*
X016111Y010049D02*
X016269Y010049D01*
X016272Y009950D02*
X016166Y009950D01*
X016166Y009556D02*
X016261Y009556D01*
X016280Y009458D02*
X016126Y009458D01*
X016849Y009458D02*
X017220Y009458D01*
X017221Y009556D02*
X016868Y009556D01*
X016885Y009655D02*
X017258Y009655D01*
X017220Y009753D02*
X016885Y009753D01*
X016885Y009852D02*
X017220Y009852D01*
X017220Y009950D02*
X016857Y009950D01*
X016860Y010049D02*
X017220Y010049D01*
X017220Y010147D02*
X016885Y010147D01*
X016885Y010246D02*
X017220Y010246D01*
X017261Y010344D02*
X016885Y010344D01*
X016864Y010443D02*
X017455Y010443D01*
X017440Y010541D02*
X016853Y010541D01*
X016885Y010640D02*
X017440Y010640D01*
X017455Y010738D02*
X016885Y010738D01*
X016885Y010837D02*
X017385Y010837D01*
X017697Y011034D02*
X017800Y011034D01*
X017800Y011132D02*
X017598Y011132D01*
X017576Y011231D02*
X017777Y011231D01*
X017679Y011329D02*
X017576Y011329D01*
X017576Y011428D02*
X017580Y011428D01*
X017214Y011785D02*
X016602Y011785D01*
X016565Y011748D01*
X016245Y011723D02*
X014340Y011723D01*
X014340Y011625D02*
X016245Y011625D01*
X016291Y011526D02*
X014340Y011526D01*
X014340Y011428D02*
X015014Y011428D01*
X015650Y011428D02*
X016250Y011428D01*
X016245Y011422D02*
X016245Y011073D01*
X016315Y011003D01*
X016814Y011003D01*
X016885Y011073D01*
X016885Y011422D01*
X016814Y011493D01*
X016315Y011493D01*
X016245Y011422D01*
X016245Y011329D02*
X015650Y011329D01*
X015650Y011231D02*
X016245Y011231D01*
X016245Y011132D02*
X015650Y011132D01*
X015530Y010837D02*
X014340Y010837D01*
X014340Y010935D02*
X015030Y010935D01*
X015530Y010738D02*
X014340Y010738D01*
X014340Y010640D02*
X015530Y010640D01*
X014975Y010541D02*
X014340Y010541D01*
X014340Y010443D02*
X014939Y010443D01*
X014939Y010344D02*
X014340Y010344D01*
X014340Y010246D02*
X014939Y010246D01*
X014939Y010147D02*
X014340Y010147D01*
X014340Y010049D02*
X014939Y010049D01*
X014999Y009950D02*
X014340Y009950D01*
X013133Y009950D02*
X012857Y009950D01*
X012860Y010049D02*
X013133Y010049D01*
X013133Y010147D02*
X012885Y010147D01*
X012885Y010246D02*
X013133Y010246D01*
X013133Y010344D02*
X012885Y010344D01*
X012864Y010443D02*
X013133Y010443D01*
X013133Y010541D02*
X012853Y010541D01*
X012885Y010640D02*
X013133Y010640D01*
X013133Y010738D02*
X012885Y010738D01*
X012885Y010837D02*
X013133Y010837D01*
X013133Y010935D02*
X012872Y010935D01*
X012250Y011428D02*
X012233Y011428D01*
X012245Y011422D02*
X012245Y011422D01*
X012291Y011526D02*
X012197Y011526D01*
X012245Y011625D02*
X005239Y011625D01*
X005329Y011723D02*
X012245Y011723D01*
X012245Y011822D02*
X005370Y011822D01*
X005292Y012216D02*
X010328Y012216D01*
X010230Y012314D02*
X005177Y012314D01*
X005387Y013004D02*
X010164Y013004D01*
X010148Y012905D02*
X010263Y012905D01*
X010246Y012807D02*
X010361Y012807D01*
X010345Y012708D02*
X010460Y012708D01*
X010443Y012610D02*
X010925Y012610D01*
X010925Y013131D02*
X010715Y013131D01*
X010340Y013506D01*
X010340Y014467D01*
X010820Y014467D01*
X010891Y014537D01*
X010891Y014568D01*
X010924Y014568D01*
X010924Y014104D01*
X010992Y014036D01*
X010987Y014035D01*
X010953Y014015D01*
X010925Y013987D01*
X010905Y013953D01*
X010895Y013915D01*
X010895Y013689D01*
X011290Y013689D01*
X011290Y013589D01*
X010895Y013589D01*
X010895Y013364D01*
X010905Y013326D01*
X010925Y013291D01*
X010953Y013263D01*
X010977Y013249D01*
X010925Y013197D01*
X010925Y013131D01*
X010928Y013201D02*
X010646Y013201D01*
X010547Y013299D02*
X010920Y013299D01*
X010895Y013398D02*
X010449Y013398D01*
X010350Y013496D02*
X010895Y013496D01*
X010895Y013693D02*
X010340Y013693D01*
X010340Y013595D02*
X011290Y013595D01*
X011390Y013595D02*
X012217Y013595D01*
X012215Y013603D02*
X012225Y013565D01*
X012245Y013531D01*
X012272Y013503D01*
X012306Y013483D01*
X012250Y013428D01*
X011988Y013428D01*
X011755Y013195D01*
X011755Y013197D01*
X011703Y013249D01*
X011728Y013263D01*
X011755Y013291D01*
X011775Y013326D01*
X011785Y013364D01*
X011785Y013589D01*
X011390Y013589D01*
X011390Y013689D01*
X011785Y013689D01*
X011785Y013915D01*
X011775Y013953D01*
X011755Y013987D01*
X011728Y014015D01*
X011693Y014035D01*
X011655Y014045D01*
X011501Y014045D01*
X011523Y014068D01*
X012250Y014068D01*
X012306Y014012D01*
X012272Y013993D01*
X012245Y013965D01*
X012225Y013931D01*
X012215Y013892D01*
X012215Y013760D01*
X012552Y013760D01*
X012552Y013735D01*
X012215Y013735D01*
X012215Y013603D01*
X012215Y013693D02*
X011785Y013693D01*
X011785Y013792D02*
X012215Y013792D01*
X012215Y013890D02*
X011785Y013890D01*
X011754Y013989D02*
X012268Y013989D01*
X012861Y013989D02*
X013860Y013989D01*
X013860Y014087D02*
X012885Y014087D01*
X012885Y014186D02*
X013860Y014186D01*
X013860Y014284D02*
X012885Y014284D01*
X012885Y014383D02*
X013860Y014383D01*
X013860Y014481D02*
X012826Y014481D01*
X012885Y014580D02*
X013860Y014580D01*
X013860Y014678D02*
X012885Y014678D01*
X012885Y014777D02*
X013860Y014777D01*
X013860Y014875D02*
X012885Y014875D01*
X012833Y014974D02*
X013860Y014974D01*
X013860Y015072D02*
X012884Y015072D01*
X012885Y015171D02*
X013860Y015171D01*
X013860Y015269D02*
X012885Y015269D01*
X012885Y015368D02*
X013860Y015368D01*
X013860Y015466D02*
X012841Y015466D01*
X012876Y015565D02*
X013860Y015565D01*
X013860Y015663D02*
X012885Y015663D01*
X012885Y015762D02*
X013860Y015762D01*
X013860Y015860D02*
X012885Y015860D01*
X012848Y015959D02*
X013860Y015959D01*
X013860Y016057D02*
X010073Y016057D01*
X010171Y015959D02*
X010254Y015959D01*
X009974Y016156D02*
X013863Y016156D01*
X013915Y016254D02*
X002412Y016254D01*
X002314Y016353D02*
X028163Y016353D01*
X028163Y016254D02*
X020785Y016254D01*
X020884Y016156D02*
X020923Y016156D01*
X021671Y016156D02*
X021715Y016156D01*
X022085Y016156D02*
X022185Y016156D01*
X022185Y016222D02*
X022185Y015867D01*
X022581Y015867D01*
X022581Y016092D01*
X022570Y016130D01*
X022551Y016165D01*
X022523Y016192D01*
X022489Y016212D01*
X022450Y016222D01*
X022185Y016222D01*
X022185Y016057D02*
X022085Y016057D01*
X022085Y015959D02*
X022185Y015959D01*
X022185Y015860D02*
X026271Y015860D01*
X026271Y015762D02*
X022581Y015762D01*
X022581Y015663D02*
X026271Y015663D01*
X026271Y015565D02*
X022581Y015565D01*
X022548Y015466D02*
X023288Y015466D01*
X023190Y015368D02*
X022551Y015368D01*
X022551Y015269D02*
X023091Y015269D01*
X023055Y015171D02*
X022827Y015171D01*
X022926Y015072D02*
X023455Y015072D01*
X023455Y015171D02*
X023555Y015171D01*
X023555Y015097D02*
X023555Y015497D01*
X023692Y015497D01*
X023955Y015233D01*
X023955Y015097D01*
X023555Y015097D01*
X023555Y015072D02*
X024010Y015072D01*
X023955Y015171D02*
X024109Y015171D01*
X023919Y015269D02*
X024914Y015269D01*
X025012Y015368D02*
X023821Y015368D01*
X023722Y015466D02*
X025111Y015466D01*
X025460Y015466D02*
X026271Y015466D01*
X026271Y015444D02*
X026342Y015374D01*
X026467Y015374D01*
X026467Y014155D01*
X026388Y014075D01*
X026338Y014025D01*
X026338Y014179D01*
X026252Y014385D01*
X026094Y014544D01*
X025887Y014629D01*
X025663Y014629D01*
X025457Y014544D01*
X025298Y014385D01*
X025213Y014179D01*
X025213Y013955D01*
X025298Y013748D01*
X025457Y013590D01*
X025615Y013524D01*
X023604Y013524D01*
X023525Y013445D01*
X022899Y013445D01*
X022794Y013340D01*
X022695Y013241D01*
X021394Y013241D01*
X021394Y013308D01*
X021324Y013379D01*
X020829Y013379D01*
X020758Y013308D01*
X020758Y012813D01*
X020829Y012743D01*
X021324Y012743D01*
X021394Y012813D01*
X021394Y012881D01*
X022695Y012881D01*
X022844Y012881D01*
X023049Y013085D01*
X023675Y013085D01*
X023753Y013164D01*
X026151Y013164D01*
X026256Y013270D01*
X026642Y013655D01*
X026642Y013821D01*
X026827Y014006D01*
X026827Y015374D01*
X026953Y015374D01*
X027021Y015442D01*
X027088Y015376D01*
X027063Y015350D01*
X027063Y014779D01*
X027133Y014708D01*
X027705Y014708D01*
X027775Y014779D01*
X027775Y015350D01*
X027760Y015366D01*
X027760Y015433D01*
X027771Y015444D01*
X027771Y015535D01*
X027773Y015536D01*
X027771Y015574D01*
X027771Y016134D01*
X027701Y016204D01*
X027090Y016204D01*
X027021Y016136D01*
X026953Y016204D01*
X026342Y016204D01*
X026271Y016134D01*
X026271Y015444D01*
X026467Y015368D02*
X025558Y015368D01*
X025657Y015269D02*
X026467Y015269D01*
X026467Y015171D02*
X025705Y015171D01*
X025705Y015072D02*
X026467Y015072D01*
X026467Y014974D02*
X025705Y014974D01*
X025705Y014875D02*
X026467Y014875D01*
X026467Y014777D02*
X025609Y014777D01*
X025511Y014678D02*
X026467Y014678D01*
X026467Y014580D02*
X026007Y014580D01*
X026156Y014481D02*
X026467Y014481D01*
X026467Y014383D02*
X026253Y014383D01*
X026294Y014284D02*
X026467Y014284D01*
X026467Y014186D02*
X026335Y014186D01*
X026338Y014087D02*
X026399Y014087D01*
X026810Y013989D02*
X027033Y013989D01*
X027033Y013982D02*
X027043Y013944D01*
X027063Y013909D01*
X027091Y013882D01*
X027125Y013862D01*
X027163Y013852D01*
X027369Y013852D01*
X027369Y014188D01*
X027033Y014188D01*
X027033Y013982D01*
X027082Y013890D02*
X026712Y013890D01*
X026642Y013792D02*
X028163Y013792D01*
X028163Y013890D02*
X027756Y013890D01*
X027747Y013882D02*
X027775Y013909D01*
X027795Y013944D01*
X027805Y013982D01*
X027805Y014188D01*
X027469Y014188D01*
X027469Y014288D01*
X027369Y014288D01*
X027369Y014624D01*
X027163Y014624D01*
X027125Y014614D01*
X027091Y014594D01*
X027063Y014566D01*
X027043Y014532D01*
X027033Y014494D01*
X027033Y014288D01*
X027369Y014288D01*
X027369Y014188D01*
X027469Y014188D01*
X027469Y013852D01*
X027675Y013852D01*
X027713Y013862D01*
X027747Y013882D01*
X027805Y013989D02*
X028163Y013989D01*
X028163Y014087D02*
X027805Y014087D01*
X027805Y014186D02*
X028163Y014186D01*
X028163Y014284D02*
X027469Y014284D01*
X027469Y014288D02*
X027805Y014288D01*
X027805Y014494D01*
X027795Y014532D01*
X027775Y014566D01*
X027747Y014594D01*
X027713Y014614D01*
X027675Y014624D01*
X027469Y014624D01*
X027469Y014288D01*
X027469Y014383D02*
X027369Y014383D01*
X027369Y014481D02*
X027469Y014481D01*
X027469Y014580D02*
X027369Y014580D01*
X027076Y014580D02*
X026827Y014580D01*
X026827Y014678D02*
X028163Y014678D01*
X028163Y014580D02*
X027762Y014580D01*
X027805Y014481D02*
X028163Y014481D01*
X028163Y014383D02*
X027805Y014383D01*
X027469Y014186D02*
X027369Y014186D01*
X027369Y014284D02*
X026827Y014284D01*
X026827Y014186D02*
X027033Y014186D01*
X027033Y014087D02*
X026827Y014087D01*
X026827Y014383D02*
X027033Y014383D01*
X027033Y014481D02*
X026827Y014481D01*
X026827Y014777D02*
X027065Y014777D01*
X027063Y014875D02*
X026827Y014875D01*
X026827Y014974D02*
X027063Y014974D01*
X027063Y015072D02*
X026827Y015072D01*
X026827Y015171D02*
X027063Y015171D01*
X027063Y015269D02*
X026827Y015269D01*
X026827Y015368D02*
X027080Y015368D01*
X027395Y015789D02*
X027600Y015600D01*
X027772Y015565D02*
X028163Y015565D01*
X028163Y015663D02*
X027771Y015663D01*
X027771Y015762D02*
X028163Y015762D01*
X028163Y015860D02*
X027771Y015860D01*
X027771Y015959D02*
X028163Y015959D01*
X028163Y016057D02*
X027771Y016057D01*
X027750Y016156D02*
X028163Y016156D01*
X028163Y015466D02*
X027771Y015466D01*
X027760Y015368D02*
X028163Y015368D01*
X028163Y015269D02*
X027775Y015269D01*
X027775Y015171D02*
X028163Y015171D01*
X028163Y015072D02*
X027775Y015072D01*
X027775Y014974D02*
X028163Y014974D01*
X028163Y014875D02*
X027775Y014875D01*
X027773Y014777D02*
X028163Y014777D01*
X027469Y014087D02*
X027369Y014087D01*
X027369Y013989D02*
X027469Y013989D01*
X027469Y013890D02*
X027369Y013890D01*
X026642Y013693D02*
X028163Y013693D01*
X028163Y013595D02*
X026581Y013595D01*
X026483Y013496D02*
X028163Y013496D01*
X028163Y013398D02*
X026384Y013398D01*
X026286Y013299D02*
X028163Y013299D01*
X028163Y013201D02*
X026187Y013201D01*
X025634Y013004D02*
X028163Y013004D01*
X028163Y013102D02*
X023691Y013102D01*
X023452Y013039D02*
X023382Y012969D01*
X023382Y012318D01*
X023440Y012260D01*
X023440Y012102D01*
X023438Y012038D01*
X023440Y012036D01*
X023440Y012034D01*
X023468Y012005D01*
X023456Y011508D01*
X023453Y011500D01*
X023454Y011460D01*
X023453Y011421D01*
X023456Y011413D01*
X023460Y011329D01*
X021148Y011340D01*
X021101Y011340D01*
X021053Y011340D01*
X021052Y011340D01*
X021009Y011322D01*
X020965Y011304D01*
X020965Y011304D01*
X020964Y011303D01*
X020931Y011270D01*
X020897Y011237D01*
X020897Y011236D01*
X020897Y011236D01*
X020878Y011192D01*
X020860Y011149D01*
X020860Y011148D01*
X020860Y011101D01*
X020860Y011053D01*
X020860Y009310D01*
X020830Y009280D01*
X020782Y009163D01*
X020782Y009037D01*
X020830Y008920D01*
X020920Y008830D01*
X021037Y008782D01*
X021163Y008782D01*
X021280Y008830D01*
X021370Y008920D01*
X021418Y009037D01*
X021418Y009163D01*
X021370Y009280D01*
X021340Y009310D01*
X021340Y010859D01*
X023667Y010848D01*
X023673Y010846D01*
X023715Y010848D01*
X023757Y010848D01*
X023762Y010850D01*
X023768Y010850D01*
X023806Y010868D01*
X023845Y010884D01*
X023849Y010888D01*
X023855Y010891D01*
X023883Y010922D01*
X023913Y010951D01*
X023915Y010957D01*
X023919Y010961D01*
X023934Y011001D01*
X023950Y011039D01*
X023950Y011045D01*
X023952Y011051D01*
X023950Y011093D01*
X023950Y011135D01*
X023948Y011140D01*
X023935Y011464D01*
X023950Y012043D01*
X023955Y012248D01*
X024102Y012248D01*
X024173Y012318D01*
X024173Y012969D01*
X024102Y013039D01*
X023452Y013039D01*
X023417Y013004D02*
X022967Y013004D01*
X022868Y012905D02*
X023382Y012905D01*
X023382Y012807D02*
X021388Y012807D01*
X021432Y012570D02*
X021362Y012500D01*
X021362Y012325D01*
X021355Y012325D01*
X021355Y012371D01*
X021285Y012442D01*
X020789Y012442D01*
X020719Y012371D01*
X020719Y011876D01*
X020789Y011806D01*
X021285Y011806D01*
X021355Y011876D01*
X021355Y011985D01*
X021362Y011985D01*
X021362Y011810D01*
X021432Y011740D01*
X022043Y011740D01*
X022096Y011792D01*
X022110Y011768D01*
X022138Y011740D01*
X022172Y011720D01*
X022210Y011710D01*
X022436Y011710D01*
X022436Y012105D01*
X022536Y012105D01*
X022536Y012205D01*
X022892Y012205D01*
X022892Y012470D01*
X022882Y012508D01*
X022862Y012542D01*
X022834Y012570D01*
X022800Y012590D01*
X022761Y012600D01*
X022536Y012600D01*
X022536Y012205D01*
X022436Y012205D01*
X022436Y012600D01*
X022210Y012600D01*
X022172Y012590D01*
X022138Y012570D01*
X022110Y012542D01*
X022096Y012518D01*
X022043Y012570D01*
X021432Y012570D01*
X021373Y012511D02*
X018672Y012511D01*
X018672Y012610D02*
X023382Y012610D01*
X023382Y012708D02*
X018277Y012708D01*
X018277Y012668D02*
X018277Y012466D01*
X018265Y012466D01*
X018265Y012110D01*
X018165Y012110D01*
X018165Y012312D01*
X018177Y012312D01*
X018177Y012668D01*
X018277Y012668D01*
X018277Y012610D02*
X018177Y012610D01*
X018177Y012511D02*
X018277Y012511D01*
X018265Y012413D02*
X018177Y012413D01*
X018177Y012314D02*
X018265Y012314D01*
X018265Y012216D02*
X018165Y012216D01*
X018165Y012117D02*
X018265Y012117D01*
X018265Y012019D02*
X020719Y012019D01*
X020719Y012117D02*
X018660Y012117D01*
X018660Y012216D02*
X020719Y012216D01*
X020719Y012314D02*
X018660Y012314D01*
X018664Y012413D02*
X020760Y012413D01*
X020765Y012807D02*
X018672Y012807D01*
X018672Y012905D02*
X020758Y012905D01*
X020758Y013004D02*
X018670Y013004D01*
X018600Y013102D02*
X020758Y013102D01*
X020758Y013201D02*
X018642Y013201D01*
X018642Y013693D02*
X019005Y013693D01*
X019103Y013792D02*
X018622Y013792D01*
X019106Y013890D02*
X017656Y013890D01*
X017754Y013792D02*
X017832Y013792D01*
X017484Y013496D02*
X014340Y013496D01*
X014340Y013398D02*
X016245Y013398D01*
X016245Y013299D02*
X014340Y013299D01*
X014340Y013201D02*
X016245Y013201D01*
X016245Y013102D02*
X014340Y013102D01*
X014340Y013004D02*
X016291Y013004D01*
X016218Y012905D02*
X014340Y012905D01*
X014340Y012807D02*
X016215Y012807D01*
X016215Y012708D02*
X014340Y012708D01*
X014340Y012610D02*
X016215Y012610D01*
X016264Y012511D02*
X014340Y012511D01*
X014340Y012413D02*
X016245Y012413D01*
X016245Y012314D02*
X014340Y012314D01*
X014340Y012216D02*
X016245Y012216D01*
X016245Y012117D02*
X014340Y012117D01*
X014340Y012019D02*
X016299Y012019D01*
X016245Y011920D02*
X014340Y011920D01*
X014340Y011822D02*
X016245Y011822D01*
X016830Y012019D02*
X016896Y012019D01*
X016885Y012117D02*
X017530Y012117D01*
X017530Y012216D02*
X016885Y012216D01*
X016885Y012314D02*
X017530Y012314D01*
X017530Y012413D02*
X016885Y012413D01*
X016865Y012511D02*
X017530Y012511D01*
X017530Y012610D02*
X016915Y012610D01*
X016915Y012708D02*
X017530Y012708D01*
X017516Y012807D02*
X016915Y012807D01*
X016911Y012905D02*
X017418Y012905D01*
X017319Y013004D02*
X016838Y013004D01*
X017491Y013398D02*
X017583Y013398D01*
X017589Y013299D02*
X017681Y013299D01*
X017688Y013201D02*
X017812Y013201D01*
X017786Y013102D02*
X017854Y013102D01*
X016818Y013989D02*
X019106Y013989D01*
X019106Y014087D02*
X018700Y014087D01*
X018798Y014186D02*
X019106Y014186D01*
X019106Y014284D02*
X018897Y014284D01*
X018995Y014383D02*
X019106Y014383D01*
X019106Y014481D02*
X019063Y014481D01*
X019063Y014580D02*
X019106Y014580D01*
X019106Y014678D02*
X019063Y014678D01*
X019063Y014777D02*
X019106Y014777D01*
X019106Y014875D02*
X019063Y014875D01*
X019063Y014974D02*
X019106Y014974D01*
X019106Y015072D02*
X019063Y015072D01*
X019063Y015171D02*
X019106Y015171D01*
X019106Y015269D02*
X019063Y015269D01*
X019083Y015368D02*
X019106Y015368D01*
X018771Y015565D02*
X016876Y015565D01*
X016814Y015493D02*
X016885Y015422D01*
X016885Y015073D01*
X016814Y015003D01*
X016315Y015003D01*
X016245Y015073D01*
X016245Y015422D01*
X016315Y015493D01*
X016814Y015493D01*
X016841Y015466D02*
X018703Y015466D01*
X018703Y015368D02*
X016885Y015368D01*
X016885Y015269D02*
X018703Y015269D01*
X018703Y015171D02*
X016885Y015171D01*
X016884Y015072D02*
X018703Y015072D01*
X018703Y014974D02*
X018599Y014974D01*
X018599Y014875D02*
X018703Y014875D01*
X018703Y014777D02*
X018599Y014777D01*
X018599Y014678D02*
X018703Y014678D01*
X018683Y014580D02*
X018599Y014580D01*
X017964Y014481D02*
X016826Y014481D01*
X016303Y014481D02*
X014340Y014481D01*
X014340Y014383D02*
X016245Y014383D01*
X016245Y014284D02*
X014340Y014284D01*
X014340Y014186D02*
X016245Y014186D01*
X016245Y014087D02*
X014340Y014087D01*
X014340Y013989D02*
X016311Y013989D01*
X016245Y013890D02*
X014340Y013890D01*
X014340Y013792D02*
X016245Y013792D01*
X016245Y013693D02*
X014340Y013693D01*
X014340Y013595D02*
X016245Y013595D01*
X016245Y014580D02*
X014340Y014580D01*
X014340Y014678D02*
X016245Y014678D01*
X016245Y014777D02*
X014340Y014777D01*
X014340Y014875D02*
X016245Y014875D01*
X016296Y014974D02*
X014340Y014974D01*
X014340Y015072D02*
X016245Y015072D01*
X016245Y015171D02*
X014340Y015171D01*
X014340Y015269D02*
X014467Y015269D01*
X014467Y015368D02*
X014340Y015368D01*
X014340Y015466D02*
X014467Y015466D01*
X014467Y015565D02*
X014340Y015565D01*
X014340Y015663D02*
X014467Y015663D01*
X014487Y015762D02*
X014340Y015762D01*
X015110Y015565D02*
X016253Y015565D01*
X016288Y015466D02*
X015103Y015466D01*
X015103Y015368D02*
X016245Y015368D01*
X016245Y015269D02*
X015103Y015269D01*
X016833Y014974D02*
X017963Y014974D01*
X018869Y015663D02*
X016885Y015663D01*
X016885Y015762D02*
X018968Y015762D01*
X020133Y015466D02*
X020342Y015466D01*
X020385Y015368D02*
X020133Y015368D01*
X020133Y015269D02*
X020385Y015269D01*
X020385Y015171D02*
X020133Y015171D01*
X020133Y015072D02*
X020429Y015072D01*
X020527Y014974D02*
X020133Y014974D01*
X020133Y014875D02*
X020882Y014875D01*
X020882Y014777D02*
X020133Y014777D01*
X020133Y014678D02*
X022811Y014678D01*
X022784Y014580D02*
X020133Y014580D01*
X020133Y014481D02*
X022634Y014481D01*
X022537Y014383D02*
X020133Y014383D01*
X020133Y014284D02*
X022496Y014284D01*
X022456Y014186D02*
X020133Y014186D01*
X020133Y014087D02*
X022453Y014087D01*
X022453Y013989D02*
X020133Y013989D01*
X020133Y013890D02*
X022480Y013890D01*
X022520Y013792D02*
X020133Y013792D01*
X020133Y013693D02*
X022593Y013693D01*
X022692Y013595D02*
X020133Y013595D01*
X020133Y013496D02*
X023576Y013496D01*
X023437Y013693D02*
X025353Y013693D01*
X025280Y013792D02*
X023510Y013792D01*
X023551Y013890D02*
X025240Y013890D01*
X025213Y013989D02*
X023578Y013989D01*
X023578Y014087D02*
X025213Y014087D01*
X025216Y014186D02*
X023575Y014186D01*
X023534Y014284D02*
X025256Y014284D01*
X025297Y014383D02*
X023830Y014383D01*
X023929Y014481D02*
X025394Y014481D01*
X025544Y014580D02*
X024027Y014580D01*
X024126Y014678D02*
X025060Y014678D01*
X024961Y014777D02*
X024224Y014777D01*
X023555Y015269D02*
X023455Y015269D01*
X023455Y015368D02*
X023555Y015368D01*
X023555Y015466D02*
X023455Y015466D01*
X023055Y014974D02*
X023024Y014974D01*
X022712Y014777D02*
X022551Y014777D01*
X022551Y014875D02*
X022614Y014875D01*
X021720Y014875D02*
X021712Y014875D01*
X021712Y014777D02*
X021720Y014777D01*
X022581Y015959D02*
X026271Y015959D01*
X026271Y016057D02*
X022581Y016057D01*
X022556Y016156D02*
X026293Y016156D01*
X027002Y016156D02*
X027041Y016156D01*
X025452Y013595D02*
X023339Y013595D01*
X022852Y013398D02*
X020133Y013398D01*
X020133Y013299D02*
X020758Y013299D01*
X021394Y013299D02*
X022753Y013299D01*
X022880Y012511D02*
X023382Y012511D01*
X023382Y012413D02*
X022892Y012413D01*
X022892Y012314D02*
X023386Y012314D01*
X023440Y012216D02*
X022892Y012216D01*
X022892Y012105D02*
X022536Y012105D01*
X022536Y011710D01*
X022761Y011710D01*
X022800Y011720D01*
X022834Y011740D01*
X022862Y011768D01*
X022882Y011802D01*
X022892Y011840D01*
X022892Y012105D01*
X022892Y012019D02*
X023455Y012019D01*
X023440Y012117D02*
X022536Y012117D01*
X022536Y012019D02*
X022436Y012019D01*
X022436Y011920D02*
X022536Y011920D01*
X022536Y011822D02*
X022436Y011822D01*
X022436Y011723D02*
X022536Y011723D01*
X022805Y011723D02*
X023461Y011723D01*
X023459Y011625D02*
X020133Y011625D01*
X020133Y011723D02*
X022167Y011723D01*
X022436Y012216D02*
X022536Y012216D01*
X022536Y012314D02*
X022436Y012314D01*
X022436Y012413D02*
X022536Y012413D01*
X022536Y012511D02*
X022436Y012511D01*
X021738Y012155D02*
X021069Y012155D01*
X021037Y012124D01*
X020719Y011920D02*
X018660Y011920D01*
X018660Y011822D02*
X019116Y011822D01*
X019106Y011723D02*
X018636Y011723D01*
X018623Y011625D02*
X019106Y011625D01*
X019106Y011526D02*
X018630Y011526D01*
X018630Y011428D02*
X019106Y011428D01*
X019106Y011329D02*
X018630Y011329D01*
X018630Y011231D02*
X019106Y011231D01*
X019106Y011132D02*
X018678Y011132D01*
X018776Y011034D02*
X019106Y011034D01*
X019106Y010935D02*
X018875Y010935D01*
X018604Y010640D02*
X017815Y010640D01*
X017815Y010738D02*
X018506Y010738D01*
X018407Y010837D02*
X017815Y010837D01*
X017795Y010935D02*
X018309Y010935D01*
X018703Y010541D02*
X017885Y010541D01*
X017984Y010443D02*
X019106Y010443D01*
X019106Y010344D02*
X018082Y010344D01*
X018181Y010246D02*
X019106Y010246D01*
X019106Y010147D02*
X018279Y010147D01*
X018378Y010049D02*
X019106Y010049D01*
X019106Y009950D02*
X018476Y009950D01*
X018575Y009852D02*
X019106Y009852D01*
X019106Y009753D02*
X018673Y009753D01*
X018772Y009655D02*
X019106Y009655D01*
X019106Y009556D02*
X018870Y009556D01*
X018969Y009458D02*
X020860Y009458D01*
X020860Y009556D02*
X020133Y009556D01*
X020133Y009655D02*
X020860Y009655D01*
X020860Y009753D02*
X020133Y009753D01*
X020133Y009852D02*
X020860Y009852D01*
X020860Y009950D02*
X020133Y009950D01*
X020133Y010049D02*
X020860Y010049D01*
X020860Y010147D02*
X020133Y010147D01*
X020133Y010246D02*
X020860Y010246D01*
X020860Y010344D02*
X020133Y010344D01*
X020133Y010443D02*
X020860Y010443D01*
X020860Y010541D02*
X020133Y010541D01*
X020133Y010640D02*
X020860Y010640D01*
X020860Y010738D02*
X020133Y010738D01*
X020133Y010837D02*
X020860Y010837D01*
X020860Y010935D02*
X020133Y010935D01*
X020133Y011034D02*
X020860Y011034D01*
X020860Y011053D02*
X020860Y011053D01*
X020860Y011132D02*
X020133Y011132D01*
X020133Y011231D02*
X020894Y011231D01*
X020860Y011148D02*
X020860Y011148D01*
X021026Y011329D02*
X020133Y011329D01*
X020133Y011428D02*
X023454Y011428D01*
X023456Y011526D02*
X020133Y011526D01*
X020123Y011822D02*
X020773Y011822D01*
X021301Y011822D02*
X021362Y011822D01*
X021355Y011920D02*
X021362Y011920D01*
X021362Y012413D02*
X021314Y012413D01*
X022892Y011920D02*
X023466Y011920D01*
X023464Y011822D02*
X022887Y011822D01*
X023944Y011822D02*
X027305Y011822D01*
X027463Y011723D02*
X023941Y011723D01*
X023939Y011625D02*
X027622Y011625D01*
X027753Y011526D02*
X025628Y011526D01*
X025625Y011527D02*
X025268Y011527D01*
X024937Y011390D01*
X024684Y011137D01*
X024547Y010807D01*
X024547Y010449D01*
X024684Y010118D01*
X024937Y009865D01*
X025268Y009728D01*
X025625Y009728D01*
X025956Y009865D01*
X026209Y010118D01*
X026346Y010449D01*
X026346Y010807D01*
X026209Y011137D01*
X025956Y011390D01*
X025625Y011527D01*
X025866Y011428D02*
X027753Y011428D01*
X027753Y011329D02*
X026017Y011329D01*
X026116Y011231D02*
X027753Y011231D01*
X027753Y011132D02*
X026211Y011132D01*
X026252Y011034D02*
X027753Y011034D01*
X027753Y010935D02*
X026293Y010935D01*
X026334Y010837D02*
X027753Y010837D01*
X027753Y010738D02*
X026346Y010738D01*
X026346Y010640D02*
X027753Y010640D01*
X027753Y010541D02*
X026346Y010541D01*
X026344Y010443D02*
X027753Y010443D01*
X027753Y010344D02*
X026303Y010344D01*
X026262Y010246D02*
X027753Y010246D01*
X027753Y010147D02*
X026221Y010147D01*
X026140Y010049D02*
X027753Y010049D01*
X027753Y009950D02*
X026041Y009950D01*
X025924Y009852D02*
X027753Y009852D01*
X027753Y009753D02*
X025686Y009753D01*
X025207Y009753D02*
X023374Y009753D01*
X023374Y009658D02*
X022985Y009658D01*
X022985Y009581D01*
X022985Y009193D01*
X023243Y009193D01*
X023282Y009203D01*
X023316Y009222D01*
X023344Y009250D01*
X023363Y009285D01*
X023374Y009323D01*
X023374Y009581D01*
X022985Y009581D01*
X022908Y009581D01*
X022908Y009193D01*
X022650Y009193D01*
X022611Y009203D01*
X022577Y009222D01*
X022549Y009250D01*
X022530Y009285D01*
X022519Y009323D01*
X022519Y009581D01*
X022908Y009581D01*
X022908Y009658D01*
X022519Y009658D01*
X022519Y009917D01*
X022530Y009955D01*
X022549Y009989D01*
X022577Y010017D01*
X022611Y010037D01*
X022650Y010047D01*
X022908Y010047D01*
X022908Y009658D01*
X022985Y009658D01*
X022985Y010047D01*
X023243Y010047D01*
X023282Y010037D01*
X023316Y010017D01*
X023344Y009989D01*
X023363Y009955D01*
X023374Y009917D01*
X023374Y009658D01*
X023374Y009556D02*
X027753Y009556D01*
X027753Y009458D02*
X023374Y009458D01*
X023374Y009359D02*
X027753Y009359D01*
X027753Y009261D02*
X023349Y009261D01*
X022985Y009261D02*
X022908Y009261D01*
X022908Y009359D02*
X022985Y009359D01*
X022985Y009458D02*
X022908Y009458D01*
X022908Y009556D02*
X022985Y009556D01*
X022985Y009655D02*
X027753Y009655D01*
X027753Y009162D02*
X022358Y009162D01*
X022358Y009146D02*
X022358Y009405D01*
X022348Y009443D01*
X022328Y009477D01*
X022300Y009505D01*
X022266Y009525D01*
X022228Y009535D01*
X021969Y009535D01*
X021969Y009146D01*
X022358Y009146D01*
X022358Y009069D02*
X021969Y009069D01*
X021969Y009146D01*
X021892Y009146D01*
X021892Y009069D01*
X021504Y009069D01*
X021504Y008811D01*
X021507Y008798D01*
X021372Y008798D01*
X021085Y008510D01*
X020985Y008411D01*
X020985Y006711D01*
X020940Y006666D01*
X020940Y006645D01*
X020904Y006609D01*
X017770Y006609D01*
X017616Y006455D01*
X017517Y006355D01*
X017517Y006291D01*
X017450Y006225D01*
X017450Y005670D01*
X017445Y005664D01*
X017445Y005654D01*
X017429Y005629D01*
X017445Y005560D01*
X017445Y005255D01*
X017423Y005255D01*
X017427Y005259D01*
X017427Y006225D01*
X017356Y006295D01*
X017021Y006295D01*
X016950Y006225D01*
X016950Y005259D01*
X016954Y005255D01*
X016917Y005255D01*
X016917Y005500D01*
X016847Y005570D01*
X016196Y005570D01*
X016126Y005500D01*
X016126Y005007D01*
X016196Y004937D01*
X016601Y004937D01*
X016614Y004933D01*
X016621Y004937D01*
X016847Y004937D01*
X016855Y004945D01*
X017664Y004945D01*
X017755Y005036D01*
X017755Y005189D01*
X017856Y005189D01*
X017927Y005259D01*
X017927Y006225D01*
X017897Y006255D01*
X017911Y006269D01*
X017995Y006269D01*
X017950Y006225D01*
X017950Y005259D01*
X018013Y005197D01*
X018013Y004689D01*
X017162Y004679D01*
X016917Y004678D01*
X016917Y004752D01*
X016847Y004822D01*
X016196Y004822D01*
X016126Y004752D01*
X016126Y004370D01*
X016046Y004370D01*
X015947Y004329D01*
X015871Y004253D01*
X015830Y004154D01*
X015830Y004049D01*
X015784Y004003D01*
X015432Y004003D01*
X015362Y003933D01*
X015362Y003243D01*
X015432Y003173D01*
X016043Y003173D01*
X016112Y003241D01*
X016180Y003173D01*
X016791Y003173D01*
X016862Y003243D01*
X016862Y003933D01*
X016791Y004003D01*
X016691Y004003D01*
X016691Y004189D01*
X016847Y004189D01*
X016917Y004259D01*
X016917Y004338D01*
X017094Y004339D01*
X017095Y004339D01*
X017165Y004339D01*
X017234Y004340D01*
X017235Y004340D01*
X018184Y004351D01*
X018253Y004351D01*
X018254Y004352D01*
X018255Y004352D01*
X018304Y004402D01*
X018353Y004451D01*
X018353Y004452D01*
X018353Y004453D01*
X018353Y004522D01*
X018353Y004790D01*
X018997Y004089D01*
X018997Y004085D01*
X019044Y004037D01*
X019089Y003988D01*
X019094Y003988D01*
X019097Y003985D01*
X019163Y003985D01*
X019230Y003982D01*
X019233Y003985D01*
X023044Y003985D01*
X023974Y004914D01*
X024216Y004914D01*
X024090Y004862D01*
X023972Y004744D01*
X023908Y004590D01*
X023908Y003823D01*
X023972Y003668D01*
X024090Y003550D01*
X024245Y003486D01*
X024412Y003486D01*
X024566Y003550D01*
X024684Y003668D01*
X024748Y003823D01*
X024748Y004590D01*
X024684Y004744D01*
X024598Y004830D01*
X024917Y004611D01*
X024908Y004590D01*
X024908Y003823D01*
X024972Y003668D01*
X025090Y003550D01*
X025245Y003486D01*
X025412Y003486D01*
X025566Y003550D01*
X025684Y003668D01*
X025748Y003823D01*
X025748Y004590D01*
X025684Y004744D01*
X025566Y004862D01*
X025412Y004926D01*
X025245Y004926D01*
X025129Y004878D01*
X024979Y004981D01*
X025394Y004981D01*
X025839Y004893D01*
X025839Y004365D01*
X025825Y004329D01*
X025839Y004297D01*
X025839Y004262D01*
X025866Y004235D01*
X025881Y004200D01*
X025908Y004189D01*
X025908Y003823D01*
X025972Y003668D01*
X026090Y003550D01*
X026245Y003486D01*
X026412Y003486D01*
X026566Y003550D01*
X026684Y003668D01*
X026748Y003823D01*
X026748Y004590D01*
X026684Y004744D01*
X026566Y004862D01*
X026412Y004926D01*
X026245Y004926D01*
X026179Y004899D01*
X026179Y005016D01*
X026190Y005069D01*
X026179Y005085D01*
X026179Y005103D01*
X026141Y005142D01*
X026111Y005186D01*
X026093Y005190D01*
X026080Y005203D01*
X026026Y005203D01*
X025695Y005268D01*
X025956Y005377D01*
X026209Y005630D01*
X026346Y005960D01*
X026346Y006318D01*
X026209Y006649D01*
X025956Y006902D01*
X025625Y007039D01*
X025268Y007039D01*
X024937Y006902D01*
X024684Y006649D01*
X024547Y006318D01*
X024547Y006205D01*
X024254Y006497D01*
X024254Y008474D01*
X024155Y008573D01*
X023930Y008798D01*
X023344Y008798D01*
X023344Y008954D01*
X023273Y009025D01*
X022620Y009025D01*
X022549Y008954D01*
X022549Y008798D01*
X022354Y008798D01*
X022358Y008811D01*
X022358Y009069D01*
X022358Y009064D02*
X027753Y009064D01*
X027753Y008965D02*
X023333Y008965D01*
X023344Y008867D02*
X027753Y008867D01*
X027753Y008768D02*
X023960Y008768D01*
X024058Y008670D02*
X027753Y008670D01*
X027753Y008571D02*
X024157Y008571D01*
X024254Y008473D02*
X027753Y008473D01*
X027753Y008374D02*
X024254Y008374D01*
X024254Y008276D02*
X027753Y008276D01*
X027753Y008177D02*
X024254Y008177D01*
X024254Y008079D02*
X027753Y008079D01*
X027753Y007980D02*
X024254Y007980D01*
X024254Y007882D02*
X027753Y007882D01*
X027753Y007783D02*
X024254Y007783D01*
X024254Y007685D02*
X027753Y007685D01*
X027753Y007586D02*
X024254Y007586D01*
X024254Y007488D02*
X027753Y007488D01*
X027753Y007389D02*
X024254Y007389D01*
X024254Y007291D02*
X027753Y007291D01*
X027753Y007192D02*
X024254Y007192D01*
X024254Y007094D02*
X027753Y007094D01*
X027753Y006995D02*
X025732Y006995D01*
X025962Y006897D02*
X027753Y006897D01*
X027753Y006798D02*
X026060Y006798D01*
X026159Y006700D02*
X027753Y006700D01*
X027753Y006601D02*
X026229Y006601D01*
X026270Y006503D02*
X027753Y006503D01*
X027753Y006404D02*
X026311Y006404D01*
X026346Y006306D02*
X027753Y006306D01*
X027753Y006207D02*
X026346Y006207D01*
X026346Y006109D02*
X027753Y006109D01*
X027753Y006010D02*
X026346Y006010D01*
X026326Y005912D02*
X027753Y005912D01*
X027753Y005813D02*
X026285Y005813D01*
X026244Y005715D02*
X027753Y005715D01*
X027753Y005616D02*
X026195Y005616D01*
X026097Y005518D02*
X027753Y005518D01*
X027753Y005419D02*
X025998Y005419D01*
X025820Y005321D02*
X027753Y005321D01*
X027753Y005222D02*
X025930Y005222D01*
X026009Y005033D02*
X026009Y004332D01*
X026328Y004206D01*
X026748Y004237D02*
X027278Y004237D01*
X027278Y004256D02*
X026878Y004256D01*
X026878Y004542D01*
X026889Y004612D01*
X026911Y004679D01*
X026943Y004742D01*
X026985Y004799D01*
X027035Y004850D01*
X027092Y004891D01*
X027156Y004923D01*
X027223Y004945D01*
X027278Y004954D01*
X027278Y004256D01*
X027278Y004336D02*
X027378Y004336D01*
X027378Y004434D02*
X027278Y004434D01*
X027278Y004533D02*
X027378Y004533D01*
X027378Y004631D02*
X027278Y004631D01*
X027278Y004730D02*
X027378Y004730D01*
X027378Y004828D02*
X027278Y004828D01*
X027278Y004927D02*
X027378Y004927D01*
X027491Y004927D02*
X027753Y004927D01*
X027753Y004899D02*
X027753Y004899D01*
X027753Y004828D02*
X027643Y004828D01*
X027753Y004788D02*
X027753Y004788D01*
X027753Y004730D02*
X027720Y004730D01*
X027753Y005025D02*
X026181Y005025D01*
X026179Y004927D02*
X027165Y004927D01*
X027014Y004828D02*
X026601Y004828D01*
X026690Y004730D02*
X026937Y004730D01*
X026896Y004631D02*
X026731Y004631D01*
X026748Y004533D02*
X026878Y004533D01*
X026878Y004434D02*
X026748Y004434D01*
X026748Y004336D02*
X026878Y004336D01*
X026878Y004139D02*
X026748Y004139D01*
X026748Y004040D02*
X026878Y004040D01*
X026878Y003942D02*
X026748Y003942D01*
X026748Y003843D02*
X026883Y003843D01*
X026908Y003745D02*
X026716Y003745D01*
X026662Y003646D02*
X026961Y003646D01*
X027057Y003548D02*
X026560Y003548D01*
X026097Y003548D02*
X025560Y003548D01*
X025662Y003646D02*
X025995Y003646D01*
X025941Y003745D02*
X025716Y003745D01*
X025748Y003843D02*
X025908Y003843D01*
X025908Y003942D02*
X025748Y003942D01*
X025748Y004040D02*
X025908Y004040D01*
X025908Y004139D02*
X025748Y004139D01*
X025748Y004237D02*
X025864Y004237D01*
X025828Y004336D02*
X025748Y004336D01*
X025748Y004434D02*
X025839Y004434D01*
X025839Y004533D02*
X025748Y004533D01*
X025731Y004631D02*
X025839Y004631D01*
X025839Y004730D02*
X025690Y004730D01*
X025601Y004828D02*
X025839Y004828D01*
X025671Y004927D02*
X025058Y004927D01*
X024864Y005151D02*
X025411Y005151D01*
X026009Y005033D01*
X026159Y005124D02*
X027753Y005124D01*
X027378Y004139D02*
X027278Y004139D01*
X027278Y004040D02*
X027378Y004040D01*
X027378Y003942D02*
X027278Y003942D01*
X027278Y003843D02*
X027378Y003843D01*
X027378Y003745D02*
X027278Y003745D01*
X027278Y003646D02*
X027378Y003646D01*
X027378Y003548D02*
X027278Y003548D01*
X027600Y003548D02*
X027757Y003548D01*
X027756Y003646D02*
X027695Y003646D01*
X027749Y003745D02*
X027756Y003745D01*
X027757Y003449D02*
X023735Y003449D01*
X023735Y003351D02*
X027757Y003351D01*
X027757Y003252D02*
X023735Y003252D01*
X023735Y003154D02*
X027758Y003154D01*
X027758Y003055D02*
X023735Y003055D01*
X023735Y003000D02*
X023735Y003653D01*
X023665Y003723D01*
X022415Y003723D01*
X022345Y003653D01*
X022345Y002720D01*
X022336Y002729D01*
X021840Y002729D01*
X021770Y002659D01*
X021770Y002163D01*
X021840Y002093D01*
X022336Y002093D01*
X022406Y002163D01*
X022406Y002171D01*
X023071Y002171D01*
X023159Y002208D01*
X023227Y002275D01*
X023263Y002363D01*
X023263Y002384D01*
X023665Y002384D01*
X023677Y002397D01*
X024176Y002130D01*
X024176Y001679D01*
X024246Y001608D01*
X025527Y001608D01*
X025597Y001679D01*
X025597Y002329D01*
X025527Y002399D01*
X024861Y002399D01*
X023735Y003000D01*
X023817Y002957D02*
X027758Y002957D01*
X027759Y002858D02*
X024002Y002858D01*
X024186Y002760D02*
X027759Y002760D01*
X027759Y002661D02*
X024371Y002661D01*
X024555Y002563D02*
X027759Y002563D01*
X027760Y002464D02*
X024740Y002464D01*
X024176Y002070D02*
X018960Y002070D01*
X019058Y002169D02*
X021770Y002169D01*
X021770Y002267D02*
X019135Y002267D01*
X019171Y002366D02*
X021770Y002366D01*
X021770Y002464D02*
X019577Y002464D01*
X019577Y002563D02*
X021770Y002563D01*
X021772Y002661D02*
X019577Y002661D01*
X019577Y002760D02*
X022345Y002760D01*
X022345Y002858D02*
X019577Y002858D01*
X019577Y002957D02*
X022345Y002957D01*
X022345Y003055D02*
X019577Y003055D01*
X019577Y003154D02*
X022345Y003154D01*
X022345Y003252D02*
X019577Y003252D01*
X019577Y003351D02*
X022345Y003351D01*
X022345Y003449D02*
X019577Y003449D01*
X019577Y003548D02*
X022345Y003548D01*
X022345Y003646D02*
X019577Y003646D01*
X019167Y004155D02*
X022974Y004155D01*
X023903Y005084D01*
X024261Y005084D01*
X024277Y005100D01*
X024529Y005084D01*
X025210Y004616D01*
X025328Y004206D01*
X024908Y004237D02*
X024748Y004237D01*
X024748Y004139D02*
X024908Y004139D01*
X024908Y004040D02*
X024748Y004040D01*
X024748Y003942D02*
X024908Y003942D01*
X024908Y003843D02*
X024748Y003843D01*
X024716Y003745D02*
X024941Y003745D01*
X024995Y003646D02*
X024662Y003646D01*
X024560Y003548D02*
X025097Y003548D01*
X024097Y003548D02*
X023735Y003548D01*
X023735Y003646D02*
X023995Y003646D01*
X023941Y003745D02*
X016862Y003745D01*
X016862Y003843D02*
X023908Y003843D01*
X023908Y003942D02*
X016853Y003942D01*
X016691Y004040D02*
X019042Y004040D01*
X018951Y004139D02*
X016691Y004139D01*
X016895Y004237D02*
X018861Y004237D01*
X018770Y004336D02*
X016917Y004336D01*
X017163Y004509D02*
X018183Y004521D01*
X018183Y005191D01*
X018189Y005196D01*
X018450Y004935D01*
X019167Y004155D01*
X019242Y004325D02*
X018620Y005001D01*
X018620Y005005D01*
X018573Y005052D01*
X018528Y005102D01*
X018524Y005102D01*
X018397Y005229D01*
X018427Y005259D01*
X018427Y005266D01*
X018431Y005251D01*
X018450Y005217D01*
X018478Y005189D01*
X018513Y005169D01*
X018551Y005159D01*
X018680Y005159D01*
X018680Y005733D01*
X018698Y005733D01*
X018698Y005751D01*
X018957Y005751D01*
X018957Y006195D01*
X018946Y006233D01*
X018927Y006267D01*
X018925Y006269D01*
X021044Y006269D01*
X021125Y006349D01*
X021418Y006055D01*
X021325Y005760D01*
X021137Y005760D01*
X021137Y005835D01*
X020883Y006090D01*
X020522Y006090D01*
X020267Y005835D01*
X020267Y005475D01*
X020522Y005220D01*
X020883Y005220D01*
X021102Y005440D01*
X021418Y005440D01*
X021458Y005427D01*
X021482Y005440D01*
X021509Y005440D01*
X021538Y005469D01*
X021575Y005489D01*
X021583Y005515D01*
X021603Y005534D01*
X021603Y005575D01*
X021741Y006015D01*
X021760Y006034D01*
X021760Y006075D01*
X021773Y006115D01*
X021760Y006139D01*
X021760Y006166D01*
X021731Y006196D01*
X021711Y006233D01*
X021685Y006241D01*
X021325Y006601D01*
X021325Y008270D01*
X021513Y008458D01*
X021545Y008458D01*
X021541Y008454D01*
X021541Y007801D01*
X021612Y007730D01*
X022265Y007730D01*
X022336Y007801D01*
X022336Y007958D01*
X022548Y007958D01*
X022545Y007954D01*
X022545Y007340D01*
X022344Y007340D01*
X022344Y007462D01*
X022273Y007533D01*
X021620Y007533D01*
X021549Y007462D01*
X021549Y006809D01*
X021620Y006738D01*
X022273Y006738D01*
X022344Y006809D01*
X022344Y006860D01*
X022549Y006860D01*
X022549Y006305D01*
X022620Y006234D01*
X023273Y006234D01*
X023344Y006305D01*
X023344Y006593D01*
X023345Y006599D01*
X023344Y006604D01*
X023344Y006958D01*
X023340Y006962D01*
X023340Y007579D01*
X023345Y007606D01*
X023340Y007626D01*
X023340Y007648D01*
X023340Y007648D01*
X023340Y007797D01*
X023367Y007770D01*
X023367Y006219D01*
X023699Y005887D01*
X023911Y005887D01*
X024107Y005691D01*
X024107Y005254D01*
X023833Y005254D01*
X023733Y005155D01*
X022904Y004325D01*
X019242Y004325D01*
X019232Y004336D02*
X022914Y004336D01*
X023012Y004434D02*
X019141Y004434D01*
X019051Y004533D02*
X023111Y004533D01*
X023209Y004631D02*
X018960Y004631D01*
X018870Y004730D02*
X023308Y004730D01*
X023406Y004828D02*
X018779Y004828D01*
X018689Y004927D02*
X023505Y004927D01*
X023603Y005025D02*
X018600Y005025D01*
X018502Y005124D02*
X023702Y005124D01*
X023800Y005222D02*
X020884Y005222D01*
X020983Y005321D02*
X024107Y005321D01*
X024107Y005419D02*
X021081Y005419D01*
X021137Y005813D02*
X021342Y005813D01*
X021373Y005912D02*
X021061Y005912D01*
X020963Y006010D02*
X021404Y006010D01*
X021365Y006109D02*
X018957Y006109D01*
X018953Y006207D02*
X021267Y006207D01*
X021168Y006306D02*
X021081Y006306D01*
X020974Y006439D02*
X017840Y006439D01*
X017687Y006285D01*
X017687Y005744D01*
X017689Y005742D01*
X017927Y005715D02*
X017950Y005715D01*
X017950Y005813D02*
X017927Y005813D01*
X017927Y005912D02*
X017950Y005912D01*
X017950Y006010D02*
X017927Y006010D01*
X017927Y006109D02*
X017950Y006109D01*
X017950Y006207D02*
X017927Y006207D01*
X017664Y006503D02*
X016997Y006503D01*
X017096Y006601D02*
X017762Y006601D01*
X017565Y006404D02*
X016899Y006404D01*
X016800Y006306D02*
X017517Y006306D01*
X017450Y006207D02*
X017427Y006207D01*
X017427Y006109D02*
X017450Y006109D01*
X017450Y006010D02*
X017427Y006010D01*
X017427Y005912D02*
X017450Y005912D01*
X017450Y005813D02*
X017427Y005813D01*
X017427Y005715D02*
X017450Y005715D01*
X017432Y005616D02*
X017427Y005616D01*
X017427Y005518D02*
X017445Y005518D01*
X017445Y005419D02*
X017427Y005419D01*
X017427Y005321D02*
X017445Y005321D01*
X017755Y005124D02*
X018013Y005124D01*
X018013Y005025D02*
X017744Y005025D01*
X018013Y004927D02*
X015704Y004927D01*
X015704Y004831D02*
X016081Y004831D01*
X016081Y004663D01*
X016070Y004625D01*
X016051Y004591D01*
X016023Y004563D01*
X015989Y004543D01*
X015950Y004533D01*
X015704Y004533D01*
X015704Y004831D01*
X015704Y004828D02*
X015607Y004828D01*
X015607Y004730D02*
X015704Y004730D01*
X015704Y004631D02*
X015607Y004631D01*
X015408Y004533D02*
X016126Y004533D01*
X016126Y004631D02*
X016072Y004631D01*
X016081Y004730D02*
X016126Y004730D01*
X016081Y004828D02*
X018013Y004828D01*
X018013Y004730D02*
X016917Y004730D01*
X017163Y004509D02*
X016521Y004506D01*
X016521Y003624D01*
X016486Y003588D01*
X016862Y003548D02*
X018188Y003548D01*
X018188Y003646D02*
X016862Y003646D01*
X016862Y003449D02*
X018188Y003449D01*
X018188Y003351D02*
X016862Y003351D01*
X016862Y003252D02*
X018188Y003252D01*
X018188Y003154D02*
X013669Y003154D01*
X013669Y003199D02*
X013669Y003099D01*
X014044Y003099D01*
X014044Y002539D01*
X014034Y002500D01*
X014014Y002466D01*
X013987Y002438D01*
X013952Y002419D01*
X013914Y002408D01*
X013669Y002408D01*
X013669Y003099D01*
X013569Y003099D01*
X013569Y002408D01*
X013323Y002408D01*
X013285Y002419D01*
X013251Y002438D01*
X013223Y002466D01*
X013203Y002500D01*
X013193Y002539D01*
X013193Y003099D01*
X013569Y003099D01*
X013569Y003199D01*
X013569Y003889D01*
X013323Y003889D01*
X013285Y003879D01*
X013251Y003859D01*
X013223Y003832D01*
X013203Y003797D01*
X013193Y003759D01*
X013193Y003199D01*
X013569Y003199D01*
X013669Y003199D01*
X014044Y003199D01*
X014044Y003759D01*
X014034Y003797D01*
X014014Y003832D01*
X013987Y003859D01*
X013952Y003879D01*
X013914Y003889D01*
X013669Y003889D01*
X013669Y003199D01*
X013669Y003252D02*
X013569Y003252D01*
X013569Y003154D02*
X012597Y003154D01*
X012607Y003252D02*
X013193Y003252D01*
X013193Y003351D02*
X012607Y003351D01*
X012607Y003449D02*
X013193Y003449D01*
X013193Y003548D02*
X012607Y003548D01*
X012607Y003646D02*
X013193Y003646D01*
X013193Y003745D02*
X011849Y003745D01*
X011891Y003646D02*
X011971Y003646D01*
X011918Y003843D02*
X013235Y003843D01*
X013569Y003843D02*
X013669Y003843D01*
X013669Y003745D02*
X013569Y003745D01*
X013569Y003646D02*
X013669Y003646D01*
X013669Y003548D02*
X013569Y003548D01*
X013569Y003449D02*
X013669Y003449D01*
X013669Y003351D02*
X013569Y003351D01*
X013569Y003055D02*
X013669Y003055D01*
X013669Y002957D02*
X013569Y002957D01*
X013569Y002858D02*
X013669Y002858D01*
X013669Y002760D02*
X013569Y002760D01*
X013569Y002661D02*
X013669Y002661D01*
X013669Y002563D02*
X013569Y002563D01*
X013569Y002464D02*
X013669Y002464D01*
X013225Y002464D02*
X011905Y002464D01*
X011921Y002563D02*
X013193Y002563D01*
X013193Y002661D02*
X011921Y002661D01*
X011921Y002858D02*
X013193Y002858D01*
X013193Y002760D02*
X011396Y002760D01*
X011296Y002760D02*
X010235Y002760D01*
X010235Y002858D02*
X010771Y002858D01*
X010771Y002957D02*
X010235Y002957D01*
X010235Y003055D02*
X010811Y003055D01*
X010801Y003154D02*
X010235Y003154D01*
X010235Y003252D02*
X010801Y003252D01*
X010801Y003351D02*
X010235Y003351D01*
X010235Y003449D02*
X010801Y003449D01*
X010801Y003548D02*
X010235Y003548D01*
X010235Y003646D02*
X010801Y003646D01*
X010843Y003745D02*
X010235Y003745D01*
X010235Y003843D02*
X010774Y003843D01*
X010771Y003942D02*
X010235Y003942D01*
X010235Y004040D02*
X011296Y004040D01*
X011296Y004139D02*
X011396Y004139D01*
X011396Y004133D02*
X011396Y004443D01*
X011791Y004443D01*
X011829Y004432D01*
X011863Y004413D01*
X011891Y004385D01*
X011911Y004351D01*
X011921Y004312D01*
X011921Y004133D01*
X011396Y004133D01*
X011396Y004040D02*
X014550Y004040D01*
X014538Y004052D02*
X014566Y004024D01*
X014600Y004005D01*
X014639Y003994D01*
X014908Y003994D01*
X014908Y004344D01*
X014508Y004344D01*
X014508Y004125D01*
X014518Y004086D01*
X014538Y004052D01*
X014508Y004139D02*
X011921Y004139D01*
X011921Y004237D02*
X014508Y004237D01*
X014508Y004336D02*
X011915Y004336D01*
X011823Y004434D02*
X014908Y004434D01*
X014908Y004336D02*
X015008Y004336D01*
X015008Y004434D02*
X016126Y004434D01*
X015963Y004336D02*
X015408Y004336D01*
X015408Y004237D02*
X015865Y004237D01*
X015830Y004139D02*
X015408Y004139D01*
X015366Y004040D02*
X015821Y004040D01*
X015370Y003942D02*
X011921Y003942D01*
X011396Y004237D02*
X011296Y004237D01*
X011296Y004336D02*
X011396Y004336D01*
X011396Y004434D02*
X011296Y004434D01*
X010869Y004434D02*
X010235Y004434D01*
X010235Y004336D02*
X010777Y004336D01*
X010771Y004237D02*
X010235Y004237D01*
X010235Y004139D02*
X010771Y004139D01*
X010235Y004533D02*
X014508Y004533D01*
X014508Y004631D02*
X010235Y004631D01*
X010235Y004730D02*
X014534Y004730D01*
X014555Y004828D02*
X010235Y004828D01*
X010235Y004918D02*
X010165Y004989D01*
X005967Y004989D01*
X005897Y004918D01*
X005897Y000567D01*
X005967Y000497D01*
X010165Y000497D01*
X010235Y000567D01*
X010235Y004918D01*
X010227Y004927D02*
X014538Y004927D01*
X014538Y005025D02*
X005387Y005025D01*
X005387Y004927D02*
X005905Y004927D01*
X005897Y004828D02*
X005372Y004828D01*
X005332Y004730D02*
X005897Y004730D01*
X005897Y004631D02*
X005245Y004631D01*
X005065Y004533D02*
X005897Y004533D01*
X005897Y004434D02*
X003193Y004434D01*
X003193Y004336D02*
X004209Y004336D01*
X004064Y004237D02*
X003193Y004237D01*
X003193Y004139D02*
X003992Y004139D01*
X003470Y004040D02*
X003193Y004040D01*
X003193Y003942D02*
X003372Y003942D01*
X003273Y003843D02*
X003193Y003843D01*
X003109Y003548D02*
X003093Y003548D01*
X003109Y003449D02*
X002995Y003449D01*
X003109Y003351D02*
X002443Y003351D01*
X002372Y003252D02*
X003109Y003252D01*
X003109Y003154D02*
X002249Y003154D01*
X002134Y002661D02*
X003109Y002661D01*
X003109Y002563D02*
X002324Y002563D01*
X002423Y002464D02*
X003109Y002464D01*
X003427Y002267D02*
X005897Y002267D01*
X005897Y002169D02*
X003329Y002169D01*
X003230Y002070D02*
X005897Y002070D01*
X005897Y001972D02*
X002442Y001972D01*
X002371Y001873D02*
X005897Y001873D01*
X005897Y001775D02*
X002247Y001775D01*
X003469Y002366D02*
X005897Y002366D01*
X005897Y002464D02*
X003469Y002464D01*
X003469Y002563D02*
X004130Y002563D01*
X004131Y002562D02*
X004194Y002529D01*
X004262Y002508D01*
X004332Y002496D01*
X004617Y002496D01*
X004617Y002896D01*
X004717Y002896D01*
X004717Y002496D01*
X005002Y002496D01*
X005072Y002508D01*
X005140Y002529D01*
X005203Y002562D01*
X005260Y002603D01*
X005310Y002653D01*
X005352Y002711D01*
X005384Y002774D01*
X005406Y002841D01*
X005415Y002896D01*
X004717Y002896D01*
X004717Y002996D01*
X005415Y002996D01*
X005406Y003052D01*
X005384Y003119D01*
X005352Y003182D01*
X005310Y003240D01*
X005260Y003290D01*
X005203Y003331D01*
X005140Y003363D01*
X005072Y003385D01*
X005002Y003396D01*
X004717Y003396D01*
X004717Y002996D01*
X004617Y002996D01*
X004617Y002896D01*
X003919Y002896D01*
X003928Y002841D01*
X003950Y002774D01*
X003982Y002711D01*
X004024Y002653D01*
X004074Y002603D01*
X004131Y002562D01*
X004018Y002661D02*
X003469Y002661D01*
X003469Y002760D02*
X003957Y002760D01*
X003925Y002858D02*
X003469Y002858D01*
X003469Y002957D02*
X004617Y002957D01*
X004617Y002996D02*
X003919Y002996D01*
X003928Y003052D01*
X003950Y003119D01*
X003982Y003182D01*
X004024Y003240D01*
X004074Y003290D01*
X004131Y003331D01*
X004194Y003363D01*
X004262Y003385D01*
X004332Y003396D01*
X004617Y003396D01*
X004617Y002996D01*
X004617Y003055D02*
X004717Y003055D01*
X004717Y002957D02*
X005897Y002957D01*
X005897Y003055D02*
X005405Y003055D01*
X005366Y003154D02*
X005897Y003154D01*
X005897Y003252D02*
X005298Y003252D01*
X005165Y003351D02*
X005897Y003351D01*
X005897Y003449D02*
X003469Y003449D01*
X003469Y003351D02*
X004169Y003351D01*
X004036Y003252D02*
X003469Y003252D01*
X003469Y003154D02*
X003967Y003154D01*
X003929Y003055D02*
X003469Y003055D01*
X003487Y003548D02*
X004233Y003548D01*
X004073Y003646D02*
X003586Y003646D01*
X003684Y003745D02*
X003996Y003745D01*
X004617Y003351D02*
X004717Y003351D01*
X004717Y003252D02*
X004617Y003252D01*
X004617Y003154D02*
X004717Y003154D01*
X004717Y002858D02*
X004617Y002858D01*
X004617Y002760D02*
X004717Y002760D01*
X004717Y002661D02*
X004617Y002661D01*
X004617Y002563D02*
X004717Y002563D01*
X005204Y002563D02*
X005897Y002563D01*
X005897Y002661D02*
X005316Y002661D01*
X005377Y002760D02*
X005897Y002760D01*
X005897Y002858D02*
X005409Y002858D01*
X005101Y003548D02*
X005897Y003548D01*
X005897Y003646D02*
X005260Y003646D01*
X005338Y003745D02*
X005897Y003745D01*
X005897Y003843D02*
X005379Y003843D01*
X005387Y003942D02*
X005897Y003942D01*
X005897Y004040D02*
X005383Y004040D01*
X005342Y004139D02*
X005897Y004139D01*
X005897Y004237D02*
X005270Y004237D01*
X005125Y004336D02*
X005897Y004336D01*
X005348Y005124D02*
X014538Y005124D01*
X014538Y005222D02*
X005285Y005222D01*
X005161Y005321D02*
X014538Y005321D01*
X014538Y005419D02*
X003154Y005419D01*
X003154Y005321D02*
X004172Y005321D01*
X004049Y005222D02*
X003154Y005222D01*
X003154Y005124D02*
X003986Y005124D01*
X004002Y004730D02*
X003409Y004730D01*
X003311Y004631D02*
X004088Y004631D01*
X004269Y004533D02*
X003212Y004533D01*
X002999Y004828D02*
X002957Y004828D01*
X002900Y004730D02*
X002443Y004730D01*
X002373Y004631D02*
X002833Y004631D01*
X002833Y004533D02*
X002252Y004533D01*
X002132Y004040D02*
X002833Y004040D01*
X002833Y003942D02*
X002323Y003942D01*
X002421Y003843D02*
X002833Y003843D01*
X003055Y004927D02*
X003097Y004927D01*
X002794Y005222D02*
X002420Y005222D01*
X002322Y005321D02*
X002794Y005321D01*
X002794Y005419D02*
X002129Y005419D01*
X002254Y005912D02*
X003098Y005912D01*
X003196Y006010D02*
X002374Y006010D01*
X002444Y006109D02*
X003979Y006109D01*
X004034Y006207D02*
X002721Y006207D01*
X002820Y006306D02*
X004136Y006306D01*
X004118Y006601D02*
X003115Y006601D01*
X003017Y006503D02*
X010523Y006503D01*
X010482Y006601D02*
X005215Y006601D01*
X005314Y006700D02*
X010475Y006700D01*
X010475Y006798D02*
X005360Y006798D01*
X005387Y006897D02*
X010475Y006897D01*
X010475Y006995D02*
X005387Y006995D01*
X005361Y007094D02*
X010475Y007094D01*
X010475Y007192D02*
X005315Y007192D01*
X005217Y007291D02*
X010475Y007291D01*
X010477Y007389D02*
X002375Y007389D01*
X002257Y007291D02*
X004117Y007291D01*
X004020Y006700D02*
X003214Y006700D01*
X002918Y006404D02*
X010599Y006404D01*
X010754Y006306D02*
X005198Y006306D01*
X005300Y006207D02*
X014659Y006207D01*
X014662Y006109D02*
X005354Y006109D01*
X005387Y006010D02*
X014665Y006010D01*
X014668Y005912D02*
X005387Y005912D01*
X005366Y005813D02*
X014670Y005813D01*
X014673Y005715D02*
X005325Y005715D01*
X005230Y005616D02*
X014660Y005616D01*
X014638Y005518D02*
X003213Y005518D01*
X003312Y005616D02*
X004103Y005616D01*
X004008Y005715D02*
X003410Y005715D01*
X002606Y006601D02*
X002419Y006601D01*
X002321Y006700D02*
X002705Y006700D01*
X002803Y006798D02*
X002127Y006798D01*
X000350Y008571D02*
X004176Y008571D01*
X005387Y010935D02*
X011656Y010935D01*
X011597Y011034D02*
X005385Y011034D01*
X005345Y011132D02*
X011597Y011132D01*
X011597Y011231D02*
X005277Y011231D01*
X005141Y011329D02*
X011597Y011329D01*
X011597Y011428D02*
X002878Y011428D01*
X002878Y011329D02*
X004193Y011329D01*
X004057Y011231D02*
X002878Y011231D01*
X002826Y011526D02*
X011633Y011526D01*
X011899Y011920D02*
X012245Y011920D01*
X012299Y012019D02*
X011997Y012019D01*
X012096Y012511D02*
X012306Y012511D01*
X012823Y012511D02*
X013818Y012511D01*
X013818Y012413D02*
X012885Y012413D01*
X012885Y012314D02*
X013818Y012314D01*
X013818Y012216D02*
X012885Y012216D01*
X012885Y012117D02*
X013818Y012117D01*
X013818Y012019D02*
X012830Y012019D01*
X012932Y011920D02*
X013818Y011920D01*
X013818Y011822D02*
X013031Y011822D01*
X012885Y012610D02*
X013818Y012610D01*
X013818Y012708D02*
X012885Y012708D01*
X012885Y012807D02*
X013692Y012807D01*
X013419Y012905D02*
X012885Y012905D01*
X012815Y013004D02*
X013146Y013004D01*
X013387Y013299D02*
X013860Y013299D01*
X013860Y013201D02*
X013660Y013201D01*
X013860Y013398D02*
X013114Y013398D01*
X012845Y013496D02*
X013860Y013496D01*
X013860Y013595D02*
X012912Y013595D01*
X012915Y013693D02*
X013860Y013693D01*
X013860Y013792D02*
X012915Y013792D01*
X012915Y013890D02*
X013860Y013890D01*
X012303Y014481D02*
X011560Y014481D01*
X010924Y014481D02*
X010834Y014481D01*
X010924Y014383D02*
X010340Y014383D01*
X010340Y014284D02*
X010924Y014284D01*
X010924Y014186D02*
X010340Y014186D01*
X010340Y014087D02*
X010941Y014087D01*
X010926Y013989D02*
X010340Y013989D01*
X010340Y013890D02*
X010895Y013890D01*
X010895Y013792D02*
X010340Y013792D01*
X009860Y013792D02*
X005357Y013792D01*
X005387Y013890D02*
X009860Y013890D01*
X009860Y013989D02*
X005387Y013989D01*
X005363Y014087D02*
X009860Y014087D01*
X009860Y014186D02*
X005322Y014186D01*
X005223Y014284D02*
X009860Y014284D01*
X009860Y014383D02*
X004907Y014383D01*
X004907Y014481D02*
X009860Y014481D01*
X009860Y014580D02*
X004907Y014580D01*
X004907Y014678D02*
X009860Y014678D01*
X009860Y014777D02*
X004907Y014777D01*
X004907Y014875D02*
X009860Y014875D01*
X009860Y014974D02*
X004907Y014974D01*
X004907Y015072D02*
X009860Y015072D01*
X009860Y015171D02*
X004907Y015171D01*
X004907Y015269D02*
X009860Y015269D01*
X009860Y015368D02*
X004907Y015368D01*
X004907Y015466D02*
X009860Y015466D01*
X009860Y015565D02*
X004907Y015565D01*
X004939Y015663D02*
X009788Y015663D01*
X009690Y015762D02*
X005038Y015762D01*
X004427Y015762D02*
X002447Y015762D01*
X002381Y015663D02*
X004427Y015663D01*
X004427Y015565D02*
X002272Y015565D01*
X001770Y015565D02*
X000350Y015565D01*
X000350Y015663D02*
X001661Y015663D01*
X001596Y015762D02*
X000350Y015762D01*
X000350Y015860D02*
X001555Y015860D01*
X001547Y015959D02*
X000350Y015959D01*
X000350Y016057D02*
X001547Y016057D01*
X001583Y016156D02*
X000350Y016156D01*
X000350Y016254D02*
X001630Y016254D01*
X001729Y016353D02*
X000350Y016353D01*
X000350Y015466D02*
X004427Y015466D01*
X004427Y015368D02*
X000350Y015368D01*
X000350Y015269D02*
X004427Y015269D01*
X004427Y015171D02*
X000350Y015171D01*
X000350Y015072D02*
X004427Y015072D01*
X004427Y014974D02*
X002315Y014974D01*
X002413Y014875D02*
X004427Y014875D01*
X004427Y014777D02*
X002460Y014777D01*
X002496Y014678D02*
X004427Y014678D01*
X004427Y014580D02*
X002529Y014580D01*
X002627Y014481D02*
X004427Y014481D01*
X004427Y014383D02*
X002726Y014383D01*
X002824Y014284D02*
X004111Y014284D01*
X004012Y014186D02*
X002878Y014186D01*
X002878Y014087D02*
X003971Y014087D01*
X003947Y013989D02*
X002878Y013989D01*
X002878Y013890D02*
X003947Y013890D01*
X003976Y013792D02*
X002878Y013792D01*
X002878Y013693D02*
X004026Y013693D01*
X004125Y013595D02*
X002878Y013595D01*
X002943Y013496D02*
X009860Y013496D01*
X009860Y013398D02*
X003120Y013398D01*
X003219Y013299D02*
X004126Y013299D01*
X004027Y013201D02*
X003317Y013201D01*
X003103Y012905D02*
X002825Y012905D01*
X002727Y013004D02*
X003005Y013004D01*
X002906Y013102D02*
X002628Y013102D01*
X002530Y013201D02*
X002729Y013201D01*
X002715Y013214D02*
X002715Y013214D01*
X002631Y013299D02*
X002496Y013299D01*
X002460Y013398D02*
X002532Y013398D01*
X002518Y013496D02*
X002414Y013496D01*
X002316Y013595D02*
X002518Y013595D01*
X002518Y013693D02*
X000350Y013693D01*
X000350Y013595D02*
X001727Y013595D01*
X001628Y013496D02*
X000350Y013496D01*
X000350Y013398D02*
X001582Y013398D01*
X001547Y013299D02*
X000350Y013299D01*
X000350Y013201D02*
X001547Y013201D01*
X001556Y013102D02*
X000350Y013102D01*
X000350Y013004D02*
X001597Y013004D01*
X001664Y012905D02*
X000350Y012905D01*
X000350Y012807D02*
X001775Y012807D01*
X002267Y012807D02*
X002414Y012807D01*
X002513Y012708D02*
X000350Y012708D01*
X000350Y012610D02*
X002597Y012610D01*
X002597Y012511D02*
X000350Y012511D01*
X000350Y012413D02*
X002597Y012413D01*
X002597Y012314D02*
X002117Y012314D01*
X001926Y012314D02*
X000350Y012314D01*
X000350Y012216D02*
X001726Y012216D01*
X001627Y012117D02*
X000350Y012117D01*
X000350Y012019D02*
X001582Y012019D01*
X001547Y011920D02*
X000350Y011920D01*
X000350Y011822D02*
X001547Y011822D01*
X001556Y011723D02*
X000350Y011723D01*
X000350Y011625D02*
X001597Y011625D01*
X001665Y011526D02*
X000350Y011526D01*
X000350Y011428D02*
X001778Y011428D01*
X002265Y011428D02*
X002416Y011428D01*
X002514Y011329D02*
X000350Y011329D01*
X000350Y011231D02*
X002518Y011231D01*
X002518Y011132D02*
X000350Y011132D01*
X000350Y011034D02*
X002518Y011034D01*
X002728Y011625D02*
X004095Y011625D01*
X004005Y011723D02*
X002629Y011723D01*
X002531Y011822D02*
X002927Y011822D01*
X002829Y011920D02*
X002496Y011920D01*
X002461Y012019D02*
X002730Y012019D01*
X002632Y012117D02*
X002415Y012117D01*
X002317Y012216D02*
X002597Y012216D01*
X002957Y012314D02*
X004157Y012314D01*
X004042Y012216D02*
X003042Y012216D01*
X002957Y012413D02*
X010131Y012413D01*
X010033Y012511D02*
X002957Y012511D01*
X002957Y012610D02*
X004110Y012610D01*
X004011Y012708D02*
X002957Y012708D01*
X002924Y012807D02*
X003202Y012807D01*
X002624Y013306D02*
X002624Y013306D01*
X002518Y013792D02*
X000350Y013792D01*
X000350Y013890D02*
X002518Y013890D01*
X002518Y013989D02*
X000350Y013989D01*
X000350Y014087D02*
X002512Y014087D01*
X002413Y014186D02*
X002270Y014186D01*
X001773Y014186D02*
X000350Y014186D01*
X000350Y014284D02*
X001662Y014284D01*
X001596Y014383D02*
X000350Y014383D01*
X000350Y014481D02*
X001555Y014481D01*
X001547Y014580D02*
X000350Y014580D01*
X000350Y014678D02*
X001547Y014678D01*
X001583Y014777D02*
X000350Y014777D01*
X000350Y014875D02*
X001629Y014875D01*
X001728Y014974D02*
X000350Y014974D01*
X005209Y013595D02*
X009860Y013595D01*
X009860Y013693D02*
X005307Y013693D01*
X005208Y013299D02*
X009885Y013299D01*
X009967Y013201D02*
X005307Y013201D01*
X005357Y013102D02*
X010066Y013102D01*
X011752Y013201D02*
X011761Y013201D01*
X011760Y013299D02*
X011859Y013299D01*
X011785Y013398D02*
X011958Y013398D01*
X011785Y013496D02*
X012284Y013496D01*
X012314Y013004D02*
X012073Y013004D01*
X011981Y012905D02*
X011975Y012905D01*
X011883Y012807D02*
X011876Y012807D01*
X011784Y012708D02*
X011778Y012708D01*
X011442Y014974D02*
X012296Y014974D01*
X012288Y015466D02*
X011442Y015466D01*
X010891Y015565D02*
X012253Y015565D01*
X012281Y015959D02*
X010891Y015959D01*
X016838Y011526D02*
X016907Y011526D01*
X016879Y011428D02*
X016939Y011428D01*
X016939Y011329D02*
X016885Y011329D01*
X016885Y011231D02*
X016939Y011231D01*
X016939Y011132D02*
X016885Y011132D01*
X016845Y011034D02*
X016939Y011034D01*
X016975Y010935D02*
X016872Y010935D01*
X016284Y011034D02*
X016110Y011034D01*
X016166Y010935D02*
X016257Y010935D01*
X016276Y010541D02*
X016166Y010541D01*
X016127Y010443D02*
X016265Y010443D01*
X017982Y009624D02*
X018051Y009692D01*
X018051Y009923D01*
X019236Y008738D01*
X019236Y008571D02*
X018926Y008571D01*
X018926Y008473D02*
X019236Y008473D01*
X019236Y008374D02*
X018901Y008374D01*
X018923Y008276D02*
X019236Y008276D01*
X018927Y008177D02*
X020000Y008177D01*
X020000Y008079D02*
X018927Y008079D01*
X018927Y007980D02*
X020000Y007980D01*
X020000Y007882D02*
X018927Y007882D01*
X018927Y007783D02*
X020000Y007783D01*
X020000Y007685D02*
X018927Y007685D01*
X018927Y007586D02*
X020043Y007586D01*
X020062Y007464D02*
X020028Y007444D01*
X020000Y007417D01*
X019980Y007382D01*
X019970Y007344D01*
X019970Y007138D01*
X020306Y007138D01*
X020306Y007038D01*
X020406Y007038D01*
X020406Y006702D01*
X020612Y006702D01*
X020650Y006712D01*
X020684Y006732D01*
X020712Y006760D01*
X020732Y006794D01*
X020742Y006832D01*
X020742Y007038D01*
X020406Y007038D01*
X020406Y007138D01*
X020742Y007138D01*
X020742Y007344D01*
X020732Y007382D01*
X020712Y007417D01*
X020684Y007444D01*
X020650Y007464D01*
X020612Y007474D01*
X020406Y007474D01*
X020406Y007138D01*
X020306Y007138D01*
X020306Y007474D01*
X020100Y007474D01*
X020062Y007464D01*
X019984Y007389D02*
X018927Y007389D01*
X018927Y007488D02*
X020985Y007488D01*
X020985Y007586D02*
X020669Y007586D01*
X020712Y007685D02*
X020985Y007685D01*
X020985Y007783D02*
X020712Y007783D01*
X020712Y007882D02*
X020985Y007882D01*
X020985Y007980D02*
X020712Y007980D01*
X020712Y008079D02*
X020985Y008079D01*
X020985Y008177D02*
X020712Y008177D01*
X020736Y008276D02*
X020985Y008276D01*
X020985Y008374D02*
X020736Y008374D01*
X020736Y008473D02*
X021047Y008473D01*
X021146Y008571D02*
X020736Y008571D01*
X020736Y008670D02*
X021244Y008670D01*
X021343Y008768D02*
X020736Y008768D01*
X020736Y008867D02*
X020884Y008867D01*
X020812Y008965D02*
X020735Y008965D01*
X020782Y009064D02*
X019363Y009064D01*
X019264Y009162D02*
X020782Y009162D01*
X020822Y009261D02*
X019166Y009261D01*
X019067Y009359D02*
X020860Y009359D01*
X021340Y009359D02*
X021504Y009359D01*
X021504Y009405D02*
X021504Y009146D01*
X021892Y009146D01*
X021892Y009535D01*
X021634Y009535D01*
X021596Y009525D01*
X021561Y009505D01*
X021534Y009477D01*
X021514Y009443D01*
X021504Y009405D01*
X021522Y009458D02*
X021340Y009458D01*
X021340Y009556D02*
X022519Y009556D01*
X022519Y009458D02*
X022339Y009458D01*
X022358Y009359D02*
X022519Y009359D01*
X022543Y009261D02*
X022358Y009261D01*
X022358Y008965D02*
X022560Y008965D01*
X022549Y008867D02*
X022358Y008867D01*
X021969Y009162D02*
X021892Y009162D01*
X021892Y009261D02*
X021969Y009261D01*
X021969Y009359D02*
X021892Y009359D01*
X021892Y009458D02*
X021969Y009458D01*
X021969Y009696D02*
X022228Y009696D01*
X022266Y009707D01*
X022300Y009726D01*
X022328Y009754D01*
X022348Y009789D01*
X022358Y009827D01*
X022358Y010085D01*
X021969Y010085D01*
X021969Y009696D01*
X021969Y009753D02*
X021892Y009753D01*
X021892Y009696D02*
X021634Y009696D01*
X021596Y009707D01*
X021561Y009726D01*
X021534Y009754D01*
X021514Y009789D01*
X021504Y009827D01*
X021504Y010085D01*
X021892Y010085D01*
X021892Y010162D01*
X021504Y010162D01*
X021504Y010421D01*
X021514Y010459D01*
X021534Y010493D01*
X021561Y010521D01*
X021596Y010541D01*
X021634Y010551D01*
X021892Y010551D01*
X021892Y010162D01*
X021969Y010162D01*
X021969Y010551D01*
X022228Y010551D01*
X022266Y010541D01*
X022300Y010521D01*
X022328Y010493D01*
X022348Y010459D01*
X022358Y010421D01*
X022358Y010162D01*
X021969Y010162D01*
X021969Y010085D01*
X021892Y010085D01*
X021892Y009696D01*
X021892Y009852D02*
X021969Y009852D01*
X021969Y009950D02*
X021892Y009950D01*
X021892Y010049D02*
X021969Y010049D01*
X021969Y010147D02*
X024672Y010147D01*
X024631Y010246D02*
X022358Y010246D01*
X022358Y010344D02*
X024590Y010344D01*
X024549Y010443D02*
X022352Y010443D01*
X022264Y010541D02*
X024547Y010541D01*
X024547Y010640D02*
X021340Y010640D01*
X021340Y010738D02*
X024547Y010738D01*
X024559Y010837D02*
X021340Y010837D01*
X021340Y010541D02*
X021597Y010541D01*
X021509Y010443D02*
X021340Y010443D01*
X021340Y010344D02*
X021504Y010344D01*
X021504Y010246D02*
X021340Y010246D01*
X021340Y010147D02*
X021892Y010147D01*
X021892Y010246D02*
X021969Y010246D01*
X021969Y010344D02*
X021892Y010344D01*
X021892Y010443D02*
X021969Y010443D01*
X021969Y010541D02*
X021892Y010541D01*
X021504Y010049D02*
X021340Y010049D01*
X021340Y009950D02*
X021504Y009950D01*
X021504Y009852D02*
X021340Y009852D01*
X021340Y009753D02*
X021535Y009753D01*
X021340Y009655D02*
X022908Y009655D01*
X022908Y009753D02*
X022985Y009753D01*
X022985Y009852D02*
X022908Y009852D01*
X022908Y009950D02*
X022985Y009950D01*
X023365Y009950D02*
X024852Y009950D01*
X024753Y010049D02*
X022358Y010049D01*
X022358Y009950D02*
X022528Y009950D01*
X022519Y009852D02*
X022358Y009852D01*
X022327Y009753D02*
X022519Y009753D01*
X023374Y009852D02*
X024969Y009852D01*
X024600Y010935D02*
X023897Y010935D01*
X023948Y011034D02*
X024641Y011034D01*
X024682Y011132D02*
X023950Y011132D01*
X023944Y011231D02*
X024777Y011231D01*
X024876Y011329D02*
X023940Y011329D01*
X023936Y011428D02*
X025027Y011428D01*
X025265Y011526D02*
X023936Y011526D01*
X023946Y011920D02*
X027146Y011920D01*
X026988Y012019D02*
X023949Y012019D01*
X023950Y012043D02*
X023950Y012043D01*
X023951Y012117D02*
X026829Y012117D01*
X026671Y012216D02*
X023954Y012216D01*
X024169Y012314D02*
X024882Y012314D01*
X024878Y012413D02*
X024173Y012413D01*
X024173Y012511D02*
X024878Y012511D01*
X024878Y012610D02*
X024173Y012610D01*
X024173Y012708D02*
X024878Y012708D01*
X024878Y012807D02*
X024173Y012807D01*
X024173Y012905D02*
X024878Y012905D01*
X024913Y013004D02*
X024138Y013004D01*
X025669Y012905D02*
X028163Y012905D01*
X028163Y012807D02*
X026781Y012807D01*
X026939Y012708D02*
X028163Y012708D01*
X028163Y012610D02*
X027098Y012610D01*
X027256Y012511D02*
X028163Y012511D01*
X028163Y012413D02*
X027415Y012413D01*
X027573Y012314D02*
X028163Y012314D01*
X028163Y012216D02*
X027732Y012216D01*
X027890Y012117D02*
X028163Y012117D01*
X028163Y012019D02*
X028048Y012019D01*
X026512Y012314D02*
X025665Y012314D01*
X021148Y011340D02*
X021148Y011340D01*
X021053Y011340D02*
X021053Y011340D01*
X018418Y009556D02*
X018050Y009556D01*
X018051Y009555D02*
X017982Y009624D01*
X018013Y009655D02*
X018319Y009655D01*
X018221Y009753D02*
X018051Y009753D01*
X018051Y009852D02*
X018122Y009852D01*
X018051Y009555D02*
X018051Y008944D01*
X017980Y008874D01*
X017290Y008874D01*
X017220Y008944D01*
X017220Y009068D01*
X016879Y009068D01*
X016814Y009003D01*
X016541Y009003D01*
X016091Y008553D01*
X016091Y007675D01*
X016133Y007658D01*
X016251Y007539D01*
X016315Y007385D01*
X016315Y006618D01*
X016251Y006464D01*
X016202Y006414D01*
X016399Y006414D01*
X017155Y007170D01*
X017360Y007170D01*
X017473Y007283D01*
X017450Y007306D01*
X017450Y008272D01*
X017521Y008342D01*
X017856Y008342D01*
X017927Y008272D01*
X017927Y008265D01*
X017931Y008280D01*
X017950Y008314D01*
X017978Y008342D01*
X018013Y008362D01*
X018051Y008372D01*
X018180Y008372D01*
X018180Y007798D01*
X018198Y007798D01*
X018198Y008372D01*
X018317Y008372D01*
X018290Y008399D01*
X018290Y008895D01*
X018360Y008965D01*
X018051Y008965D01*
X018051Y009064D02*
X018910Y009064D01*
X018856Y008965D02*
X018360Y008965D01*
X018290Y008867D02*
X016405Y008867D01*
X016503Y008965D02*
X017220Y008965D01*
X017220Y009064D02*
X016875Y009064D01*
X016306Y008768D02*
X018290Y008768D01*
X018290Y008670D02*
X016208Y008670D01*
X016109Y008571D02*
X018290Y008571D01*
X018290Y008473D02*
X016091Y008473D01*
X016091Y008374D02*
X016288Y008374D01*
X016274Y008360D02*
X016274Y007864D01*
X016344Y007794D01*
X016656Y007794D01*
X016840Y007609D01*
X016950Y007609D01*
X016950Y007306D01*
X017021Y007236D01*
X017356Y007236D01*
X017427Y007306D01*
X017427Y008272D01*
X017356Y008342D01*
X017021Y008342D01*
X016950Y008272D01*
X016950Y008008D01*
X016910Y008048D01*
X016910Y008360D01*
X016840Y008430D01*
X016344Y008430D01*
X016274Y008360D01*
X016274Y008276D02*
X016091Y008276D01*
X016091Y008177D02*
X016274Y008177D01*
X016274Y008079D02*
X016091Y008079D01*
X016091Y007980D02*
X016274Y007980D01*
X016274Y007882D02*
X016091Y007882D01*
X016091Y007783D02*
X016666Y007783D01*
X016765Y007685D02*
X016091Y007685D01*
X016205Y007586D02*
X016950Y007586D01*
X016950Y007488D02*
X016273Y007488D01*
X016314Y007389D02*
X016950Y007389D01*
X016966Y007291D02*
X016315Y007291D01*
X016315Y007192D02*
X017382Y007192D01*
X017411Y007291D02*
X017466Y007291D01*
X017450Y007389D02*
X017427Y007389D01*
X017427Y007488D02*
X017450Y007488D01*
X017450Y007586D02*
X017427Y007586D01*
X017427Y007685D02*
X017450Y007685D01*
X017450Y007783D02*
X017427Y007783D01*
X017427Y007882D02*
X017450Y007882D01*
X017450Y007980D02*
X017427Y007980D01*
X017427Y008079D02*
X017450Y008079D01*
X017450Y008177D02*
X017427Y008177D01*
X017423Y008276D02*
X017454Y008276D01*
X017923Y008276D02*
X017930Y008276D01*
X018180Y008276D02*
X018198Y008276D01*
X018198Y008177D02*
X018180Y008177D01*
X018180Y008079D02*
X018198Y008079D01*
X018198Y007980D02*
X018180Y007980D01*
X018180Y007882D02*
X018198Y007882D01*
X018180Y007685D02*
X018198Y007685D01*
X018198Y007586D02*
X018180Y007586D01*
X018180Y007488D02*
X018198Y007488D01*
X018198Y007389D02*
X018180Y007389D01*
X018180Y007291D02*
X018198Y007291D01*
X018442Y007291D02*
X018466Y007291D01*
X018911Y007291D02*
X019970Y007291D01*
X019970Y007192D02*
X017869Y007192D01*
X017911Y007291D02*
X017935Y007291D01*
X017793Y007094D02*
X020306Y007094D01*
X020306Y007038D02*
X019970Y007038D01*
X019970Y006832D01*
X019980Y006794D01*
X020000Y006760D01*
X020028Y006732D01*
X020062Y006712D01*
X020100Y006702D01*
X020306Y006702D01*
X020306Y007038D01*
X020306Y006995D02*
X020406Y006995D01*
X020406Y006897D02*
X020306Y006897D01*
X020306Y006798D02*
X020406Y006798D01*
X020733Y006798D02*
X020985Y006798D01*
X020985Y006897D02*
X020742Y006897D01*
X020742Y006995D02*
X020985Y006995D01*
X020985Y007094D02*
X020406Y007094D01*
X020406Y007192D02*
X020306Y007192D01*
X020306Y007291D02*
X020406Y007291D01*
X020406Y007389D02*
X020306Y007389D01*
X020728Y007389D02*
X020985Y007389D01*
X020985Y007291D02*
X020742Y007291D01*
X020742Y007192D02*
X020985Y007192D01*
X021325Y007192D02*
X021549Y007192D01*
X021549Y007094D02*
X021325Y007094D01*
X021325Y006995D02*
X021549Y006995D01*
X021549Y006897D02*
X021325Y006897D01*
X021325Y006798D02*
X021560Y006798D01*
X021325Y006700D02*
X022549Y006700D01*
X022549Y006798D02*
X022333Y006798D01*
X022549Y006601D02*
X021325Y006601D01*
X021424Y006503D02*
X022549Y006503D01*
X022549Y006404D02*
X021522Y006404D01*
X021621Y006306D02*
X022549Y006306D01*
X021770Y006109D02*
X023477Y006109D01*
X023379Y006207D02*
X021725Y006207D01*
X021739Y006010D02*
X023576Y006010D01*
X023674Y005912D02*
X021708Y005912D01*
X021677Y005813D02*
X023985Y005813D01*
X024084Y005715D02*
X021646Y005715D01*
X021615Y005616D02*
X024107Y005616D01*
X024107Y005518D02*
X021586Y005518D01*
X020520Y005222D02*
X019881Y005222D01*
X019871Y005212D02*
X020126Y005467D01*
X020126Y005827D01*
X019871Y006082D01*
X019510Y006082D01*
X019256Y005827D01*
X019256Y005467D01*
X019510Y005212D01*
X019871Y005212D01*
X019979Y005321D02*
X020422Y005321D01*
X020323Y005419D02*
X020078Y005419D01*
X020126Y005518D02*
X020267Y005518D01*
X020267Y005616D02*
X020126Y005616D01*
X020126Y005715D02*
X020267Y005715D01*
X020267Y005813D02*
X020126Y005813D01*
X020041Y005912D02*
X020344Y005912D01*
X020442Y006010D02*
X019943Y006010D01*
X019438Y006010D02*
X018957Y006010D01*
X018957Y005912D02*
X019340Y005912D01*
X019256Y005813D02*
X018957Y005813D01*
X018957Y005733D02*
X018698Y005733D01*
X018698Y005159D01*
X018826Y005159D01*
X018865Y005169D01*
X018899Y005189D01*
X018927Y005217D01*
X018946Y005251D01*
X018957Y005289D01*
X018957Y005733D01*
X018957Y005715D02*
X019256Y005715D01*
X019256Y005616D02*
X018957Y005616D01*
X018957Y005518D02*
X019256Y005518D01*
X019304Y005419D02*
X018957Y005419D01*
X018957Y005321D02*
X019402Y005321D01*
X019501Y005222D02*
X018930Y005222D01*
X018698Y005222D02*
X018680Y005222D01*
X018680Y005321D02*
X018698Y005321D01*
X018698Y005419D02*
X018680Y005419D01*
X018680Y005518D02*
X018698Y005518D01*
X018698Y005616D02*
X018680Y005616D01*
X018680Y005715D02*
X018698Y005715D01*
X018189Y005742D02*
X018189Y005196D01*
X017987Y005222D02*
X017890Y005222D01*
X017927Y005321D02*
X017950Y005321D01*
X017950Y005419D02*
X017927Y005419D01*
X017927Y005518D02*
X017950Y005518D01*
X017950Y005616D02*
X017927Y005616D01*
X018403Y005222D02*
X018447Y005222D01*
X018408Y004730D02*
X018353Y004730D01*
X018353Y004631D02*
X018499Y004631D01*
X018589Y004533D02*
X018353Y004533D01*
X018336Y004434D02*
X018680Y004434D01*
X016950Y005321D02*
X016917Y005321D01*
X016917Y005419D02*
X016950Y005419D01*
X016950Y005518D02*
X016899Y005518D01*
X016950Y005616D02*
X015155Y005616D01*
X015153Y005715D02*
X016950Y005715D01*
X016950Y005813D02*
X015151Y005813D01*
X015130Y005518D02*
X016143Y005518D01*
X016126Y005419D02*
X015378Y005419D01*
X015378Y005321D02*
X016126Y005321D01*
X016126Y005222D02*
X015967Y005222D01*
X016073Y005124D02*
X016126Y005124D01*
X016126Y005025D02*
X016081Y005025D01*
X015704Y005025D02*
X015607Y005025D01*
X015607Y005124D02*
X015704Y005124D01*
X015704Y005222D02*
X015607Y005222D01*
X016072Y005912D02*
X016950Y005912D01*
X016950Y006010D02*
X016170Y006010D01*
X016603Y006109D02*
X016950Y006109D01*
X016950Y006207D02*
X016702Y006207D01*
X016488Y006503D02*
X016267Y006503D01*
X016308Y006601D02*
X016587Y006601D01*
X016685Y006700D02*
X016315Y006700D01*
X016315Y006798D02*
X016784Y006798D01*
X016882Y006897D02*
X016315Y006897D01*
X016315Y006995D02*
X016981Y006995D01*
X017079Y007094D02*
X016315Y007094D01*
X015475Y006995D02*
X015315Y006995D01*
X015315Y006897D02*
X015475Y006897D01*
X015475Y006798D02*
X015315Y006798D01*
X015315Y006700D02*
X015475Y006700D01*
X015482Y006601D02*
X015308Y006601D01*
X015267Y006503D02*
X015523Y006503D01*
X015599Y006404D02*
X015192Y006404D01*
X015192Y006306D02*
X015754Y006306D01*
X017194Y006700D02*
X020973Y006700D01*
X021118Y006582D02*
X021155Y006620D01*
X021155Y008340D01*
X021443Y008628D01*
X022946Y008628D01*
X023860Y008628D01*
X024084Y008403D01*
X024084Y006427D01*
X024533Y005978D01*
X024533Y005482D01*
X024864Y005151D01*
X024602Y004828D02*
X024601Y004828D01*
X024690Y004730D02*
X024745Y004730D01*
X024731Y004631D02*
X024888Y004631D01*
X024908Y004533D02*
X024748Y004533D01*
X024748Y004434D02*
X024908Y004434D01*
X024908Y004336D02*
X024748Y004336D01*
X023908Y004336D02*
X023395Y004336D01*
X023493Y004434D02*
X023908Y004434D01*
X023908Y004533D02*
X023592Y004533D01*
X023690Y004631D02*
X023925Y004631D01*
X023966Y004730D02*
X023789Y004730D01*
X023887Y004828D02*
X024056Y004828D01*
X024277Y005100D02*
X024277Y005761D01*
X023982Y006057D01*
X023769Y006057D01*
X023537Y006289D01*
X023537Y007840D01*
X023250Y008128D01*
X021939Y008128D01*
X021541Y008177D02*
X021325Y008177D01*
X021325Y008079D02*
X021541Y008079D01*
X021541Y007980D02*
X021325Y007980D01*
X021325Y007882D02*
X021541Y007882D01*
X021559Y007783D02*
X021325Y007783D01*
X021325Y007685D02*
X022545Y007685D01*
X022545Y007783D02*
X022318Y007783D01*
X022336Y007882D02*
X022545Y007882D01*
X022545Y007586D02*
X021325Y007586D01*
X021325Y007488D02*
X021575Y007488D01*
X021549Y007389D02*
X021325Y007389D01*
X021325Y007291D02*
X021549Y007291D01*
X022318Y007488D02*
X022545Y007488D01*
X022545Y007389D02*
X022344Y007389D01*
X023340Y007389D02*
X023367Y007389D01*
X023367Y007291D02*
X023340Y007291D01*
X023340Y007192D02*
X023367Y007192D01*
X023367Y007094D02*
X023340Y007094D01*
X023340Y006995D02*
X023367Y006995D01*
X023367Y006897D02*
X023344Y006897D01*
X023344Y006798D02*
X023367Y006798D01*
X023367Y006700D02*
X023344Y006700D01*
X023344Y006601D02*
X023367Y006601D01*
X023367Y006503D02*
X023344Y006503D01*
X023344Y006404D02*
X023367Y006404D01*
X023367Y006306D02*
X023344Y006306D01*
X024254Y006503D02*
X024623Y006503D01*
X024664Y006601D02*
X024254Y006601D01*
X024254Y006700D02*
X024734Y006700D01*
X024833Y006798D02*
X024254Y006798D01*
X024254Y006897D02*
X024931Y006897D01*
X025161Y006995D02*
X024254Y006995D01*
X024347Y006404D02*
X024582Y006404D01*
X024547Y006306D02*
X024446Y006306D01*
X024544Y006207D02*
X024547Y006207D01*
X023367Y007488D02*
X023340Y007488D01*
X023341Y007586D02*
X023367Y007586D01*
X023367Y007685D02*
X023340Y007685D01*
X023340Y007783D02*
X023354Y007783D01*
X021541Y008276D02*
X021331Y008276D01*
X021429Y008374D02*
X021541Y008374D01*
X021504Y008867D02*
X021316Y008867D01*
X021388Y008965D02*
X021504Y008965D01*
X021504Y009064D02*
X021418Y009064D01*
X021418Y009162D02*
X021504Y009162D01*
X021504Y009261D02*
X021378Y009261D01*
X018812Y009162D02*
X018051Y009162D01*
X018051Y009261D02*
X018713Y009261D01*
X018615Y009359D02*
X018051Y009359D01*
X018051Y009458D02*
X018516Y009458D01*
X018315Y008374D02*
X016896Y008374D01*
X016910Y008276D02*
X016954Y008276D01*
X016950Y008177D02*
X016910Y008177D01*
X016910Y008079D02*
X016950Y008079D01*
X017694Y006995D02*
X019970Y006995D01*
X019970Y006897D02*
X017596Y006897D01*
X017293Y006798D02*
X019979Y006798D01*
X020974Y006439D02*
X021118Y006582D01*
X023296Y004237D02*
X023908Y004237D01*
X023908Y004139D02*
X023198Y004139D01*
X023099Y004040D02*
X023908Y004040D01*
X023735Y002366D02*
X023263Y002366D01*
X023219Y002267D02*
X023920Y002267D01*
X024104Y002169D02*
X022406Y002169D01*
X024176Y001972D02*
X018861Y001972D01*
X018763Y001873D02*
X024176Y001873D01*
X024176Y001775D02*
X018664Y001775D01*
X018566Y001676D02*
X024178Y001676D01*
X025594Y001676D02*
X026044Y001676D01*
X026046Y001670D02*
X026036Y001709D01*
X026036Y001954D01*
X026726Y001954D01*
X026726Y002054D01*
X026036Y002054D01*
X026036Y002299D01*
X026046Y002337D01*
X026066Y002372D01*
X026094Y002399D01*
X026128Y002419D01*
X026166Y002429D01*
X026726Y002429D01*
X026726Y002054D01*
X026826Y002054D01*
X026826Y002429D01*
X027387Y002429D01*
X027425Y002419D01*
X027459Y002399D01*
X027487Y002372D01*
X027507Y002337D01*
X027517Y002299D01*
X027517Y002054D01*
X026826Y002054D01*
X026826Y001954D01*
X026826Y001578D01*
X027387Y001578D01*
X027425Y001588D01*
X027459Y001608D01*
X027487Y001636D01*
X027507Y001670D01*
X027517Y001709D01*
X027517Y001954D01*
X026826Y001954D01*
X026726Y001954D01*
X026726Y001578D01*
X026166Y001578D01*
X026128Y001588D01*
X026094Y001608D01*
X026066Y001636D01*
X026046Y001670D01*
X026036Y001775D02*
X025597Y001775D01*
X025597Y001873D02*
X026036Y001873D01*
X026036Y002070D02*
X025597Y002070D01*
X025597Y001972D02*
X026726Y001972D01*
X026726Y002070D02*
X026826Y002070D01*
X026826Y001972D02*
X027761Y001972D01*
X027761Y002070D02*
X027517Y002070D01*
X027517Y002169D02*
X027760Y002169D01*
X027760Y002267D02*
X027517Y002267D01*
X027490Y002366D02*
X027760Y002366D01*
X027761Y001873D02*
X027517Y001873D01*
X027517Y001775D02*
X027761Y001775D01*
X027762Y001676D02*
X027508Y001676D01*
X027762Y001578D02*
X018467Y001578D01*
X018369Y001479D02*
X027762Y001479D01*
X027763Y001381D02*
X018270Y001381D01*
X018117Y001282D02*
X027763Y001282D01*
X027763Y001184D02*
X014014Y001184D01*
X014014Y001282D02*
X014665Y001282D01*
X014503Y001381D02*
X014014Y001381D01*
X014014Y001479D02*
X014375Y001479D01*
X014248Y001578D02*
X014014Y001578D01*
X014014Y001676D02*
X014121Y001676D01*
X014527Y002070D02*
X015302Y002070D01*
X015308Y002060D02*
X015336Y002032D01*
X015370Y002012D01*
X015408Y002002D01*
X015653Y002002D01*
X015653Y002378D01*
X015278Y002378D01*
X015278Y002132D01*
X015288Y002094D01*
X015308Y002060D01*
X015278Y002169D02*
X014400Y002169D01*
X014273Y002267D02*
X015278Y002267D01*
X015278Y002366D02*
X014145Y002366D01*
X014012Y002464D02*
X015653Y002464D01*
X015653Y002478D02*
X015653Y002378D01*
X015753Y002378D01*
X015753Y002478D01*
X015653Y002478D01*
X015653Y002853D01*
X015408Y002853D01*
X015370Y002843D01*
X015336Y002823D01*
X015308Y002795D01*
X015288Y002761D01*
X015278Y002723D01*
X015278Y002478D01*
X015653Y002478D01*
X015653Y002563D02*
X015753Y002563D01*
X015753Y002478D02*
X015753Y002853D01*
X015999Y002853D01*
X016037Y002843D01*
X016071Y002823D01*
X016099Y002795D01*
X016119Y002761D01*
X016129Y002723D01*
X016129Y002478D01*
X015753Y002478D01*
X015753Y002464D02*
X016804Y002464D01*
X016804Y002366D02*
X016129Y002366D01*
X016129Y002378D02*
X015753Y002378D01*
X015753Y002002D01*
X015999Y002002D01*
X016037Y002012D01*
X016071Y002032D01*
X016099Y002060D01*
X016119Y002094D01*
X016129Y002132D01*
X016129Y002378D01*
X016129Y002267D02*
X016804Y002267D01*
X016804Y002169D02*
X016129Y002169D01*
X016105Y002070D02*
X016836Y002070D01*
X016804Y002563D02*
X016129Y002563D01*
X016129Y002661D02*
X016804Y002661D01*
X016810Y002760D02*
X016119Y002760D01*
X015753Y002760D02*
X015653Y002760D01*
X015653Y002661D02*
X015753Y002661D01*
X015753Y002366D02*
X015653Y002366D01*
X015653Y002267D02*
X015753Y002267D01*
X015753Y002169D02*
X015653Y002169D01*
X015653Y002070D02*
X015753Y002070D01*
X015278Y002563D02*
X014044Y002563D01*
X014044Y002661D02*
X015278Y002661D01*
X015287Y002760D02*
X014044Y002760D01*
X014044Y002858D02*
X017553Y002858D01*
X017818Y002957D02*
X014044Y002957D01*
X014044Y003055D02*
X018083Y003055D01*
X018100Y002464D02*
X018188Y002464D01*
X018365Y002267D02*
X017595Y002267D01*
X017595Y002169D02*
X018266Y002169D01*
X018168Y002070D02*
X017563Y002070D01*
X017971Y001873D02*
X014781Y001873D01*
X014654Y001972D02*
X018069Y001972D01*
X017835Y002366D02*
X018463Y002366D01*
X020112Y000825D02*
X020112Y000825D01*
X015362Y003252D02*
X014044Y003252D01*
X014044Y003351D02*
X015362Y003351D01*
X015362Y003449D02*
X014044Y003449D01*
X014044Y003548D02*
X015362Y003548D01*
X015362Y003646D02*
X014044Y003646D01*
X014044Y003745D02*
X015362Y003745D01*
X015362Y003843D02*
X014003Y003843D01*
X014908Y004040D02*
X015008Y004040D01*
X015008Y004139D02*
X014908Y004139D01*
X014908Y004237D02*
X015008Y004237D01*
X013193Y003055D02*
X011881Y003055D01*
X011891Y003154D02*
X011981Y003154D01*
X011921Y002957D02*
X013193Y002957D01*
X014521Y002928D02*
X014521Y002998D01*
X013223Y001775D02*
X011853Y001775D01*
X011833Y001085D02*
X013223Y001085D01*
X013223Y000987D02*
X010235Y000987D01*
X010235Y001085D02*
X010859Y001085D01*
X010801Y001184D02*
X010235Y001184D01*
X010235Y001282D02*
X010801Y001282D01*
X010801Y001381D02*
X010235Y001381D01*
X010235Y001479D02*
X010801Y001479D01*
X010801Y001578D02*
X010235Y001578D01*
X010235Y001676D02*
X010815Y001676D01*
X010840Y001775D02*
X010235Y001775D01*
X010235Y001873D02*
X010801Y001873D01*
X010801Y001972D02*
X010235Y001972D01*
X010235Y002070D02*
X010801Y002070D01*
X010801Y002169D02*
X010235Y002169D01*
X010235Y002267D02*
X010801Y002267D01*
X010834Y002366D02*
X010235Y002366D01*
X010235Y002464D02*
X010788Y002464D01*
X010771Y002563D02*
X010235Y002563D01*
X010235Y002661D02*
X010771Y002661D01*
X010235Y000888D02*
X013223Y000888D01*
X013223Y000790D02*
X010235Y000790D01*
X010235Y000691D02*
X013223Y000691D01*
X013250Y000593D02*
X010235Y000593D01*
X014014Y000987D02*
X027764Y000987D01*
X027763Y001085D02*
X014014Y001085D01*
X014042Y000888D02*
X027764Y000888D01*
X026826Y001676D02*
X026726Y001676D01*
X026726Y001775D02*
X026826Y001775D01*
X026826Y001873D02*
X026726Y001873D01*
X026726Y002169D02*
X026826Y002169D01*
X026826Y002267D02*
X026726Y002267D01*
X026726Y002366D02*
X026826Y002366D01*
X026062Y002366D02*
X025561Y002366D01*
X025597Y002267D02*
X026036Y002267D01*
X026036Y002169D02*
X025597Y002169D01*
X014100Y008100D02*
X014068Y008081D01*
X012994Y009359D02*
X012938Y009359D01*
X012994Y009458D02*
X012849Y009458D01*
X012868Y009556D02*
X012994Y009556D01*
X012994Y009655D02*
X012885Y009655D01*
X012885Y009753D02*
X012994Y009753D01*
X012885Y009852D02*
X013133Y009852D01*
X012280Y009458D02*
X012165Y009458D01*
D36*
X011923Y009470D02*
X011923Y007029D01*
X011895Y007002D01*
X010895Y007002D02*
X010891Y007006D01*
X010891Y009746D01*
X011393Y010248D01*
X012565Y010248D01*
X012565Y009748D02*
X012200Y009748D01*
X011923Y009470D01*
X012565Y009248D02*
X012795Y009248D01*
X012903Y009139D01*
X012903Y007009D01*
X012895Y007002D01*
X014068Y008081D02*
X013998Y008202D01*
X013998Y011155D01*
X014041Y011198D01*
X015332Y011198D01*
X015848Y010730D02*
X015866Y010748D01*
X016565Y010748D01*
X016565Y010248D02*
X015267Y010248D01*
X015257Y010257D01*
X015850Y009748D02*
X015848Y009746D01*
X015850Y009748D02*
X016565Y009748D01*
X016533Y009250D02*
X015911Y008628D01*
X015911Y007017D01*
X015895Y007002D01*
X014935Y007041D02*
X014895Y007002D01*
X014895Y006348D02*
X015163Y006080D01*
X015986Y006080D01*
X016139Y006234D01*
X016474Y006234D01*
X017230Y006990D01*
X017435Y006990D01*
X017689Y007244D01*
X017689Y007789D01*
X017189Y007789D02*
X016915Y007789D01*
X016592Y008112D01*
X018189Y007789D02*
X018202Y007775D01*
X018202Y006978D01*
X018689Y007789D02*
X018689Y008567D01*
X018608Y008647D01*
X017635Y009250D02*
X016533Y009250D01*
X016565Y009248D02*
X017633Y009248D01*
X017635Y009250D01*
X017635Y009998D02*
X017635Y010600D01*
X017635Y010840D01*
X017257Y011218D01*
X013998Y011155D02*
X013998Y012887D01*
X013000Y013248D01*
X012565Y013248D01*
X012063Y013248D01*
X011667Y012852D01*
X011380Y012852D01*
X011340Y012891D01*
X011714Y012383D02*
X010415Y012383D01*
X010061Y012738D01*
X004876Y012738D01*
X004667Y012946D01*
X004655Y012935D01*
X003328Y012935D01*
X002974Y013289D01*
X002895Y013289D01*
X002698Y013486D01*
X002698Y014155D01*
X002257Y014596D01*
X002021Y014596D01*
X002021Y013218D02*
X002257Y013218D01*
X002777Y012698D01*
X002777Y012226D01*
X003053Y011950D01*
X004663Y011950D01*
X004667Y011946D01*
X004750Y012029D01*
X011754Y012029D01*
X011972Y012248D01*
X012565Y012248D01*
X012590Y011773D02*
X012565Y011748D01*
X012590Y011773D02*
X012824Y011773D01*
X013313Y011285D01*
X013313Y009533D01*
X012559Y011242D02*
X011915Y011242D01*
X012559Y011242D02*
X012565Y011248D01*
X011714Y012383D02*
X012078Y012748D01*
X012565Y012748D01*
X012565Y014248D02*
X011346Y014248D01*
X011242Y014352D01*
X010610Y014748D02*
X010572Y014785D01*
X010610Y014748D02*
X012565Y014748D01*
X012535Y015218D02*
X012565Y015248D01*
X012535Y015218D02*
X011124Y015218D01*
X010590Y015748D02*
X010572Y015730D01*
X010590Y015748D02*
X012565Y015748D01*
X014785Y015494D02*
X015039Y015748D01*
X016565Y015748D01*
X016565Y014748D02*
X016606Y014748D01*
X016639Y014714D01*
X018265Y014714D01*
X018281Y014730D01*
X018600Y014242D02*
X016570Y014242D01*
X016565Y014248D01*
X018600Y014242D02*
X018883Y014525D01*
X018883Y015423D01*
X019151Y015691D01*
X020372Y015691D01*
X020565Y015498D01*
X020565Y015191D01*
X020694Y015061D01*
X021297Y015061D01*
X022128Y015061D01*
X022135Y015069D01*
X022143Y015076D01*
X022667Y015076D01*
X022962Y014781D01*
X022986Y014781D01*
X023065Y014702D01*
X023179Y014702D01*
X023309Y014572D01*
X023383Y014572D01*
X023458Y014498D01*
X023691Y014498D01*
X024240Y015047D01*
X025285Y015047D01*
X026647Y015789D02*
X026647Y014080D01*
X026462Y013895D01*
X026462Y013730D01*
X026076Y013344D01*
X023679Y013344D01*
X023600Y013265D01*
X022974Y013265D01*
X022769Y013061D01*
X021076Y013061D01*
X023505Y015047D02*
X023505Y015478D01*
X023151Y015832D01*
X022151Y015832D01*
X022135Y015817D01*
X019053Y005742D02*
X018689Y005742D01*
X019053Y005742D02*
X019088Y005706D01*
X018189Y005742D02*
X018179Y005732D01*
X023040Y003054D02*
X023023Y002411D01*
X012289Y003411D02*
X012248Y003393D01*
X004667Y003946D02*
X004655Y003958D01*
X003643Y003958D01*
X003289Y003604D01*
X003289Y002383D01*
X003100Y002194D01*
X002021Y002194D01*
X002021Y003572D02*
X002864Y003572D01*
X003013Y003722D01*
X003013Y004588D01*
X003368Y004943D01*
X004663Y004943D01*
X004667Y004946D01*
X004647Y005927D02*
X003368Y005927D01*
X002974Y005533D01*
X002974Y005100D01*
X002824Y004950D01*
X002021Y004950D01*
X002021Y006328D02*
X002588Y006328D01*
X003171Y006911D01*
X004631Y006911D01*
X004667Y006946D01*
X004655Y007935D02*
X004667Y007946D01*
X004655Y007935D02*
X002541Y007935D01*
X002313Y007706D01*
X002021Y007706D01*
X002541Y008801D02*
X004521Y008801D01*
X004667Y008946D01*
X004624Y009903D02*
X003013Y009903D01*
X002454Y010462D01*
X002021Y010462D01*
X002698Y011045D02*
X002777Y010966D01*
X004647Y010966D01*
X004667Y010946D01*
X004667Y009946D02*
X004624Y009903D01*
X002698Y011045D02*
X002698Y011399D01*
X002257Y011840D01*
X002021Y011840D01*
X002021Y009084D02*
X002257Y009084D01*
X002541Y008801D01*
X004667Y005946D02*
X004647Y005927D01*
D37*
X014631Y002438D03*
D38*
X012289Y003411D03*
X018202Y006978D03*
X019746Y007069D03*
X019088Y005706D03*
X016592Y008112D03*
X018608Y008647D03*
X015848Y009746D03*
X015257Y010257D03*
X015848Y010730D03*
X015332Y011198D03*
X017257Y011218D03*
X017214Y011785D03*
X017096Y012722D03*
X018982Y012317D03*
X021037Y012124D03*
X021076Y013061D03*
X018281Y014730D03*
X014785Y015494D03*
X011242Y014352D03*
X010572Y014785D03*
X011124Y015218D03*
X010572Y015730D03*
X010742Y013702D03*
X011915Y011242D03*
X013313Y009533D03*
X022088Y002411D03*
D39*
X017600Y005100D02*
X017600Y005600D01*
X017600Y005100D02*
X016600Y005100D01*
X016521Y005254D01*
X016100Y004100D02*
X015600Y003600D01*
X015738Y003588D01*
X017100Y011100D02*
X017257Y011218D01*
X017100Y011100D02*
X017100Y011600D01*
X017214Y011785D01*
D40*
X016100Y004100D03*
M02*
