G75*
%MOIN*%
%OFA0B0*%
%FSLAX24Y24*%
%IPPOS*%
%LPD*%
%AMOC8*
5,1,8,0,0,1.08239X$1,22.5*
%
%ADD10C,0.0680*%
%ADD11OC8,0.0680*%
%ADD12C,0.0965*%
%ADD13C,0.0789*%
%ADD14R,0.0634X0.0634*%
%ADD15C,0.1379*%
%ADD16OC8,0.0710*%
%ADD17C,0.0476*%
%ADD18C,0.0516*%
%ADD19R,0.0476X0.0476*%
%ADD20C,0.0380*%
D10*
X004367Y002946D02*
X004967Y002946D01*
X004967Y003946D02*
X004367Y003946D01*
X004367Y004946D02*
X004967Y004946D01*
X004967Y005946D02*
X004367Y005946D01*
X004367Y006946D02*
X004967Y006946D01*
X004967Y007946D02*
X004367Y007946D01*
X004367Y008946D02*
X004967Y008946D01*
X004967Y009946D02*
X004367Y009946D01*
X004367Y010946D02*
X004967Y010946D01*
X004967Y011946D02*
X004367Y011946D01*
X004367Y012946D02*
X004967Y012946D01*
X004967Y013946D02*
X004367Y013946D01*
X010895Y007302D02*
X010895Y006702D01*
X011895Y006702D02*
X011895Y007302D01*
X012895Y007302D02*
X012895Y006702D01*
X013895Y006702D02*
X013895Y007302D01*
X014895Y007302D02*
X014895Y006702D01*
X015895Y006702D02*
X015895Y007302D01*
X024328Y004506D02*
X024328Y003906D01*
X025328Y003906D02*
X025328Y004506D01*
X026328Y004506D02*
X026328Y003906D01*
X027328Y003906D02*
X027328Y004506D01*
D11*
X025285Y015047D03*
X023505Y015047D03*
D12*
X023015Y014067D03*
X025775Y014067D03*
D13*
X002021Y000817D03*
X002021Y002194D03*
X002021Y003572D03*
X002021Y004950D03*
X002021Y006328D03*
X002021Y007706D03*
X002021Y009084D03*
X002021Y010462D03*
X002021Y011840D03*
X002021Y013218D03*
X002021Y014596D03*
X002021Y015974D03*
D14*
X021931Y010124D03*
X022946Y009620D03*
X021931Y009108D03*
X022946Y008628D03*
X021939Y008128D03*
X022943Y007628D03*
X021946Y007135D03*
X022946Y006631D03*
D15*
X025446Y006139D03*
X025446Y010628D03*
D16*
X020702Y005655D03*
X019691Y005647D03*
D17*
X021100Y009100D03*
X027600Y013600D03*
D18*
X014631Y002438D03*
D19*
X012289Y003411D03*
X018202Y006978D03*
X019746Y007069D03*
X019088Y005706D03*
X016592Y008112D03*
X018608Y008647D03*
X015848Y009746D03*
X015257Y010257D03*
X015848Y010730D03*
X015332Y011198D03*
X017257Y011218D03*
X017214Y011785D03*
X017096Y012722D03*
X018982Y012317D03*
X021037Y012124D03*
X021076Y013061D03*
X018281Y014730D03*
X014785Y015494D03*
X011242Y014352D03*
X010572Y014785D03*
X011124Y015218D03*
X010572Y015730D03*
X010742Y013702D03*
X011915Y011242D03*
X013313Y009533D03*
X022088Y002411D03*
D20*
X016100Y004100D03*
M02*
