G75*
%MOIN*%
%OFA0B0*%
%FSLAX24Y24*%
%IPPOS*%
%LPD*%
%AMOC8*
5,1,8,0,0,1.08239X$1,22.5*
%
%ADD10C,0.0600*%
%ADD11OC8,0.0600*%
%ADD12C,0.0885*%
%ADD13C,0.0709*%
%ADD14R,0.0554X0.0554*%
%ADD15OC8,0.0630*%
%ADD16C,0.0240*%
%ADD17C,0.0080*%
%ADD18C,0.0396*%
%ADD19C,0.0436*%
%ADD20R,0.0396X0.0396*%
%ADD21C,0.0120*%
%ADD22C,0.0100*%
%ADD23C,0.0070*%
%ADD24C,0.0300*%
D10*
X004367Y002946D02*
X004967Y002946D01*
X004967Y003946D02*
X004367Y003946D01*
X004367Y004946D02*
X004967Y004946D01*
X004967Y005946D02*
X004367Y005946D01*
X004367Y006946D02*
X004967Y006946D01*
X004967Y007946D02*
X004367Y007946D01*
X004367Y008946D02*
X004967Y008946D01*
X004967Y009946D02*
X004367Y009946D01*
X004367Y010946D02*
X004967Y010946D01*
X004967Y011946D02*
X004367Y011946D01*
X004367Y012946D02*
X004967Y012946D01*
X004967Y013946D02*
X004367Y013946D01*
X010895Y007302D02*
X010895Y006702D01*
X011895Y006702D02*
X011895Y007302D01*
X012895Y007302D02*
X012895Y006702D01*
X013895Y006702D02*
X013895Y007302D01*
X014895Y007302D02*
X014895Y006702D01*
X015895Y006702D02*
X015895Y007302D01*
X024328Y004506D02*
X024328Y003906D01*
X025328Y003906D02*
X025328Y004506D01*
X026328Y004506D02*
X026328Y003906D01*
X027328Y003906D02*
X027328Y004506D01*
D11*
X025285Y015047D03*
X023505Y015047D03*
D12*
X023015Y014067D03*
X025775Y014067D03*
D13*
X002021Y014596D03*
X002021Y015974D03*
X002021Y013218D03*
X002021Y011840D03*
X002021Y010462D03*
X002021Y009084D03*
X002021Y007706D03*
X002021Y006328D03*
X002021Y004950D03*
X002021Y003572D03*
X002021Y002194D03*
X002021Y000817D03*
D14*
X021946Y007135D03*
X022943Y007628D03*
X021939Y008128D03*
X022946Y008628D03*
X021931Y009108D03*
X022946Y009620D03*
X021931Y010124D03*
X022946Y006631D03*
D15*
X020702Y005655D03*
X019691Y005647D03*
D16*
X021100Y006600D02*
X021100Y007100D01*
X022100Y007100D01*
X021100Y007100D02*
X021100Y009100D01*
X021100Y006600D02*
X023907Y005391D01*
X024328Y004206D01*
X022088Y002411D02*
X015832Y002411D01*
X014553Y003691D01*
X012754Y003691D01*
X012289Y003411D01*
X014553Y003691D02*
X014895Y004033D01*
X014895Y007002D01*
D17*
X021946Y007135D02*
X022100Y007100D01*
D18*
X021100Y009100D03*
X027600Y013600D03*
D19*
X014631Y002438D03*
D20*
X012289Y003411D03*
X018202Y006978D03*
X019746Y007069D03*
X019088Y005706D03*
X016592Y008112D03*
X018608Y008647D03*
X015848Y009746D03*
X015257Y010257D03*
X015848Y010730D03*
X015332Y011198D03*
X017257Y011218D03*
X017214Y011785D03*
X017096Y012722D03*
X018982Y012317D03*
X021037Y012124D03*
X021076Y013061D03*
X018281Y014730D03*
X014785Y015494D03*
X011242Y014352D03*
X010572Y014785D03*
X011124Y015218D03*
X010572Y015730D03*
X010742Y013702D03*
X011915Y011242D03*
X013313Y009533D03*
X022088Y002411D03*
D21*
X000501Y000360D02*
X000360Y000610D01*
X000360Y016375D01*
X001667Y016375D01*
X001568Y016277D01*
X001487Y016080D01*
X001487Y015868D01*
X001568Y015671D01*
X001719Y015521D01*
X001915Y015440D01*
X002128Y015440D01*
X002324Y015521D01*
X002474Y015671D01*
X002556Y015868D01*
X002556Y016080D01*
X002474Y016277D01*
X002375Y016375D01*
X028186Y016375D01*
X028186Y000360D01*
X002258Y000360D01*
X002291Y000377D01*
X002356Y000424D01*
X002414Y000481D01*
X002461Y000547D01*
X002498Y000619D01*
X002523Y000696D01*
X002533Y000758D01*
X002079Y000758D01*
X002079Y000875D01*
X001963Y000875D01*
X001963Y001328D01*
X001901Y001318D01*
X001824Y001293D01*
X001752Y001256D01*
X001686Y001209D01*
X001629Y001152D01*
X001581Y001086D01*
X001545Y001014D01*
X001520Y000937D01*
X001510Y000875D01*
X001963Y000875D01*
X001963Y000758D01*
X001510Y000758D01*
X001520Y000696D01*
X001545Y000619D01*
X001581Y000547D01*
X001629Y000481D01*
X001686Y000424D01*
X001752Y000377D01*
X001784Y000360D01*
X000501Y000360D01*
X000447Y000456D02*
X001655Y000456D01*
X001568Y000574D02*
X000380Y000574D01*
X000360Y000693D02*
X001521Y000693D01*
X001518Y000930D02*
X000360Y000930D01*
X000360Y001048D02*
X001562Y001048D01*
X001644Y001167D02*
X000360Y001167D01*
X000360Y001285D02*
X001808Y001285D01*
X001963Y001285D02*
X002079Y001285D01*
X002079Y001328D02*
X002079Y000875D01*
X002533Y000875D01*
X002523Y000937D01*
X002498Y001014D01*
X002461Y001086D01*
X002414Y001152D01*
X002356Y001209D01*
X002291Y001256D01*
X002219Y001293D01*
X002142Y001318D01*
X002079Y001328D01*
X002079Y001167D02*
X001963Y001167D01*
X001963Y001048D02*
X002079Y001048D01*
X002079Y000930D02*
X001963Y000930D01*
X001963Y000811D02*
X000360Y000811D01*
X000360Y001404D02*
X028186Y001404D01*
X028186Y001522D02*
X000360Y001522D01*
X000360Y001641D02*
X028186Y001641D01*
X028186Y001759D02*
X002341Y001759D01*
X002324Y001742D02*
X002474Y001892D01*
X002556Y002088D01*
X002556Y002301D01*
X002474Y002497D01*
X002324Y002647D01*
X002128Y002729D01*
X001915Y002729D01*
X001719Y002647D01*
X001568Y002497D01*
X001487Y002301D01*
X001487Y002088D01*
X001568Y001892D01*
X001719Y001742D01*
X001915Y001660D01*
X002128Y001660D01*
X002324Y001742D01*
X002460Y001878D02*
X028186Y001878D01*
X028186Y001996D02*
X002517Y001996D01*
X002556Y002115D02*
X015764Y002115D01*
X015773Y002111D02*
X021737Y002111D01*
X021816Y002033D01*
X022361Y002033D01*
X022466Y002138D01*
X022466Y002684D01*
X022361Y002789D01*
X021816Y002789D01*
X021737Y002711D01*
X015957Y002711D01*
X014977Y003691D01*
X015150Y003863D01*
X015195Y003973D01*
X015195Y006323D01*
X015302Y006430D01*
X015375Y006606D01*
X015375Y007397D01*
X015302Y007573D01*
X015167Y007708D01*
X014991Y007782D01*
X014800Y007782D01*
X014623Y007708D01*
X014488Y007573D01*
X014415Y007397D01*
X014415Y006606D01*
X014488Y006430D01*
X014595Y006323D01*
X014595Y004157D01*
X014428Y003991D01*
X012790Y003991D01*
X012768Y003996D01*
X012731Y003991D01*
X012694Y003991D01*
X012673Y003982D01*
X012650Y003978D01*
X012618Y003959D01*
X012584Y003945D01*
X012567Y003929D01*
X012335Y003789D01*
X012016Y003789D01*
X011911Y003684D01*
X011911Y003138D01*
X012016Y003033D01*
X012562Y003033D01*
X012667Y003138D01*
X012667Y003288D01*
X012837Y003391D01*
X014428Y003391D01*
X015662Y002157D01*
X015773Y002111D01*
X015586Y002233D02*
X002556Y002233D01*
X002535Y002352D02*
X015468Y002352D01*
X015349Y002470D02*
X002485Y002470D01*
X002383Y002589D02*
X004077Y002589D01*
X004067Y002596D02*
X004126Y002553D01*
X004190Y002520D01*
X004259Y002498D01*
X004331Y002486D01*
X004627Y002486D01*
X004627Y002906D01*
X004707Y002906D01*
X004707Y002486D01*
X005003Y002486D01*
X005075Y002498D01*
X005144Y002520D01*
X005208Y002553D01*
X005267Y002596D01*
X005318Y002647D01*
X005360Y002705D01*
X005393Y002770D01*
X005416Y002839D01*
X005426Y002906D01*
X004707Y002906D01*
X004707Y002986D01*
X005426Y002986D01*
X005416Y003054D01*
X005393Y003123D01*
X005360Y003188D01*
X005318Y003246D01*
X005267Y003297D01*
X005208Y003340D01*
X005144Y003373D01*
X005075Y003395D01*
X005003Y003406D01*
X004707Y003406D01*
X004707Y002986D01*
X004627Y002986D01*
X004627Y002906D01*
X003908Y002906D01*
X003918Y002839D01*
X003941Y002770D01*
X003974Y002705D01*
X004016Y002647D01*
X004067Y002596D01*
X003973Y002707D02*
X002180Y002707D01*
X001862Y002707D02*
X000360Y002707D01*
X000360Y002589D02*
X001660Y002589D01*
X001557Y002470D02*
X000360Y002470D01*
X000360Y002352D02*
X001508Y002352D01*
X001487Y002233D02*
X000360Y002233D01*
X000360Y002115D02*
X001487Y002115D01*
X001525Y001996D02*
X000360Y001996D01*
X000360Y001878D02*
X001583Y001878D01*
X001701Y001759D02*
X000360Y001759D01*
X000360Y002826D02*
X003923Y002826D01*
X003908Y002986D02*
X004627Y002986D01*
X004627Y003406D01*
X004331Y003406D01*
X004259Y003395D01*
X004190Y003373D01*
X004126Y003340D01*
X004067Y003297D01*
X004016Y003246D01*
X003974Y003188D01*
X003941Y003123D01*
X003918Y003054D01*
X003908Y002986D01*
X003921Y003063D02*
X002186Y003063D01*
X002128Y003038D02*
X002324Y003119D01*
X002474Y003270D01*
X002556Y003466D01*
X002556Y003679D01*
X002474Y003875D01*
X002324Y004025D01*
X002128Y004107D01*
X001915Y004107D01*
X001719Y004025D01*
X001568Y003875D01*
X001487Y003679D01*
X001487Y003466D01*
X001568Y003270D01*
X001719Y003119D01*
X001915Y003038D01*
X002128Y003038D01*
X001856Y003063D02*
X000360Y003063D01*
X000360Y003181D02*
X001657Y003181D01*
X001556Y003300D02*
X000360Y003300D01*
X000360Y003418D02*
X001507Y003418D01*
X001487Y003537D02*
X000360Y003537D01*
X000360Y003655D02*
X001487Y003655D01*
X001526Y003774D02*
X000360Y003774D01*
X000360Y003892D02*
X001585Y003892D01*
X001704Y004011D02*
X000360Y004011D01*
X000360Y004129D02*
X003923Y004129D01*
X003887Y004042D02*
X003887Y003851D01*
X003960Y003675D01*
X004095Y003540D01*
X004271Y003466D01*
X005062Y003466D01*
X005239Y003540D01*
X005374Y003675D01*
X005392Y003718D01*
X007195Y003718D01*
X007283Y003755D01*
X007351Y003822D01*
X008020Y004492D01*
X008057Y004580D01*
X008057Y012481D01*
X008073Y012498D01*
X013938Y012498D01*
X014073Y012363D01*
X014073Y010131D01*
X014109Y010043D01*
X014177Y009975D01*
X014610Y009542D01*
X014698Y009506D01*
X015470Y009506D01*
X015470Y009473D01*
X015575Y009368D01*
X016121Y009368D01*
X016226Y009473D01*
X016226Y010018D01*
X016121Y010124D01*
X015636Y010124D01*
X015636Y010352D01*
X016121Y010352D01*
X016226Y010457D01*
X016226Y010978D01*
X016879Y010978D01*
X016879Y010945D01*
X016985Y010840D01*
X017530Y010840D01*
X017636Y010945D01*
X017636Y011491D01*
X017595Y011531D01*
X019703Y011531D01*
X019838Y011666D01*
X020065Y011894D01*
X020659Y011894D01*
X020659Y011851D01*
X020764Y011746D01*
X021310Y011746D01*
X021415Y011851D01*
X021415Y012396D01*
X021310Y012502D01*
X020764Y012502D01*
X020659Y012396D01*
X020659Y012354D01*
X019875Y012354D01*
X019513Y011991D01*
X017592Y011991D01*
X017592Y012058D01*
X017487Y012163D01*
X016942Y012163D01*
X016836Y012058D01*
X016836Y011512D01*
X016879Y011469D01*
X016879Y011458D01*
X015710Y011458D01*
X015710Y011471D01*
X015605Y011577D01*
X015143Y011577D01*
X015143Y013100D01*
X015107Y013189D01*
X014910Y013386D01*
X014842Y013453D01*
X014754Y013490D01*
X007336Y013490D01*
X007248Y013453D01*
X006994Y013199D01*
X006994Y013977D01*
X007129Y014112D01*
X010864Y014112D01*
X010864Y014079D01*
X010969Y013974D01*
X011514Y013974D01*
X011620Y014079D01*
X011620Y014625D01*
X011514Y014730D01*
X010969Y014730D01*
X010951Y014712D01*
X010951Y014840D01*
X011396Y014840D01*
X011502Y014945D01*
X011502Y015491D01*
X011396Y015596D01*
X010951Y015596D01*
X010951Y015844D01*
X012993Y015844D01*
X013547Y015290D01*
X013635Y015254D01*
X014407Y015254D01*
X014407Y015221D01*
X014512Y015116D01*
X015058Y015116D01*
X015163Y015221D01*
X015163Y015766D01*
X015058Y015872D01*
X014512Y015872D01*
X014407Y015766D01*
X014407Y015734D01*
X013782Y015734D01*
X013296Y016220D01*
X013228Y016288D01*
X013140Y016324D01*
X004383Y016324D01*
X004295Y016288D01*
X003192Y015185D01*
X003125Y015118D01*
X003088Y015030D01*
X003088Y011971D01*
X003071Y011954D01*
X002552Y011954D01*
X002474Y012143D01*
X002324Y012293D01*
X002128Y012374D01*
X001915Y012374D01*
X001719Y012293D01*
X001568Y012143D01*
X001487Y011946D01*
X001487Y011734D01*
X001568Y011537D01*
X001719Y011387D01*
X001915Y011306D01*
X002128Y011306D01*
X002324Y011387D01*
X002411Y011474D01*
X003219Y011474D01*
X003307Y011511D01*
X003374Y011578D01*
X003532Y011736D01*
X003568Y011824D01*
X003568Y014882D01*
X004530Y015844D01*
X006371Y015844D01*
X005555Y015028D01*
X005487Y014960D01*
X005451Y014872D01*
X005451Y010315D01*
X005277Y010315D01*
X005239Y010353D01*
X005062Y010426D01*
X004271Y010426D01*
X004095Y010353D01*
X003960Y010218D01*
X003887Y010042D01*
X003887Y009851D01*
X003960Y009675D01*
X004095Y009540D01*
X004271Y009466D01*
X005062Y009466D01*
X005239Y009540D01*
X005374Y009675D01*
X005385Y009703D01*
X005502Y009703D01*
X005590Y009739D01*
X005658Y009807D01*
X005805Y009954D01*
X005805Y009727D01*
X005335Y009257D01*
X005239Y009353D01*
X005062Y009426D01*
X004271Y009426D01*
X004095Y009353D01*
X003960Y009218D01*
X003887Y009042D01*
X003887Y008851D01*
X003960Y008675D01*
X004095Y008540D01*
X004271Y008466D01*
X005062Y008466D01*
X005239Y008540D01*
X005374Y008675D01*
X005387Y008706D01*
X005412Y008706D01*
X005500Y008743D01*
X005567Y008811D01*
X006159Y009402D01*
X006159Y008861D01*
X005512Y008214D01*
X005376Y008214D01*
X005374Y008218D01*
X005239Y008353D01*
X005062Y008426D01*
X004271Y008426D01*
X004095Y008353D01*
X003960Y008218D01*
X003887Y008042D01*
X003887Y007851D01*
X003960Y007675D01*
X004095Y007540D01*
X004271Y007466D01*
X005062Y007466D01*
X005239Y007540D01*
X005374Y007675D01*
X005398Y007734D01*
X005660Y007734D01*
X005748Y007771D01*
X005815Y007838D01*
X006514Y008536D01*
X006514Y007758D01*
X005985Y007230D01*
X005362Y007230D01*
X005239Y007353D01*
X005062Y007426D01*
X004271Y007426D01*
X004095Y007353D01*
X003960Y007218D01*
X003887Y007042D01*
X003887Y006851D01*
X003960Y006675D01*
X004095Y006540D01*
X004271Y006466D01*
X005062Y006466D01*
X005239Y006540D01*
X005374Y006675D01*
X005405Y006750D01*
X006132Y006750D01*
X006220Y006786D01*
X006288Y006854D01*
X006829Y007395D01*
X006829Y006695D01*
X006339Y006206D01*
X005379Y006206D01*
X005374Y006218D01*
X005239Y006353D01*
X005062Y006426D01*
X004271Y006426D01*
X004095Y006353D01*
X003960Y006218D01*
X003887Y006042D01*
X003887Y005851D01*
X003960Y005675D01*
X004095Y005540D01*
X004271Y005466D01*
X005062Y005466D01*
X005239Y005540D01*
X005374Y005675D01*
X005395Y005726D01*
X006486Y005726D01*
X006575Y005763D01*
X006642Y005830D01*
X007183Y006371D01*
X007183Y005475D01*
X006969Y005261D01*
X005331Y005261D01*
X005239Y005353D01*
X005062Y005426D01*
X004271Y005426D01*
X004095Y005353D01*
X003960Y005218D01*
X003887Y005042D01*
X003887Y004851D01*
X003960Y004675D01*
X004095Y004540D01*
X004271Y004466D01*
X005062Y004466D01*
X005239Y004540D01*
X005374Y004675D01*
X005418Y004781D01*
X007116Y004781D01*
X007204Y004818D01*
X007272Y004885D01*
X007577Y005190D01*
X007577Y004727D01*
X007048Y004198D01*
X005382Y004198D01*
X005374Y004218D01*
X005239Y004353D01*
X005062Y004426D01*
X004271Y004426D01*
X004095Y004353D01*
X003960Y004218D01*
X003887Y004042D01*
X003887Y004011D02*
X002339Y004011D01*
X002457Y003892D02*
X003887Y003892D01*
X003919Y003774D02*
X002516Y003774D01*
X002556Y003655D02*
X003980Y003655D01*
X004102Y003537D02*
X002556Y003537D01*
X002536Y003418D02*
X011911Y003418D01*
X011911Y003300D02*
X005264Y003300D01*
X005364Y003181D02*
X011911Y003181D01*
X011987Y003063D02*
X005413Y003063D01*
X005411Y002826D02*
X014994Y002826D01*
X014875Y002944D02*
X004707Y002944D01*
X004627Y002944D02*
X000360Y002944D01*
X002385Y003181D02*
X003970Y003181D01*
X004070Y003300D02*
X002487Y003300D01*
X003989Y004248D02*
X000360Y004248D01*
X000360Y004366D02*
X004126Y004366D01*
X004228Y004485D02*
X002293Y004485D01*
X002324Y004497D02*
X002474Y004648D01*
X002556Y004844D01*
X002556Y005057D01*
X002474Y005253D01*
X002324Y005403D01*
X002128Y005485D01*
X001915Y005485D01*
X001719Y005403D01*
X001568Y005253D01*
X001487Y005057D01*
X001487Y004844D01*
X001568Y004648D01*
X001719Y004497D01*
X001915Y004416D01*
X002128Y004416D01*
X002324Y004497D01*
X002430Y004603D02*
X004032Y004603D01*
X003941Y004722D02*
X002505Y004722D01*
X002554Y004840D02*
X003891Y004840D01*
X003887Y004959D02*
X002556Y004959D01*
X002547Y005077D02*
X003901Y005077D01*
X003951Y005196D02*
X002498Y005196D01*
X002413Y005314D02*
X004056Y005314D01*
X004084Y005551D02*
X000360Y005551D01*
X000360Y005433D02*
X001789Y005433D01*
X001629Y005314D02*
X000360Y005314D01*
X000360Y005196D02*
X001544Y005196D01*
X001495Y005077D02*
X000360Y005077D01*
X000360Y004959D02*
X001487Y004959D01*
X001489Y004840D02*
X000360Y004840D01*
X000360Y004722D02*
X001538Y004722D01*
X001613Y004603D02*
X000360Y004603D01*
X000360Y004485D02*
X001750Y004485D01*
X002254Y005433D02*
X007140Y005433D01*
X007183Y005551D02*
X005250Y005551D01*
X005369Y005670D02*
X007183Y005670D01*
X007183Y005788D02*
X006600Y005788D01*
X006718Y005907D02*
X007183Y005907D01*
X007183Y006025D02*
X006837Y006025D01*
X006955Y006144D02*
X007183Y006144D01*
X007183Y006262D02*
X007074Y006262D01*
X006632Y006499D02*
X005141Y006499D01*
X005173Y006381D02*
X006514Y006381D01*
X006395Y006262D02*
X005330Y006262D01*
X005317Y006618D02*
X006751Y006618D01*
X006829Y006736D02*
X005399Y006736D01*
X006084Y006990D02*
X004710Y006990D01*
X004667Y006946D01*
X005264Y007329D02*
X006084Y007329D01*
X006202Y007447D02*
X002492Y007447D01*
X002474Y007404D02*
X002556Y007600D01*
X002556Y007813D01*
X002474Y008009D01*
X002324Y008159D01*
X002128Y008241D01*
X001915Y008241D01*
X001719Y008159D01*
X001568Y008009D01*
X001487Y007813D01*
X001487Y007600D01*
X001568Y007404D01*
X001719Y007253D01*
X001915Y007172D01*
X002128Y007172D01*
X002324Y007253D01*
X002474Y007404D01*
X002399Y007329D02*
X004070Y007329D01*
X003957Y007210D02*
X002219Y007210D01*
X001823Y007210D02*
X000360Y007210D01*
X000360Y007092D02*
X003907Y007092D01*
X003887Y006973D02*
X000360Y006973D01*
X000360Y006855D02*
X001895Y006855D01*
X001915Y006863D02*
X001719Y006781D01*
X001568Y006631D01*
X001487Y006435D01*
X001487Y006222D01*
X001568Y006026D01*
X001719Y005875D01*
X001915Y005794D01*
X002128Y005794D01*
X002324Y005875D01*
X002474Y006026D01*
X002556Y006222D01*
X002556Y006435D01*
X002474Y006631D01*
X002324Y006781D01*
X002128Y006863D01*
X001915Y006863D01*
X002147Y006855D02*
X003887Y006855D01*
X003935Y006736D02*
X002369Y006736D01*
X002480Y006618D02*
X004017Y006618D01*
X004193Y006499D02*
X002529Y006499D01*
X002556Y006381D02*
X004161Y006381D01*
X004004Y006262D02*
X002556Y006262D01*
X002523Y006144D02*
X003929Y006144D01*
X003887Y006025D02*
X002474Y006025D01*
X002355Y005907D02*
X003887Y005907D01*
X003913Y005788D02*
X000360Y005788D01*
X000360Y005670D02*
X003965Y005670D01*
X004667Y005946D02*
X004687Y005966D01*
X006439Y005966D01*
X007069Y006596D01*
X007069Y012935D01*
X007383Y013250D01*
X014706Y013250D01*
X014903Y013053D01*
X014903Y010927D01*
X015100Y010730D01*
X015848Y010730D01*
X016226Y010765D02*
X024537Y010765D01*
X024537Y010808D02*
X024537Y010447D01*
X024675Y010112D01*
X024931Y009856D01*
X025266Y009718D01*
X025627Y009718D01*
X025962Y009856D01*
X026218Y010112D01*
X026356Y010447D01*
X026356Y010808D01*
X026218Y011143D01*
X025962Y011399D01*
X025627Y011537D01*
X025266Y011537D01*
X024931Y011399D01*
X024675Y011143D01*
X024537Y010808D01*
X024568Y010884D02*
X017574Y010884D01*
X017636Y011002D02*
X024617Y011002D01*
X024666Y011121D02*
X017636Y011121D01*
X017636Y011239D02*
X024772Y011239D01*
X024890Y011358D02*
X017636Y011358D01*
X017636Y011476D02*
X025118Y011476D01*
X025775Y011476D02*
X028186Y011476D01*
X028186Y011358D02*
X026003Y011358D01*
X026121Y011239D02*
X028186Y011239D01*
X028186Y011121D02*
X026227Y011121D01*
X026276Y011002D02*
X028186Y011002D01*
X028186Y010884D02*
X026325Y010884D01*
X026356Y010765D02*
X028186Y010765D01*
X028186Y010647D02*
X026356Y010647D01*
X026356Y010528D02*
X028186Y010528D01*
X028186Y010410D02*
X026341Y010410D01*
X026292Y010291D02*
X028186Y010291D01*
X028186Y010173D02*
X026243Y010173D01*
X026159Y010054D02*
X028186Y010054D01*
X028186Y009936D02*
X026041Y009936D01*
X025867Y009817D02*
X028186Y009817D01*
X028186Y009699D02*
X023384Y009699D01*
X023384Y009648D02*
X023384Y009918D01*
X023373Y009959D01*
X023352Y009995D01*
X023322Y010025D01*
X023285Y010046D01*
X023245Y010057D01*
X022975Y010057D01*
X022975Y009648D01*
X023384Y009648D01*
X023384Y009591D02*
X022975Y009591D01*
X022975Y009183D01*
X023245Y009183D01*
X023285Y009193D01*
X023322Y009214D01*
X023352Y009244D01*
X023373Y009281D01*
X023384Y009321D01*
X023384Y009591D01*
X023384Y009580D02*
X028186Y009580D01*
X028186Y009462D02*
X023384Y009462D01*
X023384Y009343D02*
X028186Y009343D01*
X028186Y009225D02*
X023332Y009225D01*
X023298Y009085D02*
X023404Y008979D01*
X023404Y008276D01*
X023298Y008170D01*
X022595Y008170D01*
X022489Y008276D01*
X022489Y008979D01*
X022595Y009085D01*
X023298Y009085D01*
X023395Y008988D02*
X028186Y008988D01*
X028186Y009106D02*
X021959Y009106D01*
X021959Y009079D02*
X021959Y009136D01*
X022368Y009136D01*
X022368Y009406D01*
X022357Y009447D01*
X022336Y009483D01*
X022306Y009513D01*
X022270Y009534D01*
X022229Y009545D01*
X021959Y009545D01*
X021959Y009136D01*
X021902Y009136D01*
X021902Y009079D01*
X021959Y009079D01*
X021959Y008671D01*
X022229Y008671D01*
X022270Y008682D01*
X022306Y008703D01*
X022336Y008732D01*
X022357Y008769D01*
X022368Y008810D01*
X022368Y009079D01*
X021959Y009079D01*
X021902Y009079D02*
X021902Y008671D01*
X021632Y008671D01*
X021592Y008682D01*
X021555Y008703D01*
X021526Y008732D01*
X021504Y008769D01*
X021494Y008810D01*
X021494Y009079D01*
X021902Y009079D01*
X021902Y009106D02*
X021478Y009106D01*
X021494Y009136D02*
X021494Y009406D01*
X021504Y009447D01*
X021526Y009483D01*
X021555Y009513D01*
X021592Y009534D01*
X021632Y009545D01*
X021902Y009545D01*
X021902Y009136D01*
X021494Y009136D01*
X021478Y009175D02*
X021421Y009314D01*
X021314Y009421D01*
X021175Y009478D01*
X021025Y009478D01*
X020886Y009421D01*
X020779Y009314D01*
X020722Y009175D01*
X020722Y009025D01*
X020779Y008886D01*
X020800Y008865D01*
X020800Y006602D01*
X020799Y006544D01*
X020800Y006542D01*
X020800Y006540D01*
X020822Y006487D01*
X020843Y006434D01*
X020845Y006432D01*
X020846Y006430D01*
X020886Y006389D01*
X020927Y006348D01*
X020929Y006347D01*
X020930Y006346D01*
X020983Y006324D01*
X023668Y005168D01*
X023860Y004629D01*
X023848Y004602D01*
X023848Y003811D01*
X023921Y003634D01*
X024056Y003499D01*
X024233Y003426D01*
X024424Y003426D01*
X024600Y003499D01*
X024735Y003634D01*
X024808Y003811D01*
X024808Y004602D01*
X024735Y004778D01*
X024600Y004913D01*
X024424Y004986D01*
X024369Y004986D01*
X024208Y005441D01*
X024208Y005447D01*
X024188Y005497D01*
X024170Y005548D01*
X024166Y005552D01*
X024164Y005558D01*
X024126Y005596D01*
X024090Y005637D01*
X024085Y005639D01*
X024081Y005643D01*
X024031Y005665D01*
X023982Y005688D01*
X023976Y005688D01*
X022847Y006174D01*
X023298Y006174D01*
X023404Y006280D01*
X023404Y006983D01*
X023298Y007089D01*
X022595Y007089D01*
X022489Y006983D01*
X022489Y006328D01*
X021677Y006678D01*
X022298Y006678D01*
X022404Y006784D01*
X022404Y007487D01*
X022298Y007593D01*
X021595Y007593D01*
X021489Y007487D01*
X021489Y007400D01*
X021400Y007400D01*
X021400Y008865D01*
X021421Y008886D01*
X021478Y009025D01*
X021478Y009175D01*
X021494Y009225D02*
X021458Y009225D01*
X021494Y009343D02*
X021392Y009343D01*
X021513Y009462D02*
X021215Y009462D01*
X020985Y009462D02*
X016215Y009462D01*
X016226Y009580D02*
X022509Y009580D01*
X022509Y009591D02*
X022509Y009321D01*
X022520Y009281D01*
X022541Y009244D01*
X022571Y009214D01*
X022608Y009193D01*
X022648Y009183D01*
X022918Y009183D01*
X022918Y009591D01*
X022975Y009591D01*
X022975Y009648D01*
X022918Y009648D01*
X022918Y009591D01*
X022509Y009591D01*
X022509Y009648D02*
X022509Y009918D01*
X022520Y009959D01*
X022541Y009995D01*
X022571Y010025D01*
X022608Y010046D01*
X022648Y010057D01*
X022918Y010057D01*
X022918Y009648D01*
X022509Y009648D01*
X022509Y009699D02*
X022272Y009699D01*
X022270Y009697D02*
X022306Y009718D01*
X022336Y009748D01*
X022357Y009785D01*
X022368Y009825D01*
X022368Y010095D01*
X021959Y010095D01*
X021959Y009686D01*
X022229Y009686D01*
X022270Y009697D01*
X022366Y009817D02*
X022509Y009817D01*
X022514Y009936D02*
X022368Y009936D01*
X022368Y010054D02*
X022638Y010054D01*
X022918Y010054D02*
X022975Y010054D01*
X022975Y009936D02*
X022918Y009936D01*
X022918Y009817D02*
X022975Y009817D01*
X022975Y009699D02*
X022918Y009699D01*
X022918Y009580D02*
X022975Y009580D01*
X022975Y009462D02*
X022918Y009462D01*
X022918Y009343D02*
X022975Y009343D01*
X022975Y009225D02*
X022918Y009225D01*
X022561Y009225D02*
X022368Y009225D01*
X022368Y009343D02*
X022509Y009343D01*
X022509Y009462D02*
X022348Y009462D01*
X021959Y009462D02*
X021902Y009462D01*
X021902Y009343D02*
X021959Y009343D01*
X021959Y009225D02*
X021902Y009225D01*
X021902Y008988D02*
X021959Y008988D01*
X021959Y008869D02*
X021902Y008869D01*
X021902Y008751D02*
X021959Y008751D01*
X022290Y008585D02*
X021587Y008585D01*
X021481Y008479D01*
X021481Y007776D01*
X021587Y007670D01*
X022290Y007670D01*
X022396Y007776D01*
X022396Y008479D01*
X022290Y008585D01*
X022362Y008514D02*
X022489Y008514D01*
X022489Y008632D02*
X021400Y008632D01*
X021400Y008514D02*
X021516Y008514D01*
X021481Y008395D02*
X021400Y008395D01*
X021400Y008277D02*
X021481Y008277D01*
X021481Y008158D02*
X021400Y008158D01*
X021400Y008040D02*
X021481Y008040D01*
X021481Y007921D02*
X021400Y007921D01*
X021400Y007803D02*
X021481Y007803D01*
X021400Y007684D02*
X021573Y007684D01*
X021568Y007566D02*
X021400Y007566D01*
X021400Y007447D02*
X021489Y007447D01*
X020800Y007447D02*
X016355Y007447D01*
X016375Y007397D02*
X016302Y007573D01*
X016167Y007708D01*
X015991Y007782D01*
X015800Y007782D01*
X015623Y007708D01*
X015488Y007573D01*
X015415Y007397D01*
X015415Y006606D01*
X015488Y006430D01*
X015623Y006295D01*
X015800Y006222D01*
X015991Y006222D01*
X016167Y006295D01*
X016302Y006430D01*
X016375Y006606D01*
X016375Y007397D01*
X016375Y007329D02*
X020800Y007329D01*
X020800Y007210D02*
X016375Y007210D01*
X016375Y007092D02*
X020800Y007092D01*
X020800Y006973D02*
X016375Y006973D01*
X016375Y006855D02*
X020800Y006855D01*
X020800Y006736D02*
X016375Y006736D01*
X016375Y006618D02*
X020800Y006618D01*
X020817Y006499D02*
X016331Y006499D01*
X016253Y006381D02*
X020895Y006381D01*
X021126Y006262D02*
X016088Y006262D01*
X015702Y006262D02*
X015195Y006262D01*
X015195Y006144D02*
X020491Y006144D01*
X020497Y006150D02*
X020207Y005860D01*
X020207Y005450D01*
X020497Y005160D01*
X020907Y005160D01*
X021197Y005450D01*
X021197Y005860D01*
X020907Y006150D01*
X020497Y006150D01*
X020372Y006025D02*
X020013Y006025D01*
X019896Y006142D02*
X019486Y006142D01*
X019196Y005852D01*
X019196Y005500D01*
X019011Y005315D01*
X017011Y005315D01*
X016885Y005189D01*
X016126Y004430D01*
X016034Y004430D01*
X015913Y004380D01*
X015820Y004287D01*
X015770Y004166D01*
X015770Y004034D01*
X015820Y003913D01*
X015913Y003820D01*
X016034Y003770D01*
X016166Y003770D01*
X016287Y003820D01*
X016380Y003913D01*
X016430Y004034D01*
X016430Y004126D01*
X017189Y004885D01*
X019189Y004885D01*
X019471Y005167D01*
X019486Y005152D01*
X019896Y005152D01*
X020186Y005442D01*
X020186Y005852D01*
X019896Y006142D01*
X020131Y005907D02*
X020254Y005907D01*
X020207Y005788D02*
X020186Y005788D01*
X020186Y005670D02*
X020207Y005670D01*
X020207Y005551D02*
X020186Y005551D01*
X020176Y005433D02*
X020225Y005433D01*
X020343Y005314D02*
X020057Y005314D01*
X019939Y005196D02*
X020462Y005196D01*
X020943Y005196D02*
X023603Y005196D01*
X023700Y005077D02*
X019381Y005077D01*
X019263Y004959D02*
X023743Y004959D01*
X023785Y004840D02*
X017144Y004840D01*
X017026Y004722D02*
X023827Y004722D01*
X023849Y004603D02*
X016907Y004603D01*
X016789Y004485D02*
X023848Y004485D01*
X023848Y004366D02*
X016670Y004366D01*
X016552Y004248D02*
X023848Y004248D01*
X023848Y004129D02*
X016433Y004129D01*
X016420Y004011D02*
X023848Y004011D01*
X023848Y003892D02*
X016359Y003892D01*
X016174Y003774D02*
X023864Y003774D01*
X023913Y003655D02*
X015013Y003655D01*
X015060Y003774D02*
X016026Y003774D01*
X015841Y003892D02*
X015162Y003892D01*
X015195Y004011D02*
X015780Y004011D01*
X015770Y004129D02*
X015195Y004129D01*
X015195Y004248D02*
X015804Y004248D01*
X015899Y004366D02*
X015195Y004366D01*
X015195Y004485D02*
X016180Y004485D01*
X016299Y004603D02*
X015195Y004603D01*
X015195Y004722D02*
X016417Y004722D01*
X016536Y004840D02*
X015195Y004840D01*
X015195Y004959D02*
X016654Y004959D01*
X016773Y005077D02*
X015195Y005077D01*
X015195Y005196D02*
X016891Y005196D01*
X017010Y005314D02*
X015195Y005314D01*
X015195Y005433D02*
X019128Y005433D01*
X019196Y005551D02*
X015195Y005551D01*
X015195Y005670D02*
X019196Y005670D01*
X019196Y005788D02*
X015195Y005788D01*
X015195Y005907D02*
X019250Y005907D01*
X019368Y006025D02*
X015195Y006025D01*
X014595Y006025D02*
X008057Y006025D01*
X008057Y005907D02*
X014595Y005907D01*
X014595Y005788D02*
X008057Y005788D01*
X008057Y005670D02*
X014595Y005670D01*
X014595Y005551D02*
X008057Y005551D01*
X008057Y005433D02*
X014595Y005433D01*
X014595Y005314D02*
X008057Y005314D01*
X008057Y005196D02*
X014595Y005196D01*
X014595Y005077D02*
X008057Y005077D01*
X008057Y004959D02*
X014595Y004959D01*
X014595Y004840D02*
X008057Y004840D01*
X008057Y004722D02*
X014595Y004722D01*
X014595Y004603D02*
X008057Y004603D01*
X008013Y004485D02*
X014595Y004485D01*
X014595Y004366D02*
X007894Y004366D01*
X007776Y004248D02*
X014595Y004248D01*
X014567Y004129D02*
X007657Y004129D01*
X007539Y004011D02*
X014448Y004011D01*
X015131Y003537D02*
X024019Y003537D01*
X024637Y003537D02*
X025019Y003537D01*
X025056Y003499D02*
X024921Y003634D01*
X024848Y003811D01*
X024848Y004602D01*
X024921Y004778D01*
X025056Y004913D01*
X025233Y004986D01*
X025424Y004986D01*
X025600Y004913D01*
X025735Y004778D01*
X025808Y004602D01*
X025808Y003811D01*
X025735Y003634D01*
X025600Y003499D01*
X025424Y003426D01*
X025233Y003426D01*
X025056Y003499D01*
X024913Y003655D02*
X024744Y003655D01*
X024793Y003774D02*
X024864Y003774D01*
X024848Y003892D02*
X024808Y003892D01*
X024808Y004011D02*
X024848Y004011D01*
X024848Y004129D02*
X024808Y004129D01*
X024808Y004248D02*
X024848Y004248D01*
X024848Y004366D02*
X024808Y004366D01*
X024808Y004485D02*
X024848Y004485D01*
X024849Y004603D02*
X024808Y004603D01*
X024759Y004722D02*
X024898Y004722D01*
X024983Y004840D02*
X024673Y004840D01*
X024491Y004959D02*
X025166Y004959D01*
X025491Y004959D02*
X026166Y004959D01*
X026233Y004986D02*
X026056Y004913D01*
X025921Y004778D01*
X025848Y004602D01*
X025848Y003811D01*
X025921Y003634D01*
X026056Y003499D01*
X026233Y003426D01*
X026424Y003426D01*
X026600Y003499D01*
X026735Y003634D01*
X026808Y003811D01*
X026808Y004602D01*
X026735Y004778D01*
X026600Y004913D01*
X026424Y004986D01*
X026233Y004986D01*
X026491Y004959D02*
X027243Y004959D01*
X027221Y004955D02*
X027152Y004933D01*
X027087Y004900D01*
X027029Y004857D01*
X026977Y004806D01*
X026935Y004747D01*
X026902Y004683D01*
X026880Y004614D01*
X026868Y004543D01*
X026868Y004246D01*
X027288Y004246D01*
X027288Y004166D01*
X026868Y004166D01*
X026868Y003870D01*
X026880Y003799D01*
X026902Y003730D01*
X026935Y003665D01*
X026977Y003607D01*
X027029Y003555D01*
X027087Y003513D01*
X027152Y003480D01*
X027221Y003458D01*
X027288Y003447D01*
X027288Y004166D01*
X027368Y004166D01*
X027368Y003447D01*
X027436Y003458D01*
X027505Y003480D01*
X027569Y003513D01*
X027628Y003555D01*
X027679Y003607D01*
X027722Y003665D01*
X027755Y003730D01*
X027777Y003799D01*
X027788Y003870D01*
X027788Y004166D01*
X027368Y004166D01*
X027368Y004246D01*
X027788Y004246D01*
X027788Y004543D01*
X027777Y004614D01*
X027755Y004683D01*
X027722Y004747D01*
X027679Y004806D01*
X027628Y004857D01*
X027569Y004900D01*
X027505Y004933D01*
X027436Y004955D01*
X027368Y004966D01*
X027368Y004246D01*
X027288Y004246D01*
X027288Y004966D01*
X027221Y004955D01*
X027288Y004959D02*
X027368Y004959D01*
X027414Y004959D02*
X028186Y004959D01*
X028186Y005077D02*
X024337Y005077D01*
X024295Y005196D02*
X028186Y005196D01*
X028186Y005314D02*
X025831Y005314D01*
X025962Y005368D02*
X026218Y005624D01*
X026356Y005958D01*
X026356Y006320D01*
X026218Y006655D01*
X025962Y006910D01*
X025627Y007049D01*
X025266Y007049D01*
X024931Y006910D01*
X024675Y006655D01*
X024537Y006320D01*
X024537Y005958D01*
X024675Y005624D01*
X024931Y005368D01*
X025266Y005230D01*
X025627Y005230D01*
X025962Y005368D01*
X026026Y005433D02*
X028186Y005433D01*
X028186Y005551D02*
X026144Y005551D01*
X026236Y005670D02*
X028186Y005670D01*
X028186Y005788D02*
X026285Y005788D01*
X026335Y005907D02*
X028186Y005907D01*
X028186Y006025D02*
X026356Y006025D01*
X026356Y006144D02*
X028186Y006144D01*
X028186Y006262D02*
X026356Y006262D01*
X026331Y006381D02*
X028186Y006381D01*
X028186Y006499D02*
X026282Y006499D01*
X026233Y006618D02*
X028186Y006618D01*
X028186Y006736D02*
X026136Y006736D01*
X026018Y006855D02*
X028186Y006855D01*
X028186Y006973D02*
X025811Y006973D01*
X025082Y006973D02*
X023404Y006973D01*
X023404Y006855D02*
X024875Y006855D01*
X024757Y006736D02*
X023404Y006736D01*
X023404Y006618D02*
X024660Y006618D01*
X024611Y006499D02*
X023404Y006499D01*
X023404Y006381D02*
X024562Y006381D01*
X024537Y006262D02*
X023386Y006262D01*
X022919Y006144D02*
X024537Y006144D01*
X024537Y006025D02*
X023194Y006025D01*
X023469Y005907D02*
X024558Y005907D01*
X024607Y005788D02*
X023744Y005788D01*
X024021Y005670D02*
X024657Y005670D01*
X024748Y005551D02*
X024167Y005551D01*
X024211Y005433D02*
X024867Y005433D01*
X025062Y005314D02*
X024253Y005314D01*
X023328Y005314D02*
X021061Y005314D01*
X021180Y005433D02*
X023053Y005433D01*
X022778Y005551D02*
X021197Y005551D01*
X021197Y005670D02*
X022502Y005670D01*
X022227Y005788D02*
X021197Y005788D01*
X021151Y005907D02*
X021952Y005907D01*
X021677Y006025D02*
X021033Y006025D01*
X020914Y006144D02*
X021402Y006144D01*
X021818Y006618D02*
X022489Y006618D01*
X022489Y006736D02*
X022356Y006736D01*
X022404Y006855D02*
X022489Y006855D01*
X022489Y006973D02*
X022404Y006973D01*
X022404Y007092D02*
X028186Y007092D01*
X028186Y007210D02*
X023334Y007210D01*
X023294Y007170D02*
X023400Y007276D01*
X023400Y007979D01*
X023294Y008085D01*
X022591Y008085D01*
X022485Y007979D01*
X022485Y007276D01*
X022591Y007170D01*
X023294Y007170D01*
X023400Y007329D02*
X028186Y007329D01*
X028186Y007447D02*
X023400Y007447D01*
X023400Y007566D02*
X028186Y007566D01*
X028186Y007684D02*
X023400Y007684D01*
X023400Y007803D02*
X028186Y007803D01*
X028186Y007921D02*
X023400Y007921D01*
X023339Y008040D02*
X028186Y008040D01*
X028186Y008158D02*
X022396Y008158D01*
X022396Y008040D02*
X022546Y008040D01*
X022485Y007921D02*
X022396Y007921D01*
X022396Y007803D02*
X022485Y007803D01*
X022485Y007684D02*
X022304Y007684D01*
X022325Y007566D02*
X022485Y007566D01*
X022485Y007447D02*
X022404Y007447D01*
X022404Y007329D02*
X022485Y007329D01*
X022551Y007210D02*
X022404Y007210D01*
X022489Y006499D02*
X022093Y006499D01*
X022368Y006381D02*
X022489Y006381D01*
X020800Y007566D02*
X016305Y007566D01*
X016192Y007684D02*
X020800Y007684D01*
X020800Y007803D02*
X016934Y007803D01*
X016970Y007839D02*
X016970Y008384D01*
X016947Y008407D01*
X018230Y008407D01*
X018230Y008375D01*
X018335Y008269D01*
X018881Y008269D01*
X018986Y008375D01*
X018986Y008920D01*
X018881Y009025D01*
X018335Y009025D01*
X018230Y008920D01*
X018230Y008887D01*
X014298Y008887D01*
X013691Y009494D01*
X013691Y009806D01*
X013585Y009911D01*
X013040Y009911D01*
X012934Y009806D01*
X012934Y009260D01*
X013040Y009155D01*
X013351Y009155D01*
X014062Y008444D01*
X014151Y008407D01*
X016237Y008407D01*
X016214Y008384D01*
X016214Y008352D01*
X012550Y008352D01*
X012112Y008790D01*
X012112Y010864D01*
X012188Y010864D01*
X012293Y010969D01*
X012293Y011514D01*
X012188Y011620D01*
X011642Y011620D01*
X011537Y011514D01*
X011537Y010969D01*
X011632Y010874D01*
X011632Y008643D01*
X011668Y008555D01*
X011736Y008487D01*
X012314Y007908D01*
X012403Y007872D01*
X016214Y007872D01*
X016214Y007839D01*
X016319Y007734D01*
X016865Y007734D01*
X016970Y007839D01*
X016970Y007921D02*
X020800Y007921D01*
X020800Y008040D02*
X016970Y008040D01*
X016970Y008158D02*
X020800Y008158D01*
X020800Y008277D02*
X018888Y008277D01*
X018986Y008395D02*
X020800Y008395D01*
X020800Y008514D02*
X018986Y008514D01*
X018986Y008632D02*
X020800Y008632D01*
X020800Y008751D02*
X018986Y008751D01*
X018986Y008869D02*
X020796Y008869D01*
X020737Y008988D02*
X018918Y008988D01*
X018608Y008647D02*
X014198Y008647D01*
X013313Y009533D01*
X013691Y009580D02*
X014572Y009580D01*
X014453Y009699D02*
X013691Y009699D01*
X013679Y009817D02*
X014335Y009817D01*
X014216Y009936D02*
X012112Y009936D01*
X012112Y010054D02*
X014104Y010054D01*
X014073Y010173D02*
X012112Y010173D01*
X012112Y010291D02*
X014073Y010291D01*
X014073Y010410D02*
X012112Y010410D01*
X012112Y010528D02*
X014073Y010528D01*
X014073Y010647D02*
X012112Y010647D01*
X012112Y010765D02*
X014073Y010765D01*
X014073Y010884D02*
X012208Y010884D01*
X012293Y011002D02*
X014073Y011002D01*
X014073Y011121D02*
X012293Y011121D01*
X012293Y011239D02*
X014073Y011239D01*
X014073Y011358D02*
X012293Y011358D01*
X012293Y011476D02*
X014073Y011476D01*
X014073Y011595D02*
X012213Y011595D01*
X011915Y011242D02*
X011872Y011198D01*
X011872Y008691D01*
X012450Y008112D01*
X016592Y008112D01*
X016970Y008277D02*
X018328Y008277D01*
X018230Y008395D02*
X016960Y008395D01*
X016225Y008395D02*
X012507Y008395D01*
X012388Y008514D02*
X013993Y008514D01*
X013874Y008632D02*
X012270Y008632D01*
X012151Y008751D02*
X013756Y008751D01*
X013637Y008869D02*
X012112Y008869D01*
X012112Y008988D02*
X013519Y008988D01*
X013400Y009106D02*
X012112Y009106D01*
X012112Y009225D02*
X012970Y009225D01*
X012934Y009343D02*
X012112Y009343D01*
X012112Y009462D02*
X012934Y009462D01*
X012934Y009580D02*
X012112Y009580D01*
X012112Y009699D02*
X012934Y009699D01*
X012946Y009817D02*
X012112Y009817D01*
X011632Y009817D02*
X008057Y009817D01*
X008057Y009699D02*
X011632Y009699D01*
X011632Y009580D02*
X008057Y009580D01*
X008057Y009462D02*
X011632Y009462D01*
X011632Y009343D02*
X008057Y009343D01*
X008057Y009225D02*
X011632Y009225D01*
X011632Y009106D02*
X008057Y009106D01*
X008057Y008988D02*
X011632Y008988D01*
X011632Y008869D02*
X008057Y008869D01*
X008057Y008751D02*
X011632Y008751D01*
X011636Y008632D02*
X008057Y008632D01*
X008057Y008514D02*
X011709Y008514D01*
X011828Y008395D02*
X008057Y008395D01*
X008057Y008277D02*
X011946Y008277D01*
X012065Y008158D02*
X008057Y008158D01*
X008057Y008040D02*
X012183Y008040D01*
X012302Y007921D02*
X008057Y007921D01*
X008057Y007803D02*
X016251Y007803D01*
X015599Y007684D02*
X015192Y007684D01*
X015305Y007566D02*
X015485Y007566D01*
X015436Y007447D02*
X015355Y007447D01*
X015375Y007329D02*
X015415Y007329D01*
X015415Y007210D02*
X015375Y007210D01*
X015375Y007092D02*
X015415Y007092D01*
X015415Y006973D02*
X015375Y006973D01*
X015375Y006855D02*
X015415Y006855D01*
X015415Y006736D02*
X015375Y006736D01*
X015375Y006618D02*
X015415Y006618D01*
X015460Y006499D02*
X015331Y006499D01*
X015253Y006381D02*
X015538Y006381D01*
X014595Y006262D02*
X014031Y006262D01*
X014003Y006253D02*
X014072Y006275D01*
X014136Y006308D01*
X014195Y006351D01*
X014246Y006402D01*
X014289Y006460D01*
X014322Y006525D01*
X014344Y006594D01*
X014355Y006665D01*
X014355Y006962D01*
X013935Y006962D01*
X013935Y007042D01*
X013855Y007042D01*
X013855Y007761D01*
X013788Y007750D01*
X013719Y007728D01*
X013654Y007695D01*
X013596Y007652D01*
X013544Y007601D01*
X013502Y007543D01*
X013469Y007478D01*
X013447Y007409D01*
X013435Y007338D01*
X013435Y007042D01*
X013855Y007042D01*
X013855Y006962D01*
X013435Y006962D01*
X013435Y006665D01*
X013447Y006594D01*
X013469Y006525D01*
X013502Y006460D01*
X013544Y006402D01*
X013596Y006351D01*
X013654Y006308D01*
X013719Y006275D01*
X013788Y006253D01*
X013855Y006242D01*
X013855Y006962D01*
X013935Y006962D01*
X013935Y006242D01*
X014003Y006253D01*
X013935Y006262D02*
X013855Y006262D01*
X013760Y006262D02*
X013088Y006262D01*
X013167Y006295D02*
X012991Y006222D01*
X012800Y006222D01*
X012623Y006295D01*
X012488Y006430D01*
X012415Y006606D01*
X012415Y007397D01*
X012488Y007573D01*
X012623Y007708D01*
X012800Y007782D01*
X012991Y007782D01*
X013167Y007708D01*
X013302Y007573D01*
X013375Y007397D01*
X013375Y006606D01*
X013302Y006430D01*
X013167Y006295D01*
X013253Y006381D02*
X013566Y006381D01*
X013482Y006499D02*
X013331Y006499D01*
X013375Y006618D02*
X013443Y006618D01*
X013435Y006736D02*
X013375Y006736D01*
X013375Y006855D02*
X013435Y006855D01*
X013375Y006973D02*
X013855Y006973D01*
X013935Y006973D02*
X014415Y006973D01*
X014355Y007042D02*
X014355Y007338D01*
X014344Y007409D01*
X014322Y007478D01*
X014289Y007543D01*
X014246Y007601D01*
X014195Y007652D01*
X014136Y007695D01*
X014072Y007728D01*
X014003Y007750D01*
X013935Y007761D01*
X013935Y007042D01*
X014355Y007042D01*
X014355Y007092D02*
X014415Y007092D01*
X014415Y007210D02*
X014355Y007210D01*
X014355Y007329D02*
X014415Y007329D01*
X014436Y007447D02*
X014332Y007447D01*
X014272Y007566D02*
X014485Y007566D01*
X014599Y007684D02*
X014151Y007684D01*
X013935Y007684D02*
X013855Y007684D01*
X013855Y007566D02*
X013935Y007566D01*
X013935Y007447D02*
X013855Y007447D01*
X013855Y007329D02*
X013935Y007329D01*
X013935Y007210D02*
X013855Y007210D01*
X013855Y007092D02*
X013935Y007092D01*
X013935Y006855D02*
X013855Y006855D01*
X013855Y006736D02*
X013935Y006736D01*
X013935Y006618D02*
X013855Y006618D01*
X013855Y006499D02*
X013935Y006499D01*
X013935Y006381D02*
X013855Y006381D01*
X014225Y006381D02*
X014538Y006381D01*
X014460Y006499D02*
X014308Y006499D01*
X014348Y006618D02*
X014415Y006618D01*
X014415Y006736D02*
X014355Y006736D01*
X014355Y006855D02*
X014415Y006855D01*
X014595Y006144D02*
X008057Y006144D01*
X008057Y006262D02*
X010702Y006262D01*
X010623Y006295D02*
X010800Y006222D01*
X010991Y006222D01*
X011167Y006295D01*
X011302Y006430D01*
X011375Y006606D01*
X011375Y007397D01*
X011302Y007573D01*
X011167Y007708D01*
X010991Y007782D01*
X010800Y007782D01*
X010623Y007708D01*
X010488Y007573D01*
X010415Y007397D01*
X010415Y006606D01*
X010488Y006430D01*
X010623Y006295D01*
X010538Y006381D02*
X008057Y006381D01*
X008057Y006499D02*
X010460Y006499D01*
X010415Y006618D02*
X008057Y006618D01*
X008057Y006736D02*
X010415Y006736D01*
X010415Y006855D02*
X008057Y006855D01*
X008057Y006973D02*
X010415Y006973D01*
X010415Y007092D02*
X008057Y007092D01*
X008057Y007210D02*
X010415Y007210D01*
X010415Y007329D02*
X008057Y007329D01*
X008057Y007447D02*
X010436Y007447D01*
X010485Y007566D02*
X008057Y007566D01*
X008057Y007684D02*
X010599Y007684D01*
X011192Y007684D02*
X011599Y007684D01*
X011623Y007708D02*
X011488Y007573D01*
X011415Y007397D01*
X011415Y006606D01*
X011488Y006430D01*
X011623Y006295D01*
X011800Y006222D01*
X011991Y006222D01*
X012167Y006295D01*
X012302Y006430D01*
X012375Y006606D01*
X012375Y007397D01*
X012302Y007573D01*
X012167Y007708D01*
X011991Y007782D01*
X011800Y007782D01*
X011623Y007708D01*
X011485Y007566D02*
X011305Y007566D01*
X011355Y007447D02*
X011436Y007447D01*
X011415Y007329D02*
X011375Y007329D01*
X011375Y007210D02*
X011415Y007210D01*
X011415Y007092D02*
X011375Y007092D01*
X011375Y006973D02*
X011415Y006973D01*
X011415Y006855D02*
X011375Y006855D01*
X011375Y006736D02*
X011415Y006736D01*
X011415Y006618D02*
X011375Y006618D01*
X011331Y006499D02*
X011460Y006499D01*
X011538Y006381D02*
X011253Y006381D01*
X011088Y006262D02*
X011702Y006262D01*
X012088Y006262D02*
X012702Y006262D01*
X012538Y006381D02*
X012253Y006381D01*
X012331Y006499D02*
X012460Y006499D01*
X012415Y006618D02*
X012375Y006618D01*
X012375Y006736D02*
X012415Y006736D01*
X012415Y006855D02*
X012375Y006855D01*
X012375Y006973D02*
X012415Y006973D01*
X012415Y007092D02*
X012375Y007092D01*
X012375Y007210D02*
X012415Y007210D01*
X012415Y007329D02*
X012375Y007329D01*
X012355Y007447D02*
X012436Y007447D01*
X012485Y007566D02*
X012305Y007566D01*
X012192Y007684D02*
X012599Y007684D01*
X013192Y007684D02*
X013639Y007684D01*
X013518Y007566D02*
X013305Y007566D01*
X013355Y007447D02*
X013459Y007447D01*
X013435Y007329D02*
X013375Y007329D01*
X013375Y007210D02*
X013435Y007210D01*
X013435Y007092D02*
X013375Y007092D01*
X014198Y008988D02*
X018297Y008988D01*
X016226Y009699D02*
X021590Y009699D01*
X021592Y009697D02*
X021632Y009686D01*
X021902Y009686D01*
X021902Y010095D01*
X021494Y010095D01*
X021494Y009825D01*
X021504Y009785D01*
X021526Y009748D01*
X021555Y009718D01*
X021592Y009697D01*
X021496Y009817D02*
X016226Y009817D01*
X016226Y009936D02*
X021494Y009936D01*
X021494Y010054D02*
X016190Y010054D01*
X016178Y010410D02*
X021494Y010410D01*
X021494Y010422D02*
X021494Y010152D01*
X021902Y010152D01*
X021902Y010095D01*
X021959Y010095D01*
X021959Y010152D01*
X021902Y010152D01*
X021902Y010561D01*
X021632Y010561D01*
X021592Y010550D01*
X021555Y010529D01*
X021526Y010499D01*
X021504Y010463D01*
X021494Y010422D01*
X021555Y010528D02*
X016226Y010528D01*
X016226Y010647D02*
X024537Y010647D01*
X024537Y010528D02*
X022307Y010528D01*
X022306Y010529D02*
X022270Y010550D01*
X022229Y010561D01*
X021959Y010561D01*
X021959Y010152D01*
X022368Y010152D01*
X022368Y010422D01*
X022357Y010463D01*
X022336Y010499D01*
X022306Y010529D01*
X022368Y010410D02*
X024552Y010410D01*
X024601Y010291D02*
X022368Y010291D01*
X022368Y010173D02*
X024650Y010173D01*
X024734Y010054D02*
X023255Y010054D01*
X023379Y009936D02*
X024852Y009936D01*
X025026Y009817D02*
X023384Y009817D01*
X022498Y008988D02*
X022368Y008988D01*
X022368Y008869D02*
X022489Y008869D01*
X022489Y008751D02*
X022346Y008751D01*
X022396Y008395D02*
X022489Y008395D01*
X022489Y008277D02*
X022396Y008277D01*
X021515Y008751D02*
X021400Y008751D01*
X021404Y008869D02*
X021494Y008869D01*
X021494Y008988D02*
X021463Y008988D01*
X020808Y009343D02*
X013842Y009343D01*
X013724Y009462D02*
X015481Y009462D01*
X015848Y009746D02*
X014746Y009746D01*
X014313Y010179D01*
X014313Y012462D01*
X014037Y012738D01*
X007974Y012738D01*
X007817Y012580D01*
X007817Y004628D01*
X007147Y003958D01*
X004679Y003958D01*
X004667Y003946D01*
X005232Y003537D02*
X011911Y003537D01*
X011911Y003655D02*
X005354Y003655D01*
X004707Y003300D02*
X004627Y003300D01*
X004627Y003181D02*
X004707Y003181D01*
X004707Y003063D02*
X004627Y003063D01*
X004627Y002826D02*
X004707Y002826D01*
X004707Y002707D02*
X004627Y002707D01*
X004627Y002589D02*
X004707Y002589D01*
X005257Y002589D02*
X015231Y002589D01*
X015112Y002707D02*
X005361Y002707D01*
X007302Y003774D02*
X012001Y003774D01*
X012506Y003892D02*
X007420Y003892D01*
X007097Y004248D02*
X005345Y004248D01*
X005208Y004366D02*
X007216Y004366D01*
X007334Y004485D02*
X005106Y004485D01*
X005302Y004603D02*
X007453Y004603D01*
X007571Y004722D02*
X005393Y004722D01*
X004742Y005021D02*
X004667Y004946D01*
X004742Y005021D02*
X007069Y005021D01*
X007423Y005376D01*
X007423Y012777D01*
X007659Y013013D01*
X014391Y013013D01*
X014588Y012817D01*
X014588Y010927D01*
X015257Y010257D01*
X015636Y010291D02*
X021494Y010291D01*
X021494Y010173D02*
X015636Y010173D01*
X016226Y010884D02*
X016941Y010884D01*
X017257Y011218D02*
X015470Y011218D01*
X015332Y011198D01*
X015705Y011476D02*
X016872Y011476D01*
X016836Y011595D02*
X015143Y011595D01*
X015143Y011713D02*
X016836Y011713D01*
X016836Y011832D02*
X015143Y011832D01*
X015143Y011950D02*
X016836Y011950D01*
X016847Y012069D02*
X015143Y012069D01*
X015143Y012187D02*
X019708Y012187D01*
X019590Y012069D02*
X017581Y012069D01*
X019766Y011595D02*
X028186Y011595D01*
X028186Y011713D02*
X019885Y011713D01*
X020003Y011832D02*
X020678Y011832D01*
X021396Y011832D02*
X028186Y011832D01*
X028186Y011950D02*
X021415Y011950D01*
X021415Y012069D02*
X028186Y012069D01*
X028186Y012187D02*
X021415Y012187D01*
X021415Y012306D02*
X028186Y012306D01*
X028186Y012424D02*
X021387Y012424D01*
X021349Y012683D02*
X021454Y012788D01*
X021454Y013333D01*
X021349Y013439D01*
X021038Y013439D01*
X020879Y013597D01*
X020879Y014211D01*
X020843Y014299D01*
X020775Y014366D01*
X020208Y014933D01*
X020120Y014970D01*
X018659Y014970D01*
X018659Y015003D01*
X018554Y015108D01*
X018008Y015108D01*
X017903Y015003D01*
X017903Y014457D01*
X018008Y014352D01*
X018554Y014352D01*
X018659Y014457D01*
X018659Y014490D01*
X019973Y014490D01*
X020399Y014064D01*
X020399Y013450D01*
X020436Y013362D01*
X020698Y013099D01*
X020698Y012788D01*
X020804Y012683D01*
X021349Y012683D01*
X021446Y012780D02*
X028186Y012780D01*
X028186Y012898D02*
X021454Y012898D01*
X021454Y013017D02*
X028186Y013017D01*
X028186Y013135D02*
X021454Y013135D01*
X021454Y013254D02*
X028186Y013254D01*
X028186Y013372D02*
X021416Y013372D01*
X020986Y013491D02*
X022780Y013491D01*
X022891Y013444D02*
X022663Y013539D01*
X022488Y013714D01*
X022393Y013943D01*
X022393Y014191D01*
X022488Y014419D01*
X022663Y014594D01*
X022891Y014689D01*
X023139Y014689D01*
X023264Y014637D01*
X023045Y014856D01*
X023045Y015007D01*
X023465Y015007D01*
X023465Y015087D01*
X023465Y015507D01*
X023315Y015507D01*
X023045Y015237D01*
X023045Y015087D01*
X023465Y015087D01*
X023545Y015087D01*
X023545Y015507D01*
X023696Y015507D01*
X023965Y015237D01*
X023965Y015087D01*
X023545Y015087D01*
X023545Y015007D01*
X023545Y014587D01*
X023696Y014587D01*
X023965Y014856D01*
X023965Y015007D01*
X023545Y015007D01*
X023465Y015007D01*
X023465Y014587D01*
X023376Y014587D01*
X023543Y014419D01*
X023638Y014191D01*
X023638Y013943D01*
X023543Y013714D01*
X023368Y013539D01*
X023139Y013444D01*
X022891Y013444D01*
X022593Y013609D02*
X020879Y013609D01*
X020879Y013728D02*
X022482Y013728D01*
X022433Y013846D02*
X020879Y013846D01*
X020879Y013965D02*
X022393Y013965D01*
X022393Y014083D02*
X020879Y014083D01*
X020879Y014202D02*
X022397Y014202D01*
X022446Y014320D02*
X020822Y014320D01*
X020703Y014439D02*
X022507Y014439D01*
X022625Y014557D02*
X020585Y014557D01*
X020466Y014676D02*
X022858Y014676D01*
X023107Y014794D02*
X020348Y014794D01*
X020229Y014913D02*
X023045Y014913D01*
X023045Y015150D02*
X015092Y015150D01*
X015163Y015268D02*
X023076Y015268D01*
X023195Y015387D02*
X015163Y015387D01*
X015163Y015505D02*
X023313Y015505D01*
X023465Y015505D02*
X023545Y015505D01*
X023545Y015387D02*
X023465Y015387D01*
X023465Y015268D02*
X023545Y015268D01*
X023545Y015150D02*
X023465Y015150D01*
X023465Y015031D02*
X018631Y015031D01*
X018281Y014730D02*
X020072Y014730D01*
X020639Y014163D01*
X020639Y013498D01*
X021076Y013061D01*
X020698Y013017D02*
X015143Y013017D01*
X015129Y013135D02*
X020663Y013135D01*
X020544Y013254D02*
X015042Y013254D01*
X014923Y013372D02*
X020432Y013372D01*
X020399Y013491D02*
X006994Y013491D01*
X006994Y013609D02*
X020399Y013609D01*
X020399Y013728D02*
X006994Y013728D01*
X006994Y013846D02*
X020399Y013846D01*
X020399Y013965D02*
X006994Y013965D01*
X007100Y014083D02*
X010864Y014083D01*
X011242Y014352D02*
X007029Y014352D01*
X006754Y014076D01*
X006754Y007659D01*
X006084Y006990D01*
X006288Y006855D02*
X006829Y006855D01*
X006829Y006973D02*
X006407Y006973D01*
X006525Y007092D02*
X006829Y007092D01*
X006829Y007210D02*
X006644Y007210D01*
X006762Y007329D02*
X006829Y007329D01*
X006439Y007684D02*
X005378Y007684D01*
X005265Y007566D02*
X006321Y007566D01*
X006514Y007803D02*
X005780Y007803D01*
X005898Y007921D02*
X006514Y007921D01*
X006514Y008040D02*
X006017Y008040D01*
X006135Y008158D02*
X006514Y008158D01*
X006514Y008277D02*
X006254Y008277D01*
X006372Y008395D02*
X006514Y008395D01*
X006514Y008514D02*
X006491Y008514D01*
X006399Y008761D02*
X005612Y007974D01*
X004509Y007974D01*
X004470Y007935D01*
X004655Y007935D01*
X004667Y007946D01*
X004069Y007566D02*
X002541Y007566D01*
X002556Y007684D02*
X003956Y007684D01*
X003907Y007803D02*
X002556Y007803D01*
X002511Y007921D02*
X003887Y007921D01*
X003887Y008040D02*
X002444Y008040D01*
X002325Y008158D02*
X003935Y008158D01*
X004018Y008277D02*
X000360Y008277D01*
X000360Y008395D02*
X004196Y008395D01*
X004158Y008514D02*
X000360Y008514D01*
X000360Y008632D02*
X001718Y008632D01*
X001719Y008631D02*
X001915Y008550D01*
X002128Y008550D01*
X002324Y008631D01*
X002474Y008782D01*
X002556Y008978D01*
X002556Y009191D01*
X002474Y009387D01*
X002324Y009537D01*
X002128Y009619D01*
X001915Y009619D01*
X001719Y009537D01*
X001568Y009387D01*
X001487Y009191D01*
X001487Y008978D01*
X001568Y008782D01*
X001719Y008631D01*
X001599Y008751D02*
X000360Y008751D01*
X000360Y008869D02*
X001532Y008869D01*
X001487Y008988D02*
X000360Y008988D01*
X000360Y009106D02*
X001487Y009106D01*
X001501Y009225D02*
X000360Y009225D01*
X000360Y009343D02*
X001550Y009343D01*
X001643Y009462D02*
X000360Y009462D01*
X000360Y009580D02*
X001822Y009580D01*
X002221Y009580D02*
X004055Y009580D01*
X003950Y009699D02*
X000360Y009699D01*
X000360Y009817D02*
X003901Y009817D01*
X003887Y009936D02*
X002146Y009936D01*
X002128Y009928D02*
X002324Y010009D01*
X002474Y010160D01*
X002556Y010356D01*
X002556Y010568D01*
X002474Y010765D01*
X003923Y010765D01*
X003887Y010851D02*
X003960Y010675D01*
X004095Y010540D01*
X004271Y010466D01*
X005062Y010466D01*
X005239Y010540D01*
X005374Y010675D01*
X005447Y010851D01*
X005447Y011042D01*
X005374Y011218D01*
X005239Y011353D01*
X005062Y011426D01*
X004271Y011426D01*
X004095Y011353D01*
X003960Y011218D01*
X003887Y011042D01*
X003887Y010851D01*
X003887Y010884D02*
X002356Y010884D01*
X002324Y010915D02*
X002474Y010765D01*
X002523Y010647D02*
X003988Y010647D01*
X004123Y010528D02*
X002556Y010528D01*
X002556Y010410D02*
X004231Y010410D01*
X004033Y010291D02*
X002529Y010291D01*
X002480Y010173D02*
X003941Y010173D01*
X003892Y010054D02*
X002369Y010054D01*
X002128Y009928D02*
X001915Y009928D01*
X001719Y010009D01*
X001568Y010160D01*
X001487Y010356D01*
X001487Y010568D01*
X001568Y010765D01*
X001719Y010915D01*
X001915Y010997D01*
X002128Y010997D01*
X002324Y010915D01*
X002252Y011358D02*
X004105Y011358D01*
X003981Y011239D02*
X000360Y011239D01*
X000360Y011121D02*
X003919Y011121D01*
X003887Y011002D02*
X000360Y011002D01*
X000360Y010884D02*
X001687Y010884D01*
X001568Y010765D02*
X000360Y010765D01*
X000360Y010647D02*
X001519Y010647D01*
X001487Y010528D02*
X000360Y010528D01*
X000360Y010410D02*
X001487Y010410D01*
X001514Y010291D02*
X000360Y010291D01*
X000360Y010173D02*
X001563Y010173D01*
X001674Y010054D02*
X000360Y010054D01*
X000360Y009936D02*
X001897Y009936D01*
X002400Y009462D02*
X005539Y009462D01*
X005658Y009580D02*
X005279Y009580D01*
X005384Y009699D02*
X005776Y009699D01*
X005805Y009817D02*
X005668Y009817D01*
X005787Y009936D02*
X005805Y009936D01*
X005606Y010094D02*
X005454Y009943D01*
X004509Y009943D01*
X004470Y009903D01*
X005103Y010410D02*
X005451Y010410D01*
X005451Y010528D02*
X005211Y010528D01*
X005346Y010647D02*
X005451Y010647D01*
X005451Y010765D02*
X005411Y010765D01*
X005447Y010884D02*
X005451Y010884D01*
X005447Y011002D02*
X005451Y011002D01*
X005451Y011121D02*
X005414Y011121D01*
X005451Y011239D02*
X005353Y011239D01*
X005451Y011358D02*
X005229Y011358D01*
X005239Y011540D02*
X005062Y011466D01*
X004271Y011466D01*
X004095Y011540D01*
X003960Y011675D01*
X003887Y011851D01*
X003887Y012042D01*
X003960Y012218D01*
X004095Y012353D01*
X004271Y012426D01*
X005062Y012426D01*
X005239Y012353D01*
X005374Y012218D01*
X005447Y012042D01*
X005447Y011851D01*
X005374Y011675D01*
X005239Y011540D01*
X005294Y011595D02*
X005451Y011595D01*
X005451Y011713D02*
X005390Y011713D01*
X005439Y011832D02*
X005451Y011832D01*
X005447Y011950D02*
X005451Y011950D01*
X005436Y012069D02*
X005451Y012069D01*
X005451Y012187D02*
X005387Y012187D01*
X005451Y012306D02*
X005287Y012306D01*
X005451Y012424D02*
X005068Y012424D01*
X005062Y012466D02*
X005239Y012540D01*
X005374Y012675D01*
X005447Y012851D01*
X005447Y013042D01*
X005374Y013218D01*
X005239Y013353D01*
X005062Y013426D01*
X004271Y013426D01*
X004095Y013353D01*
X003960Y013218D01*
X003887Y013042D01*
X003887Y012851D01*
X003960Y012675D01*
X004095Y012540D01*
X004271Y012466D01*
X005062Y012466D01*
X005242Y012543D02*
X005451Y012543D01*
X005451Y012661D02*
X005360Y012661D01*
X005417Y012780D02*
X005451Y012780D01*
X005447Y012898D02*
X005451Y012898D01*
X005447Y013017D02*
X005451Y013017D01*
X005451Y013135D02*
X005408Y013135D01*
X005451Y013254D02*
X005339Y013254D01*
X005451Y013372D02*
X005194Y013372D01*
X005121Y013491D02*
X005451Y013491D01*
X005451Y013609D02*
X005308Y013609D01*
X005374Y013675D02*
X005447Y013851D01*
X005447Y014042D01*
X005374Y014218D01*
X005239Y014353D01*
X005062Y014426D01*
X004271Y014426D01*
X004095Y014353D01*
X003960Y014218D01*
X003887Y014042D01*
X003887Y013851D01*
X003960Y013675D01*
X004095Y013540D01*
X004271Y013466D01*
X005062Y013466D01*
X005239Y013540D01*
X005374Y013675D01*
X005396Y013728D02*
X005451Y013728D01*
X005445Y013846D02*
X005451Y013846D01*
X005447Y013965D02*
X005451Y013965D01*
X005451Y014083D02*
X005430Y014083D01*
X005451Y014202D02*
X005381Y014202D01*
X005451Y014320D02*
X005272Y014320D01*
X005451Y014439D02*
X003568Y014439D01*
X003568Y014557D02*
X005451Y014557D01*
X005451Y014676D02*
X003568Y014676D01*
X003568Y014794D02*
X005451Y014794D01*
X005467Y014913D02*
X003598Y014913D01*
X003717Y015031D02*
X005558Y015031D01*
X005676Y015150D02*
X003835Y015150D01*
X003954Y015268D02*
X005795Y015268D01*
X005913Y015387D02*
X004072Y015387D01*
X004191Y015505D02*
X006032Y015505D01*
X006150Y015624D02*
X004309Y015624D01*
X004428Y015742D02*
X006269Y015742D01*
X006596Y015730D02*
X005691Y014824D01*
X005691Y010179D01*
X005606Y010094D01*
X006045Y009628D02*
X006045Y014706D01*
X006635Y015297D01*
X011045Y015297D01*
X011124Y015218D01*
X011502Y015268D02*
X013600Y015268D01*
X013450Y015387D02*
X011502Y015387D01*
X011487Y015505D02*
X013332Y015505D01*
X013213Y015624D02*
X010951Y015624D01*
X010951Y015742D02*
X013095Y015742D01*
X013092Y016084D02*
X013683Y015494D01*
X014785Y015494D01*
X014407Y015742D02*
X013774Y015742D01*
X013655Y015861D02*
X014501Y015861D01*
X015069Y015861D02*
X028186Y015861D01*
X028186Y015979D02*
X013537Y015979D01*
X013418Y016098D02*
X028186Y016098D01*
X028186Y016216D02*
X013300Y016216D01*
X013092Y016084D02*
X004431Y016084D01*
X003328Y014982D01*
X003328Y011872D01*
X003171Y011714D01*
X002147Y011714D01*
X002021Y011840D01*
X001487Y011832D02*
X000360Y011832D01*
X000360Y011950D02*
X001488Y011950D01*
X001537Y012069D02*
X000360Y012069D01*
X000360Y012187D02*
X001612Y012187D01*
X001748Y012306D02*
X000360Y012306D01*
X000360Y012424D02*
X003088Y012424D01*
X003088Y012306D02*
X002294Y012306D01*
X002430Y012187D02*
X003088Y012187D01*
X003088Y012069D02*
X002505Y012069D01*
X003088Y012543D02*
X000360Y012543D01*
X000360Y012661D02*
X003088Y012661D01*
X003088Y012780D02*
X002338Y012780D01*
X002324Y012765D02*
X002474Y012915D01*
X002556Y013112D01*
X002556Y013324D01*
X002474Y013521D01*
X002324Y013671D01*
X002128Y013752D01*
X001915Y013752D01*
X001719Y013671D01*
X001568Y013521D01*
X001487Y013324D01*
X001487Y013112D01*
X001568Y012915D01*
X001719Y012765D01*
X001915Y012684D01*
X002128Y012684D01*
X002324Y012765D01*
X002457Y012898D02*
X003088Y012898D01*
X003088Y013017D02*
X002516Y013017D01*
X002556Y013135D02*
X003088Y013135D01*
X003088Y013254D02*
X002556Y013254D01*
X002536Y013372D02*
X003088Y013372D01*
X003088Y013491D02*
X002487Y013491D01*
X002386Y013609D02*
X003088Y013609D01*
X003088Y013728D02*
X002188Y013728D01*
X001855Y013728D02*
X000360Y013728D01*
X000360Y013846D02*
X003088Y013846D01*
X003088Y013965D02*
X000360Y013965D01*
X000360Y014083D02*
X001864Y014083D01*
X001915Y014062D02*
X001719Y014143D01*
X001568Y014293D01*
X001487Y014490D01*
X001487Y014702D01*
X001568Y014899D01*
X001719Y015049D01*
X001915Y015130D01*
X002128Y015130D01*
X002324Y015049D01*
X002474Y014899D01*
X002556Y014702D01*
X002556Y014490D01*
X002474Y014293D01*
X002324Y014143D01*
X002128Y014062D01*
X001915Y014062D01*
X002179Y014083D02*
X003088Y014083D01*
X003088Y014202D02*
X002382Y014202D01*
X002485Y014320D02*
X003088Y014320D01*
X003088Y014439D02*
X002534Y014439D01*
X002556Y014557D02*
X003088Y014557D01*
X003088Y014676D02*
X002556Y014676D01*
X002518Y014794D02*
X003088Y014794D01*
X003088Y014913D02*
X002460Y014913D01*
X002342Y015031D02*
X003089Y015031D01*
X003157Y015150D02*
X000360Y015150D01*
X000360Y015268D02*
X003275Y015268D01*
X003394Y015387D02*
X000360Y015387D01*
X000360Y015505D02*
X001757Y015505D01*
X001616Y015624D02*
X000360Y015624D01*
X000360Y015742D02*
X001539Y015742D01*
X001490Y015861D02*
X000360Y015861D01*
X000360Y015979D02*
X001487Y015979D01*
X001494Y016098D02*
X000360Y016098D01*
X000360Y016216D02*
X001543Y016216D01*
X001626Y016335D02*
X000360Y016335D01*
X002285Y015505D02*
X003512Y015505D01*
X003631Y015624D02*
X002426Y015624D01*
X002504Y015742D02*
X003749Y015742D01*
X003868Y015861D02*
X002553Y015861D01*
X002556Y015979D02*
X003986Y015979D01*
X004105Y016098D02*
X002548Y016098D01*
X002499Y016216D02*
X004223Y016216D01*
X002416Y016335D02*
X028186Y016335D01*
X028186Y015742D02*
X015163Y015742D01*
X015163Y015624D02*
X028186Y015624D01*
X028186Y015505D02*
X025506Y015505D01*
X025484Y015527D02*
X025086Y015527D01*
X024805Y015246D01*
X024805Y014848D01*
X025086Y014567D01*
X025395Y014567D01*
X025248Y014419D01*
X025153Y014191D01*
X025153Y013943D01*
X025248Y013714D01*
X025423Y013539D01*
X025651Y013444D01*
X025899Y013444D01*
X026128Y013539D01*
X026303Y013714D01*
X026398Y013943D01*
X026398Y014191D01*
X026303Y014419D01*
X026128Y014594D01*
X025899Y014689D01*
X025651Y014689D01*
X025575Y014657D01*
X025765Y014848D01*
X025765Y015246D01*
X025484Y015527D01*
X025624Y015387D02*
X028186Y015387D01*
X028186Y015268D02*
X025743Y015268D01*
X025765Y015150D02*
X028186Y015150D01*
X028186Y015031D02*
X025765Y015031D01*
X025765Y014913D02*
X028186Y014913D01*
X028186Y014794D02*
X025711Y014794D01*
X025618Y014676D02*
X025593Y014676D01*
X025385Y014557D02*
X023405Y014557D01*
X023465Y014676D02*
X023545Y014676D01*
X023545Y014794D02*
X023465Y014794D01*
X023465Y014913D02*
X023545Y014913D01*
X023545Y015031D02*
X024805Y015031D01*
X024805Y014913D02*
X023965Y014913D01*
X023903Y014794D02*
X024859Y014794D01*
X024978Y014676D02*
X023785Y014676D01*
X023524Y014439D02*
X025267Y014439D01*
X025206Y014320D02*
X023584Y014320D01*
X023633Y014202D02*
X025157Y014202D01*
X025153Y014083D02*
X023638Y014083D01*
X023638Y013965D02*
X025153Y013965D01*
X025193Y013846D02*
X023598Y013846D01*
X023549Y013728D02*
X025242Y013728D01*
X025353Y013609D02*
X023438Y013609D01*
X023251Y013491D02*
X025540Y013491D01*
X026011Y013491D02*
X028186Y013491D01*
X028186Y013609D02*
X026198Y013609D01*
X026309Y013728D02*
X028186Y013728D01*
X028186Y013846D02*
X026358Y013846D01*
X026398Y013965D02*
X028186Y013965D01*
X028186Y014083D02*
X026398Y014083D01*
X026393Y014202D02*
X028186Y014202D01*
X028186Y014320D02*
X026344Y014320D01*
X026284Y014439D02*
X028186Y014439D01*
X028186Y014557D02*
X026165Y014557D01*
X025932Y014676D02*
X028186Y014676D01*
X025065Y015505D02*
X023697Y015505D01*
X023816Y015387D02*
X024946Y015387D01*
X024828Y015268D02*
X023934Y015268D01*
X023965Y015150D02*
X024805Y015150D01*
X023226Y014676D02*
X023172Y014676D01*
X020380Y014083D02*
X011620Y014083D01*
X011620Y014202D02*
X020261Y014202D01*
X020143Y014320D02*
X011620Y014320D01*
X011620Y014439D02*
X017922Y014439D01*
X017903Y014557D02*
X011620Y014557D01*
X011569Y014676D02*
X017903Y014676D01*
X017903Y014794D02*
X010951Y014794D01*
X010572Y014785D02*
X006635Y014785D01*
X006399Y014549D01*
X006399Y008761D01*
X006159Y008869D02*
X005626Y008869D01*
X005567Y008811D02*
X005567Y008811D01*
X005507Y008751D02*
X006049Y008751D01*
X005930Y008632D02*
X005331Y008632D01*
X005176Y008514D02*
X005812Y008514D01*
X005693Y008395D02*
X005138Y008395D01*
X005316Y008277D02*
X005575Y008277D01*
X005364Y008946D02*
X004667Y008946D01*
X005364Y008946D02*
X006045Y009628D01*
X006100Y009343D02*
X006159Y009343D01*
X006159Y009225D02*
X005981Y009225D01*
X005863Y009106D02*
X006159Y009106D01*
X006159Y008988D02*
X005744Y008988D01*
X005421Y009343D02*
X005249Y009343D01*
X004085Y009343D02*
X002492Y009343D01*
X002542Y009225D02*
X003966Y009225D01*
X003913Y009106D02*
X002556Y009106D01*
X002556Y008988D02*
X003887Y008988D01*
X003887Y008869D02*
X002510Y008869D01*
X002443Y008751D02*
X003929Y008751D01*
X004003Y008632D02*
X002325Y008632D01*
X001717Y008158D02*
X000360Y008158D01*
X000360Y008040D02*
X001599Y008040D01*
X001532Y007921D02*
X000360Y007921D01*
X000360Y007803D02*
X001487Y007803D01*
X001487Y007684D02*
X000360Y007684D01*
X000360Y007566D02*
X001501Y007566D01*
X001550Y007447D02*
X000360Y007447D01*
X000360Y007329D02*
X001643Y007329D01*
X001673Y006736D02*
X000360Y006736D01*
X000360Y006618D02*
X001563Y006618D01*
X001514Y006499D02*
X000360Y006499D01*
X000360Y006381D02*
X001487Y006381D01*
X001487Y006262D02*
X000360Y006262D01*
X000360Y006144D02*
X001519Y006144D01*
X001569Y006025D02*
X000360Y006025D01*
X000360Y005907D02*
X001687Y005907D01*
X005278Y005314D02*
X007022Y005314D01*
X007345Y004959D02*
X007577Y004959D01*
X007577Y005077D02*
X007464Y005077D01*
X007577Y004840D02*
X007227Y004840D01*
X012591Y003063D02*
X014757Y003063D01*
X014638Y003181D02*
X012667Y003181D01*
X012686Y003300D02*
X014520Y003300D01*
X015250Y003418D02*
X028186Y003418D01*
X028186Y003300D02*
X015368Y003300D01*
X015487Y003181D02*
X028186Y003181D01*
X028186Y003063D02*
X015605Y003063D01*
X015724Y002944D02*
X028186Y002944D01*
X028186Y002826D02*
X015842Y002826D01*
X022443Y002707D02*
X028186Y002707D01*
X028186Y002589D02*
X022466Y002589D01*
X022466Y002470D02*
X028186Y002470D01*
X028186Y002352D02*
X022466Y002352D01*
X022466Y002233D02*
X028186Y002233D01*
X028186Y002115D02*
X022442Y002115D01*
X025637Y003537D02*
X026019Y003537D01*
X025913Y003655D02*
X025744Y003655D01*
X025793Y003774D02*
X025864Y003774D01*
X025848Y003892D02*
X025808Y003892D01*
X025808Y004011D02*
X025848Y004011D01*
X025848Y004129D02*
X025808Y004129D01*
X025808Y004248D02*
X025848Y004248D01*
X025848Y004366D02*
X025808Y004366D01*
X025808Y004485D02*
X025848Y004485D01*
X025849Y004603D02*
X025808Y004603D01*
X025759Y004722D02*
X025898Y004722D01*
X025983Y004840D02*
X025673Y004840D01*
X026673Y004840D02*
X027012Y004840D01*
X026922Y004722D02*
X026759Y004722D01*
X026808Y004603D02*
X026878Y004603D01*
X026868Y004485D02*
X026808Y004485D01*
X026808Y004366D02*
X026868Y004366D01*
X026868Y004248D02*
X026808Y004248D01*
X026808Y004129D02*
X026868Y004129D01*
X026868Y004011D02*
X026808Y004011D01*
X026808Y003892D02*
X026868Y003892D01*
X026888Y003774D02*
X026793Y003774D01*
X026744Y003655D02*
X026942Y003655D01*
X027055Y003537D02*
X026637Y003537D01*
X027288Y003537D02*
X027368Y003537D01*
X027368Y003655D02*
X027288Y003655D01*
X027288Y003774D02*
X027368Y003774D01*
X027368Y003892D02*
X027288Y003892D01*
X027288Y004011D02*
X027368Y004011D01*
X027368Y004129D02*
X027288Y004129D01*
X027288Y004248D02*
X027368Y004248D01*
X027368Y004366D02*
X027288Y004366D01*
X027288Y004485D02*
X027368Y004485D01*
X027368Y004603D02*
X027288Y004603D01*
X027288Y004722D02*
X027368Y004722D01*
X027368Y004840D02*
X027288Y004840D01*
X027645Y004840D02*
X028186Y004840D01*
X028186Y004722D02*
X027735Y004722D01*
X027779Y004603D02*
X028186Y004603D01*
X028186Y004485D02*
X027788Y004485D01*
X027788Y004366D02*
X028186Y004366D01*
X028186Y004248D02*
X027788Y004248D01*
X027788Y004129D02*
X028186Y004129D01*
X028186Y004011D02*
X027788Y004011D01*
X027788Y003892D02*
X028186Y003892D01*
X028186Y003774D02*
X027769Y003774D01*
X027714Y003655D02*
X028186Y003655D01*
X028186Y003537D02*
X027602Y003537D01*
X028186Y001285D02*
X002235Y001285D01*
X002399Y001167D02*
X028186Y001167D01*
X028186Y001048D02*
X002481Y001048D01*
X002524Y000930D02*
X028186Y000930D01*
X028186Y000811D02*
X002079Y000811D01*
X002522Y000693D02*
X028186Y000693D01*
X028186Y000574D02*
X002475Y000574D01*
X002388Y000456D02*
X028186Y000456D01*
X028186Y008277D02*
X023404Y008277D01*
X023404Y008395D02*
X028186Y008395D01*
X028186Y008514D02*
X023404Y008514D01*
X023404Y008632D02*
X028186Y008632D01*
X028186Y008751D02*
X023404Y008751D01*
X023404Y008869D02*
X028186Y008869D01*
X028186Y012543D02*
X015143Y012543D01*
X015143Y012661D02*
X028186Y012661D01*
X021959Y010528D02*
X021902Y010528D01*
X021902Y010410D02*
X021959Y010410D01*
X021959Y010291D02*
X021902Y010291D01*
X021902Y010173D02*
X021959Y010173D01*
X021959Y010054D02*
X021902Y010054D01*
X021902Y009936D02*
X021959Y009936D01*
X021959Y009817D02*
X021902Y009817D01*
X021902Y009699D02*
X021959Y009699D01*
X020742Y009225D02*
X013961Y009225D01*
X014079Y009106D02*
X020722Y009106D01*
X019827Y012306D02*
X015143Y012306D01*
X015143Y012424D02*
X020687Y012424D01*
X020707Y012780D02*
X015143Y012780D01*
X015143Y012898D02*
X020698Y012898D01*
X020024Y014439D02*
X018640Y014439D01*
X017903Y014913D02*
X011469Y014913D01*
X011502Y015031D02*
X017931Y015031D01*
X014478Y015150D02*
X011502Y015150D01*
X010572Y015730D02*
X006596Y015730D01*
X004062Y014320D02*
X003568Y014320D01*
X003568Y014202D02*
X003953Y014202D01*
X003904Y014083D02*
X003568Y014083D01*
X003568Y013965D02*
X003887Y013965D01*
X003889Y013846D02*
X003568Y013846D01*
X003568Y013728D02*
X003938Y013728D01*
X004026Y013609D02*
X003568Y013609D01*
X003568Y013491D02*
X004213Y013491D01*
X004140Y013372D02*
X003568Y013372D01*
X003568Y013254D02*
X003995Y013254D01*
X003925Y013135D02*
X003568Y013135D01*
X003568Y013017D02*
X003887Y013017D01*
X003887Y012898D02*
X003568Y012898D01*
X003568Y012780D02*
X003917Y012780D01*
X003974Y012661D02*
X003568Y012661D01*
X003568Y012543D02*
X004092Y012543D01*
X004266Y012424D02*
X003568Y012424D01*
X003568Y012306D02*
X004047Y012306D01*
X003947Y012187D02*
X003568Y012187D01*
X003568Y012069D02*
X003898Y012069D01*
X003887Y011950D02*
X003568Y011950D01*
X003568Y011832D02*
X003895Y011832D01*
X003944Y011713D02*
X003509Y011713D01*
X003391Y011595D02*
X004040Y011595D01*
X004248Y011476D02*
X003223Y011476D01*
X001790Y011358D02*
X000360Y011358D01*
X000360Y011476D02*
X001630Y011476D01*
X001545Y011595D02*
X000360Y011595D01*
X000360Y011713D02*
X001496Y011713D01*
X001704Y012780D02*
X000360Y012780D01*
X000360Y012898D02*
X001586Y012898D01*
X001526Y013017D02*
X000360Y013017D01*
X000360Y013135D02*
X001487Y013135D01*
X001487Y013254D02*
X000360Y013254D01*
X000360Y013372D02*
X001507Y013372D01*
X001556Y013491D02*
X000360Y013491D01*
X000360Y013609D02*
X001657Y013609D01*
X001660Y014202D02*
X000360Y014202D01*
X000360Y014320D02*
X001557Y014320D01*
X001508Y014439D02*
X000360Y014439D01*
X000360Y014557D02*
X001487Y014557D01*
X001487Y014676D02*
X000360Y014676D01*
X000360Y014794D02*
X001525Y014794D01*
X001582Y014913D02*
X000360Y014913D01*
X000360Y015031D02*
X001701Y015031D01*
X006994Y013372D02*
X007166Y013372D01*
X007048Y013254D02*
X006994Y013254D01*
X008057Y012424D02*
X014011Y012424D01*
X014073Y012306D02*
X008057Y012306D01*
X008057Y012187D02*
X014073Y012187D01*
X014073Y012069D02*
X008057Y012069D01*
X008057Y011950D02*
X014073Y011950D01*
X014073Y011832D02*
X008057Y011832D01*
X008057Y011713D02*
X014073Y011713D01*
X011617Y011595D02*
X008057Y011595D01*
X008057Y011476D02*
X011537Y011476D01*
X011537Y011358D02*
X008057Y011358D01*
X008057Y011239D02*
X011537Y011239D01*
X011537Y011121D02*
X008057Y011121D01*
X008057Y011002D02*
X011537Y011002D01*
X011622Y010884D02*
X008057Y010884D01*
X008057Y010765D02*
X011632Y010765D01*
X011632Y010647D02*
X008057Y010647D01*
X008057Y010528D02*
X011632Y010528D01*
X011632Y010410D02*
X008057Y010410D01*
X008057Y010291D02*
X011632Y010291D01*
X011632Y010173D02*
X008057Y010173D01*
X008057Y010054D02*
X011632Y010054D01*
X011632Y009936D02*
X008057Y009936D01*
X005451Y011476D02*
X005086Y011476D01*
D22*
X017214Y011785D02*
X017238Y011761D01*
X019608Y011761D01*
X019970Y012124D01*
X021037Y012124D01*
D23*
X019691Y005647D02*
X019600Y005600D01*
X019100Y005100D01*
X017100Y005100D01*
X016100Y004100D01*
X005606Y010094D02*
X005600Y010100D01*
X005100Y010100D01*
X004667Y009946D01*
D24*
X016100Y004100D03*
M02*
