%
M48
M72
T01C0.0140
T02C0.0236
T03C0.0276
T04C0.0320
T05C0.0354
T06C0.0400
T07C0.0472
T08C0.0590
T09C0.1299
%
T01
X16100Y4100
T02
X22088Y2411
X19088Y5706
X18202Y6978
X19746Y7069
X18608Y8647
X16592Y8112
X15848Y9746
X15257Y10257
X15848Y10730
X15332Y11198
X17257Y11218
X17214Y11785
X17096Y12722
X18982Y12317
X21037Y12124
X21076Y13061
X18281Y14730
X14785Y15494
X11242Y14352
X10572Y14785
X11124Y15218
X10572Y15730
X10742Y13702
X11915Y11242
X13313Y9533
X21100Y9100
X27600Y13600
X12289Y3411
T03
X14631Y2438
T04
X20702Y5655
X19691Y5647
T05
X22946Y6631
X21946Y7135
X22943Y7628
X21939Y8128
X22946Y8628
X21931Y9108
X22946Y9620
X21931Y10124
T06
X27328Y4206
X26328Y4206
X25328Y4206
X24328Y4206
X25285Y15047
X23505Y15047
X15895Y7002
X14895Y7002
X13895Y7002
X12895Y7002
X11895Y7002
X10895Y7002
X4667Y6946
X4667Y5946
X4667Y4946
X4667Y3946
X4667Y2946
X4667Y7946
X4667Y8946
X4667Y9946
X4667Y10946
X4667Y11946
X4667Y12946
X4667Y13946
T07
X2021Y817
X2021Y2194
X2021Y3572
X2021Y4950
X2021Y6328
X2021Y7706
X2021Y9084
X2021Y10462
X2021Y11840
X2021Y13218
X2021Y14596
X2021Y15974
T08
X25775Y14067
X23015Y14067
T09
X25446Y6139
X25446Y10628
M30
