G75*
%MOIN*%
%OFA0B0*%
%FSLAX24Y24*%
%IPPOS*%
%LPD*%
%AMOC8*
5,1,8,0,0,1.08239X$1,22.5*
%
%ADD10C,0.0060*%
%ADD11C,0.0030*%
%ADD12C,0.0000*%
%ADD13C,0.0040*%
%ADD14C,0.0050*%
%ADD15C,0.0080*%
%ADD16C,0.0250*%
%ADD17R,0.0660X0.0380*%
%ADD18C,0.0100*%
%ADD19R,0.0059X0.0118*%
%ADD20R,0.0118X0.0118*%
D10*
X004167Y002696D02*
X004417Y002446D01*
X004917Y002446D01*
X005167Y002696D01*
X005167Y003196D01*
X004917Y003446D01*
X005167Y003696D01*
X005167Y004196D01*
X004917Y004446D01*
X005167Y004696D01*
X005167Y005196D01*
X004917Y005446D01*
X005167Y005696D01*
X005167Y006196D01*
X004917Y006446D01*
X005167Y006696D01*
X005167Y007196D01*
X004917Y007446D01*
X005167Y007696D01*
X005167Y008196D01*
X004917Y008446D01*
X005167Y008696D01*
X005167Y009196D01*
X004917Y009446D01*
X005167Y009696D01*
X005167Y010196D01*
X004917Y010446D01*
X005167Y010696D01*
X005167Y011196D01*
X004917Y011446D01*
X005167Y011696D01*
X005167Y012196D01*
X004917Y012446D01*
X005167Y012696D01*
X005167Y013196D01*
X004917Y013446D01*
X005167Y013696D01*
X005167Y014196D01*
X004917Y014446D01*
X004417Y014446D01*
X004167Y014196D01*
X004167Y013696D01*
X004417Y013446D01*
X004167Y013196D01*
X004167Y012696D01*
X004417Y012446D01*
X004167Y012196D01*
X004167Y011696D01*
X004417Y011446D01*
X004167Y011196D01*
X004167Y010696D01*
X004417Y010446D01*
X004167Y010196D01*
X004167Y009696D01*
X004417Y009446D01*
X004167Y009196D01*
X004167Y008696D01*
X004417Y008446D01*
X004167Y008196D01*
X004167Y007696D01*
X004417Y007446D01*
X004167Y007196D01*
X004167Y006696D01*
X004417Y006446D01*
X004167Y006196D01*
X004167Y005696D01*
X004417Y005446D01*
X004167Y005196D01*
X004167Y004696D01*
X004417Y004446D01*
X004167Y004196D01*
X004167Y003696D01*
X004417Y003446D01*
X004167Y003196D01*
X004167Y002696D01*
X010395Y006752D02*
X010645Y006502D01*
X011145Y006502D01*
X011395Y006752D01*
X011645Y006502D01*
X012145Y006502D01*
X012395Y006752D01*
X012645Y006502D01*
X013145Y006502D01*
X013395Y006752D01*
X013645Y006502D01*
X014145Y006502D01*
X014395Y006752D01*
X014645Y006502D01*
X015145Y006502D01*
X015395Y006752D01*
X015645Y006502D01*
X016145Y006502D01*
X016395Y006752D01*
X016395Y007252D01*
X016145Y007502D01*
X015645Y007502D01*
X015395Y007252D01*
X015145Y007502D01*
X014645Y007502D01*
X014395Y007252D01*
X014145Y007502D01*
X013645Y007502D01*
X013395Y007252D01*
X013145Y007502D01*
X012645Y007502D01*
X012395Y007252D01*
X012145Y007502D01*
X011645Y007502D01*
X011395Y007252D01*
X011145Y007502D01*
X010645Y007502D01*
X010395Y007252D01*
X010395Y006752D01*
X013776Y004855D02*
X013776Y004628D01*
X013833Y004572D01*
X013946Y004572D01*
X014003Y004628D01*
X014145Y004628D02*
X014201Y004572D01*
X014315Y004572D01*
X014371Y004628D01*
X014371Y004685D01*
X014315Y004742D01*
X014258Y004742D01*
X014315Y004742D02*
X014371Y004798D01*
X014371Y004855D01*
X014315Y004912D01*
X014201Y004912D01*
X014145Y004855D01*
X014003Y004855D02*
X013946Y004912D01*
X013833Y004912D01*
X013776Y004855D01*
X015828Y004540D02*
X015828Y004320D01*
X016148Y004320D01*
X015828Y005220D02*
X015828Y005440D01*
X016148Y005440D01*
X019391Y005447D02*
X019391Y005347D01*
X019491Y005347D01*
X019891Y005347D02*
X019991Y005347D01*
X019991Y005447D01*
X019991Y005847D02*
X019991Y005947D01*
X019891Y005947D01*
X019491Y005947D02*
X019391Y005947D01*
X019391Y005847D01*
X020402Y005855D02*
X020402Y005955D01*
X020502Y005955D01*
X020902Y005955D02*
X021002Y005955D01*
X021002Y005855D01*
X021002Y005455D02*
X021002Y005355D01*
X020902Y005355D01*
X020502Y005355D02*
X020402Y005355D01*
X020402Y005455D01*
X023828Y004456D02*
X023828Y003956D01*
X024078Y003706D01*
X024578Y003706D01*
X024828Y003956D01*
X025078Y003706D01*
X025578Y003706D01*
X025828Y003956D01*
X026078Y003706D01*
X026578Y003706D01*
X026828Y003956D01*
X027078Y003706D01*
X027578Y003706D01*
X027828Y003956D01*
X027828Y004456D01*
X027578Y004706D01*
X027078Y004706D01*
X026828Y004456D01*
X026578Y004706D01*
X026078Y004706D01*
X025828Y004456D01*
X025578Y004706D01*
X025078Y004706D01*
X024828Y004456D01*
X024578Y004706D01*
X024078Y004706D01*
X023828Y004456D01*
X023695Y014457D02*
X023345Y014457D01*
X023345Y014557D01*
X023045Y014557D01*
X023045Y014757D01*
X022945Y014557D02*
X022945Y015957D01*
X023395Y015957D01*
X025845Y015957D01*
X025845Y014557D01*
X025745Y014557D02*
X025745Y014757D01*
X025745Y014557D02*
X025445Y014557D01*
X025445Y014457D01*
X025145Y014457D01*
X025145Y014557D01*
X024695Y014557D01*
X024695Y014657D01*
X024095Y014657D01*
X024095Y014557D01*
X023695Y014557D01*
X023695Y014457D01*
X023045Y015357D02*
X023045Y015857D01*
X024145Y015857D01*
X024145Y015457D01*
X024645Y015457D01*
X024645Y015857D01*
X024145Y015857D01*
X023895Y016057D02*
X023395Y016057D01*
X023395Y015957D01*
X023895Y016057D02*
X023895Y016207D01*
X024895Y016207D01*
X024895Y016057D01*
X023895Y016057D01*
X024645Y015857D02*
X025745Y015857D01*
X025745Y015357D01*
X025395Y015957D02*
X025395Y016057D01*
X024895Y016057D01*
X009959Y016130D02*
X009959Y015596D01*
X009853Y015489D01*
X009746Y015489D01*
X009639Y015703D02*
X009959Y015703D01*
X009639Y015703D02*
X009532Y015810D01*
X009532Y016023D01*
X009639Y016130D01*
X009959Y016130D01*
X009315Y016023D02*
X009315Y015703D01*
X008888Y015703D02*
X008888Y016130D01*
X009208Y016130D01*
X009315Y016023D01*
X008672Y015703D02*
X008458Y015703D01*
X008565Y015703D02*
X008565Y016130D01*
X008458Y016130D01*
X008242Y016130D02*
X008242Y015596D01*
X008135Y015489D01*
X008028Y015489D01*
X007812Y015703D02*
X007599Y015703D01*
X007706Y015703D02*
X007706Y016130D01*
X007599Y016130D01*
X007706Y016344D02*
X007706Y016450D01*
X008242Y016450D02*
X008242Y016344D01*
X008565Y016344D02*
X008565Y016450D01*
X007381Y016023D02*
X007381Y015917D01*
X006954Y015917D01*
X006954Y016023D02*
X007061Y016130D01*
X007275Y016130D01*
X007381Y016023D01*
X006954Y016023D02*
X006954Y015810D01*
X007061Y015703D01*
X007275Y015703D01*
X006737Y015810D02*
X006737Y015917D01*
X006630Y016023D01*
X006310Y016023D01*
X006630Y016023D02*
X006737Y016130D01*
X006737Y016237D01*
X006630Y016344D01*
X006310Y016344D01*
X006310Y015703D01*
X006630Y015703D01*
X006737Y015810D01*
D11*
X006790Y015312D02*
X006851Y015250D01*
X006851Y015188D01*
X006605Y015188D01*
X006605Y015127D02*
X006605Y015250D01*
X006666Y015312D01*
X006790Y015312D01*
X006973Y015312D02*
X007096Y015065D01*
X007220Y015312D01*
X007710Y015250D02*
X007895Y015250D01*
X007956Y015188D01*
X007956Y015127D01*
X007895Y015065D01*
X007710Y015065D01*
X007710Y015435D01*
X007895Y015435D01*
X007956Y015374D01*
X007956Y015312D01*
X007895Y015250D01*
X006790Y015065D02*
X006666Y015065D01*
X006605Y015127D01*
X006483Y015312D02*
X006421Y015312D01*
X006298Y015188D01*
X006298Y015065D02*
X006298Y015312D01*
X007596Y013283D02*
X007781Y013283D01*
X007781Y013160D02*
X007596Y013160D01*
X007534Y013222D01*
X007596Y013283D01*
X007596Y013160D02*
X007534Y013098D01*
X007534Y013037D01*
X007781Y013037D01*
X007719Y012915D02*
X007781Y012853D01*
X007781Y012730D01*
X007719Y012668D01*
X007596Y012668D01*
X007534Y012730D01*
X007534Y012853D01*
X007596Y012915D01*
X007719Y012915D01*
X007781Y012547D02*
X007781Y012362D01*
X007719Y012300D01*
X007596Y012300D01*
X007534Y012362D01*
X007534Y012547D01*
X007719Y012177D02*
X007781Y012177D01*
X007781Y012116D01*
X007719Y012116D01*
X007719Y012177D01*
X007719Y011994D02*
X007658Y011933D01*
X007658Y011809D01*
X007596Y011747D01*
X007534Y011809D01*
X007534Y011994D01*
X007719Y011994D02*
X007781Y011933D01*
X007781Y011747D01*
X007781Y011625D02*
X007781Y011502D01*
X007781Y011564D02*
X007534Y011564D01*
X007534Y011502D01*
X007534Y011380D02*
X007534Y011195D01*
X007596Y011134D01*
X007719Y011134D01*
X007781Y011195D01*
X007781Y011380D01*
X007411Y011380D01*
X007411Y011564D02*
X007349Y011564D01*
X007596Y011012D02*
X007781Y011012D01*
X007781Y010827D01*
X007719Y010765D01*
X007658Y010827D01*
X007658Y011012D01*
X007596Y011012D02*
X007534Y010950D01*
X007534Y010827D01*
X007534Y010643D02*
X007534Y010582D01*
X007658Y010458D01*
X007658Y010337D02*
X007658Y010152D01*
X007719Y010090D01*
X007781Y010152D01*
X007781Y010337D01*
X007596Y010337D01*
X007534Y010275D01*
X007534Y010152D01*
X007596Y009969D02*
X007719Y009969D01*
X007781Y009907D01*
X007781Y009722D01*
X007905Y009722D02*
X007534Y009722D01*
X007534Y009907D01*
X007596Y009969D01*
X007534Y009600D02*
X007534Y009415D01*
X007596Y009353D01*
X007658Y009415D01*
X007658Y009539D01*
X007719Y009600D01*
X007781Y009539D01*
X007781Y009353D01*
X007781Y009232D02*
X007596Y009232D01*
X007534Y009170D01*
X007534Y008985D01*
X007781Y008985D01*
X007781Y008864D02*
X007596Y008864D01*
X007534Y008802D01*
X007534Y008678D01*
X007658Y008678D02*
X007658Y008864D01*
X007781Y008864D02*
X007781Y008678D01*
X007719Y008617D01*
X007658Y008678D01*
X007781Y008495D02*
X007411Y008495D01*
X007534Y008495D02*
X007534Y008310D01*
X007596Y008248D01*
X007719Y008248D01*
X007781Y008310D01*
X007781Y008495D01*
X007719Y008127D02*
X007596Y008127D01*
X007534Y008065D01*
X007534Y007942D01*
X007596Y007880D01*
X007719Y007880D01*
X007781Y007942D01*
X007781Y008065D01*
X007719Y008127D01*
X007534Y007758D02*
X007534Y007697D01*
X007658Y007573D01*
X007781Y007573D02*
X007534Y007573D01*
X007534Y007452D02*
X007534Y007267D01*
X007596Y007205D01*
X007719Y007205D01*
X007781Y007267D01*
X007781Y007452D01*
X007843Y007452D02*
X007534Y007452D01*
X007843Y007452D02*
X007905Y007390D01*
X007905Y007328D01*
X007781Y007082D02*
X007719Y007082D01*
X007719Y007021D01*
X007781Y007021D01*
X007781Y007082D01*
X007719Y006899D02*
X007534Y006899D01*
X007719Y006899D02*
X007781Y006838D01*
X007719Y006776D01*
X007781Y006714D01*
X007719Y006652D01*
X007534Y006652D01*
X007534Y006531D02*
X007719Y006531D01*
X007781Y006469D01*
X007719Y006408D01*
X007781Y006346D01*
X007719Y006284D01*
X007534Y006284D01*
X007534Y006163D02*
X007719Y006163D01*
X007781Y006101D01*
X007719Y006039D01*
X007781Y005978D01*
X007719Y005916D01*
X007534Y005916D01*
X007534Y010458D02*
X007781Y010458D01*
X019891Y006781D02*
X019891Y006410D01*
X019891Y006534D02*
X020076Y006534D01*
X020137Y006595D01*
X020137Y006719D01*
X020076Y006781D01*
X019891Y006781D01*
X020259Y006781D02*
X020259Y006410D01*
X020382Y006534D01*
X020506Y006410D01*
X020506Y006781D01*
X020627Y006781D02*
X020812Y006781D01*
X020874Y006719D01*
X020874Y006595D01*
X020812Y006534D01*
X020627Y006534D01*
X020751Y006534D02*
X020874Y006410D01*
X020627Y006410D02*
X020627Y006781D01*
X015345Y001227D02*
X015345Y000856D01*
X015468Y000856D02*
X015221Y000856D01*
X015100Y000918D02*
X015038Y000856D01*
X014915Y000856D01*
X014853Y000918D01*
X014853Y001165D01*
X014915Y001227D01*
X015038Y001227D01*
X015100Y001165D01*
X015221Y001103D02*
X015345Y001227D01*
X023668Y001107D02*
X023668Y000860D01*
X023730Y000799D01*
X023854Y000799D01*
X023915Y000860D01*
X024037Y000799D02*
X024284Y001045D01*
X024284Y001107D01*
X024222Y001169D01*
X024098Y001169D01*
X024037Y001107D01*
X023915Y001107D02*
X023854Y001169D01*
X023730Y001169D01*
X023668Y001107D01*
X024037Y000799D02*
X024284Y000799D01*
X026691Y013391D02*
X026691Y013514D01*
X026691Y013452D02*
X027061Y013452D01*
X027061Y013391D02*
X027061Y013514D01*
X027061Y013636D02*
X026691Y013636D01*
X027061Y013883D01*
X026691Y013883D01*
X026691Y014004D02*
X026691Y014128D01*
X026691Y014066D02*
X027061Y014066D01*
X027061Y014004D02*
X027061Y014128D01*
X027061Y014373D02*
X026691Y014373D01*
X026691Y014250D02*
X026691Y014497D01*
D12*
X028446Y000100D02*
X000100Y000100D01*
X000100Y016635D01*
X028446Y016635D01*
X028446Y000100D01*
X024796Y006139D02*
X024798Y006189D01*
X024804Y006239D01*
X024814Y006289D01*
X024827Y006337D01*
X024844Y006385D01*
X024865Y006431D01*
X024889Y006475D01*
X024917Y006517D01*
X024948Y006557D01*
X024982Y006594D01*
X025019Y006629D01*
X025058Y006660D01*
X025099Y006689D01*
X025143Y006714D01*
X025189Y006736D01*
X025236Y006754D01*
X025284Y006768D01*
X025333Y006779D01*
X025383Y006786D01*
X025433Y006789D01*
X025484Y006788D01*
X025534Y006783D01*
X025584Y006774D01*
X025632Y006762D01*
X025680Y006745D01*
X025726Y006725D01*
X025771Y006702D01*
X025814Y006675D01*
X025854Y006645D01*
X025892Y006612D01*
X025927Y006576D01*
X025960Y006537D01*
X025989Y006496D01*
X026015Y006453D01*
X026038Y006408D01*
X026057Y006361D01*
X026072Y006313D01*
X026084Y006264D01*
X026092Y006214D01*
X026096Y006164D01*
X026096Y006114D01*
X026092Y006064D01*
X026084Y006014D01*
X026072Y005965D01*
X026057Y005917D01*
X026038Y005870D01*
X026015Y005825D01*
X025989Y005782D01*
X025960Y005741D01*
X025927Y005702D01*
X025892Y005666D01*
X025854Y005633D01*
X025814Y005603D01*
X025771Y005576D01*
X025726Y005553D01*
X025680Y005533D01*
X025632Y005516D01*
X025584Y005504D01*
X025534Y005495D01*
X025484Y005490D01*
X025433Y005489D01*
X025383Y005492D01*
X025333Y005499D01*
X025284Y005510D01*
X025236Y005524D01*
X025189Y005542D01*
X025143Y005564D01*
X025099Y005589D01*
X025058Y005618D01*
X025019Y005649D01*
X024982Y005684D01*
X024948Y005721D01*
X024917Y005761D01*
X024889Y005803D01*
X024865Y005847D01*
X024844Y005893D01*
X024827Y005941D01*
X024814Y005989D01*
X024804Y006039D01*
X024798Y006089D01*
X024796Y006139D01*
X024796Y010628D02*
X024798Y010678D01*
X024804Y010728D01*
X024814Y010778D01*
X024827Y010826D01*
X024844Y010874D01*
X024865Y010920D01*
X024889Y010964D01*
X024917Y011006D01*
X024948Y011046D01*
X024982Y011083D01*
X025019Y011118D01*
X025058Y011149D01*
X025099Y011178D01*
X025143Y011203D01*
X025189Y011225D01*
X025236Y011243D01*
X025284Y011257D01*
X025333Y011268D01*
X025383Y011275D01*
X025433Y011278D01*
X025484Y011277D01*
X025534Y011272D01*
X025584Y011263D01*
X025632Y011251D01*
X025680Y011234D01*
X025726Y011214D01*
X025771Y011191D01*
X025814Y011164D01*
X025854Y011134D01*
X025892Y011101D01*
X025927Y011065D01*
X025960Y011026D01*
X025989Y010985D01*
X026015Y010942D01*
X026038Y010897D01*
X026057Y010850D01*
X026072Y010802D01*
X026084Y010753D01*
X026092Y010703D01*
X026096Y010653D01*
X026096Y010603D01*
X026092Y010553D01*
X026084Y010503D01*
X026072Y010454D01*
X026057Y010406D01*
X026038Y010359D01*
X026015Y010314D01*
X025989Y010271D01*
X025960Y010230D01*
X025927Y010191D01*
X025892Y010155D01*
X025854Y010122D01*
X025814Y010092D01*
X025771Y010065D01*
X025726Y010042D01*
X025680Y010022D01*
X025632Y010005D01*
X025584Y009993D01*
X025534Y009984D01*
X025484Y009979D01*
X025433Y009978D01*
X025383Y009981D01*
X025333Y009988D01*
X025284Y009999D01*
X025236Y010013D01*
X025189Y010031D01*
X025143Y010053D01*
X025099Y010078D01*
X025058Y010107D01*
X025019Y010138D01*
X024982Y010173D01*
X024948Y010210D01*
X024917Y010250D01*
X024889Y010292D01*
X024865Y010336D01*
X024844Y010382D01*
X024827Y010430D01*
X024814Y010478D01*
X024804Y010528D01*
X024798Y010578D01*
X024796Y010628D01*
D13*
X025907Y011868D02*
X026138Y011868D01*
X026214Y011945D01*
X026214Y012252D01*
X026138Y012329D01*
X025907Y012329D01*
X025907Y011868D01*
X026368Y011868D02*
X026675Y011868D01*
X026521Y011868D02*
X026521Y012329D01*
X026368Y012175D01*
X023226Y012894D02*
X022919Y012894D01*
X023150Y013124D01*
X023150Y012663D01*
X022766Y012663D02*
X022459Y012663D01*
X022613Y012663D02*
X022613Y013124D01*
X022459Y012970D01*
X022306Y013047D02*
X022229Y013124D01*
X022075Y013124D01*
X021999Y013047D01*
X021999Y012740D01*
X022075Y012663D01*
X022229Y012663D01*
X022306Y012740D01*
X022322Y013711D02*
X022015Y013711D01*
X021939Y013788D01*
X021939Y013941D01*
X022015Y014018D01*
X021939Y014171D02*
X021939Y014478D01*
X022015Y014478D01*
X022322Y014171D01*
X022399Y014171D01*
X022322Y014018D02*
X022399Y013941D01*
X022399Y013788D01*
X022322Y013711D01*
X021475Y013891D02*
X021015Y013891D01*
X021015Y014121D01*
X021092Y014198D01*
X021245Y014198D01*
X021322Y014121D01*
X021322Y013891D01*
X021322Y014044D02*
X021475Y014198D01*
X021245Y014351D02*
X021245Y014658D01*
X021015Y014581D02*
X021245Y014351D01*
X021475Y014581D02*
X021015Y014581D01*
X020202Y012801D02*
X020202Y012340D01*
X020049Y012340D02*
X020356Y012340D01*
X020049Y012647D02*
X020202Y012801D01*
X019895Y012724D02*
X019895Y012417D01*
X019819Y012340D01*
X019665Y012340D01*
X019589Y012417D01*
X019589Y012724D01*
X019665Y012801D01*
X019819Y012801D01*
X019895Y012724D01*
X019742Y012494D02*
X019895Y012340D01*
X018365Y010981D02*
X018211Y010904D01*
X018058Y010751D01*
X018288Y010751D01*
X018365Y010674D01*
X018365Y010597D01*
X018288Y010521D01*
X018134Y010521D01*
X018058Y010597D01*
X018058Y010751D01*
X017904Y010904D02*
X017828Y010981D01*
X017674Y010981D01*
X017597Y010904D01*
X017597Y010597D01*
X017674Y010521D01*
X017828Y010521D01*
X017904Y010597D01*
X017976Y008931D02*
X017899Y008854D01*
X017976Y008931D02*
X018129Y008931D01*
X018206Y008854D01*
X018206Y008778D01*
X017899Y008471D01*
X018206Y008471D01*
X017746Y008471D02*
X017592Y008624D01*
X017669Y008624D02*
X017439Y008624D01*
X017439Y008471D02*
X017439Y008931D01*
X017669Y008931D01*
X017746Y008854D01*
X017746Y008701D01*
X017669Y008624D01*
X018882Y008242D02*
X018882Y007781D01*
X018882Y007935D02*
X019112Y007935D01*
X019189Y008012D01*
X019189Y008165D01*
X019112Y008242D01*
X018882Y008242D01*
X019342Y008088D02*
X019496Y008242D01*
X019496Y007781D01*
X019649Y007781D02*
X019342Y007781D01*
X019189Y007781D02*
X019035Y007935D01*
X019803Y008088D02*
X019956Y008242D01*
X019956Y007781D01*
X019803Y007781D02*
X020110Y007781D01*
X016884Y007171D02*
X016884Y007017D01*
X016808Y006940D01*
X016808Y006787D02*
X016884Y006710D01*
X016884Y006557D01*
X016808Y006480D01*
X016501Y006480D01*
X016424Y006557D01*
X016424Y006710D01*
X016501Y006787D01*
X016501Y006940D02*
X016424Y007017D01*
X016424Y007171D01*
X016501Y007247D01*
X016577Y007247D01*
X016654Y007171D01*
X016731Y007247D01*
X016808Y007247D01*
X016884Y007171D01*
X016654Y007171D02*
X016654Y007094D01*
X016424Y006327D02*
X016424Y006173D01*
X016424Y006250D02*
X016884Y006250D01*
X016884Y006173D02*
X016884Y006327D01*
X016847Y005224D02*
X017077Y005224D01*
X017154Y005147D01*
X017154Y004840D01*
X017077Y004764D01*
X016847Y004764D01*
X016847Y005224D01*
X017307Y005147D02*
X017384Y005224D01*
X017537Y005224D01*
X017614Y005147D01*
X017614Y005071D01*
X017307Y004764D01*
X017614Y004764D01*
X018023Y004707D02*
X018023Y004247D01*
X018330Y004247D01*
X018484Y004247D02*
X018791Y004247D01*
X018637Y004247D02*
X018637Y004707D01*
X018484Y004554D01*
X017340Y003772D02*
X017263Y003772D01*
X016956Y004079D01*
X016879Y004079D01*
X016879Y003772D01*
X017340Y003618D02*
X017340Y003311D01*
X017340Y003158D02*
X017186Y003004D01*
X017186Y003081D02*
X017186Y002851D01*
X017340Y002851D02*
X016879Y002851D01*
X016879Y003081D01*
X016956Y003158D01*
X017110Y003158D01*
X017186Y003081D01*
X017033Y003311D02*
X016879Y003465D01*
X017340Y003465D01*
X014898Y003484D02*
X014898Y001594D01*
X014229Y000924D01*
X013993Y000924D01*
X013245Y000924D02*
X013009Y000924D01*
X012339Y001594D01*
X012339Y003484D01*
X013245Y003484D01*
X013993Y003484D02*
X014898Y003484D01*
X013245Y003365D02*
X013181Y003343D01*
X013118Y003316D01*
X013056Y003286D01*
X012997Y003253D01*
X012939Y003217D01*
X012883Y003177D01*
X012830Y003134D01*
X012779Y003089D01*
X012731Y003041D01*
X012686Y002990D01*
X012643Y002936D01*
X012604Y002880D01*
X012567Y002823D01*
X012534Y002763D01*
X012505Y002701D01*
X012479Y002638D01*
X012456Y002574D01*
X012437Y002508D01*
X012422Y002441D01*
X012411Y002374D01*
X012403Y002306D01*
X012399Y002238D01*
X012399Y002170D01*
X012403Y002102D01*
X012411Y002034D01*
X012422Y001967D01*
X012437Y001900D01*
X012456Y001834D01*
X012479Y001770D01*
X012505Y001707D01*
X012534Y001645D01*
X012567Y001585D01*
X012604Y001528D01*
X012643Y001472D01*
X012686Y001418D01*
X012731Y001367D01*
X012779Y001319D01*
X012830Y001274D01*
X012883Y001231D01*
X012939Y001191D01*
X012997Y001155D01*
X013056Y001122D01*
X013118Y001092D01*
X013181Y001065D01*
X013245Y001043D01*
X013993Y001043D02*
X014057Y001065D01*
X014120Y001092D01*
X014182Y001122D01*
X014241Y001155D01*
X014299Y001191D01*
X014355Y001231D01*
X014408Y001274D01*
X014459Y001319D01*
X014507Y001367D01*
X014552Y001418D01*
X014595Y001472D01*
X014634Y001528D01*
X014671Y001585D01*
X014704Y001645D01*
X014733Y001707D01*
X014759Y001770D01*
X014782Y001834D01*
X014801Y001900D01*
X014816Y001967D01*
X014827Y002034D01*
X014835Y002102D01*
X014839Y002170D01*
X014839Y002238D01*
X014835Y002306D01*
X014827Y002374D01*
X014816Y002441D01*
X014801Y002508D01*
X014782Y002574D01*
X014759Y002638D01*
X014733Y002701D01*
X014704Y002763D01*
X014671Y002823D01*
X014634Y002880D01*
X014595Y002936D01*
X014552Y002990D01*
X014507Y003041D01*
X014459Y003089D01*
X014408Y003134D01*
X014355Y003177D01*
X014299Y003217D01*
X014241Y003253D01*
X014182Y003286D01*
X014120Y003316D01*
X014057Y003343D01*
X013993Y003365D01*
X005540Y003151D02*
X005079Y003151D01*
X005309Y002921D01*
X005309Y003227D01*
X005156Y002767D02*
X005079Y002690D01*
X005079Y002537D01*
X005156Y002460D01*
X005463Y002460D01*
X005540Y002537D01*
X005540Y002690D01*
X005463Y002767D01*
X005540Y002307D02*
X005540Y002153D01*
X005540Y002230D02*
X005079Y002230D01*
X005079Y002153D02*
X005079Y002307D01*
X004140Y001206D02*
X004140Y000746D01*
X004293Y000746D02*
X003986Y000746D01*
X003756Y000823D02*
X003756Y001206D01*
X003679Y001206D02*
X003833Y001206D01*
X003986Y001053D02*
X004140Y001206D01*
X003756Y000823D02*
X003679Y000746D01*
X003603Y000746D01*
X003526Y000823D01*
X001332Y000770D02*
X000872Y000770D01*
X001025Y000616D01*
X001332Y000616D02*
X001332Y000923D01*
X022471Y004795D02*
X022548Y004718D01*
X022624Y004718D01*
X022701Y004795D01*
X022701Y005179D01*
X022624Y005179D02*
X022778Y005179D01*
X022931Y005102D02*
X023008Y005179D01*
X023161Y005179D01*
X023238Y005102D01*
X023238Y005025D01*
X022931Y004718D01*
X023238Y004718D01*
X025221Y003283D02*
X027111Y003283D01*
X027111Y002378D01*
X026992Y002378D02*
X026970Y002442D01*
X026943Y002505D01*
X026913Y002567D01*
X026880Y002626D01*
X026844Y002684D01*
X026804Y002740D01*
X026761Y002793D01*
X026716Y002844D01*
X026668Y002892D01*
X026617Y002937D01*
X026563Y002980D01*
X026507Y003019D01*
X026450Y003056D01*
X026390Y003089D01*
X026328Y003118D01*
X026265Y003144D01*
X026201Y003167D01*
X026135Y003186D01*
X026068Y003201D01*
X026001Y003212D01*
X025933Y003220D01*
X025865Y003224D01*
X025797Y003224D01*
X025729Y003220D01*
X025661Y003212D01*
X025594Y003201D01*
X025527Y003186D01*
X025461Y003167D01*
X025397Y003144D01*
X025334Y003118D01*
X025272Y003089D01*
X025212Y003056D01*
X025155Y003019D01*
X025099Y002980D01*
X025045Y002937D01*
X024994Y002892D01*
X024946Y002844D01*
X024901Y002793D01*
X024858Y002740D01*
X024818Y002684D01*
X024782Y002626D01*
X024749Y002567D01*
X024719Y002505D01*
X024692Y002442D01*
X024670Y002378D01*
X024552Y002378D02*
X024552Y002614D01*
X025221Y003283D01*
X024670Y001630D02*
X024692Y001566D01*
X024719Y001503D01*
X024749Y001441D01*
X024782Y001382D01*
X024818Y001324D01*
X024858Y001268D01*
X024901Y001215D01*
X024946Y001164D01*
X024994Y001116D01*
X025045Y001071D01*
X025099Y001028D01*
X025155Y000989D01*
X025212Y000952D01*
X025272Y000919D01*
X025334Y000890D01*
X025397Y000864D01*
X025461Y000841D01*
X025527Y000822D01*
X025594Y000807D01*
X025661Y000796D01*
X025729Y000788D01*
X025797Y000784D01*
X025865Y000784D01*
X025933Y000788D01*
X026001Y000796D01*
X026068Y000807D01*
X026135Y000822D01*
X026201Y000841D01*
X026265Y000864D01*
X026328Y000890D01*
X026390Y000919D01*
X026450Y000952D01*
X026507Y000989D01*
X026563Y001028D01*
X026617Y001071D01*
X026668Y001116D01*
X026716Y001164D01*
X026761Y001215D01*
X026804Y001268D01*
X026844Y001324D01*
X026880Y001382D01*
X026913Y001441D01*
X026943Y001503D01*
X026970Y001566D01*
X026992Y001630D01*
X027111Y001630D02*
X027111Y000724D01*
X025221Y000724D01*
X024552Y001394D01*
X024552Y001630D01*
X017681Y013465D02*
X017681Y013926D01*
X017451Y013695D01*
X017758Y013695D01*
X017297Y013542D02*
X017221Y013465D01*
X017067Y013465D01*
X016990Y013542D01*
X016990Y013849D01*
X017067Y013926D01*
X017221Y013926D01*
X017297Y013849D01*
X011718Y014206D02*
X011641Y014129D01*
X011488Y014129D01*
X011411Y014206D01*
X011258Y014206D02*
X011181Y014129D01*
X011028Y014129D01*
X010951Y014206D01*
X010951Y014513D01*
X011028Y014590D01*
X011181Y014590D01*
X011258Y014513D01*
X011411Y014590D02*
X011411Y014360D01*
X011565Y014436D01*
X011641Y014436D01*
X011718Y014360D01*
X011718Y014206D01*
X011718Y014590D02*
X011411Y014590D01*
X001332Y015585D02*
X001332Y015891D01*
X001332Y015738D02*
X000872Y015738D01*
X001025Y015585D01*
X000948Y016045D02*
X000872Y016122D01*
X000872Y016275D01*
X000948Y016352D01*
X001025Y016352D01*
X001332Y016045D01*
X001332Y016352D01*
X025976Y015354D02*
X025976Y014893D01*
X025976Y015047D02*
X026206Y015047D01*
X026283Y015123D01*
X026283Y015277D01*
X026206Y015354D01*
X025976Y015354D01*
X026129Y015047D02*
X026283Y014893D01*
X026436Y014970D02*
X026513Y014893D01*
X026666Y014893D01*
X026743Y014970D01*
X026743Y015047D01*
X026666Y015123D01*
X026589Y015123D01*
X026666Y015123D02*
X026743Y015200D01*
X026743Y015277D01*
X026666Y015354D01*
X026513Y015354D01*
X026436Y015277D01*
D14*
X027946Y011419D02*
X021108Y011419D01*
X021108Y005348D01*
X027966Y005348D01*
X027946Y005348D02*
X027946Y011419D01*
X028179Y004432D02*
X027953Y004206D01*
X028254Y004206D01*
X028179Y003981D02*
X028179Y004432D01*
X024720Y003311D02*
X024420Y003311D01*
X024645Y003536D01*
X024645Y003086D01*
X024185Y003161D02*
X024185Y003536D01*
X024110Y003536D02*
X024260Y003536D01*
X023704Y003981D02*
X023403Y003981D01*
X023553Y003981D02*
X023553Y004432D01*
X023403Y004282D01*
X023960Y003161D02*
X024035Y003086D01*
X024110Y003086D01*
X024185Y003161D01*
X016010Y007677D02*
X015710Y007677D01*
X015860Y007677D02*
X015860Y008127D01*
X015710Y007977D01*
X011788Y008011D02*
X011713Y007936D01*
X011563Y007936D01*
X011487Y008011D01*
X011638Y008161D02*
X011713Y008161D01*
X011788Y008086D01*
X011788Y008011D01*
X011713Y008161D02*
X011788Y008236D01*
X011788Y008311D01*
X011713Y008386D01*
X011563Y008386D01*
X011487Y008311D01*
X011327Y008386D02*
X011177Y008386D01*
X011252Y008386D02*
X011252Y008011D01*
X011177Y007936D01*
X011102Y007936D01*
X011027Y008011D01*
X011010Y006327D02*
X010860Y006252D01*
X010710Y006102D01*
X010935Y006102D01*
X011010Y006027D01*
X011010Y005952D01*
X010935Y005877D01*
X010785Y005877D01*
X010710Y005952D01*
X010710Y006102D01*
X005792Y003061D02*
X005792Y002761D01*
X005492Y003061D01*
X005417Y003061D01*
X005342Y002986D01*
X005342Y002836D01*
X005417Y002761D01*
X005342Y002451D02*
X005792Y002451D01*
X005792Y002301D02*
X005792Y002601D01*
X005492Y002301D02*
X005342Y002451D01*
X003399Y000281D02*
X003399Y016549D01*
X000643Y016549D01*
X000643Y000281D01*
X003399Y000281D01*
X005467Y013090D02*
X005392Y013165D01*
X005392Y013315D01*
X005467Y013391D01*
X005617Y013315D02*
X005692Y013391D01*
X005767Y013391D01*
X005842Y013315D01*
X005842Y013165D01*
X005767Y013090D01*
X005617Y013165D02*
X005617Y013315D01*
X005617Y013165D02*
X005542Y013090D01*
X005467Y013090D01*
X005392Y013551D02*
X005692Y013551D01*
X005842Y013701D01*
X005692Y013851D01*
X005392Y013851D01*
X005542Y014011D02*
X005392Y014161D01*
X005842Y014161D01*
X005842Y014011D02*
X005842Y014311D01*
X003992Y013961D02*
X003992Y013661D01*
X003992Y013811D02*
X003542Y013811D01*
X003692Y013661D01*
D15*
X012865Y015998D02*
X012865Y008998D01*
X014190Y008998D01*
X014192Y009036D01*
X014198Y009073D01*
X014207Y009110D01*
X014220Y009146D01*
X014237Y009180D01*
X014257Y009212D01*
X014280Y009242D01*
X014307Y009270D01*
X014335Y009295D01*
X014367Y009316D01*
X014400Y009335D01*
X014435Y009350D01*
X014471Y009361D01*
X014508Y009369D01*
X014546Y009373D01*
X014584Y009373D01*
X014622Y009369D01*
X014659Y009361D01*
X014695Y009350D01*
X014730Y009335D01*
X014763Y009316D01*
X014795Y009295D01*
X014823Y009270D01*
X014850Y009242D01*
X014873Y009212D01*
X014893Y009180D01*
X014910Y009146D01*
X014923Y009110D01*
X014932Y009073D01*
X014938Y009036D01*
X014940Y008998D01*
X016265Y008998D01*
X016265Y015998D01*
X012865Y015998D01*
X016565Y008998D02*
X016765Y008698D01*
X016365Y008698D01*
X016565Y008998D01*
X016583Y008971D02*
X016546Y008971D01*
X016494Y008892D02*
X016635Y008892D01*
X016687Y008814D02*
X016442Y008814D01*
X016389Y008735D02*
X016740Y008735D01*
X015488Y008206D02*
X015207Y008206D01*
X015348Y008206D02*
X015348Y008627D01*
X015207Y008487D01*
X015027Y008557D02*
X014957Y008627D01*
X014817Y008627D01*
X014747Y008557D01*
X014747Y008276D01*
X014817Y008206D01*
X014957Y008206D01*
X015027Y008276D01*
X014580Y008206D02*
X014440Y008206D01*
X014510Y008206D02*
X014510Y008627D01*
X014440Y008627D02*
X014580Y008627D01*
X010200Y004748D02*
X010200Y000737D01*
D16*
X016065Y009248D03*
D17*
X010496Y004083D03*
X010496Y003413D03*
X010496Y002743D03*
X010496Y002073D03*
X010496Y001403D03*
D18*
X018461Y002304D02*
X020211Y001254D01*
X021711Y001254D01*
X023461Y002304D01*
X023461Y003804D02*
X021711Y004854D01*
X020211Y004854D01*
X018461Y003804D01*
X019461Y002354D02*
X019497Y002283D01*
X019536Y002213D01*
X019578Y002145D01*
X019623Y002079D01*
X019672Y002016D01*
X019724Y001955D01*
X019778Y001897D01*
X019835Y001841D01*
X019895Y001788D01*
X019957Y001738D01*
X020022Y001691D01*
X020089Y001647D01*
X020158Y001607D01*
X020229Y001570D01*
X020301Y001536D01*
X020375Y001506D01*
X020450Y001480D01*
X020527Y001457D01*
X020604Y001438D01*
X020683Y001423D01*
X020762Y001411D01*
X020841Y001403D01*
X020921Y001399D01*
X021001Y001399D01*
X021081Y001403D01*
X021160Y001411D01*
X021239Y001423D01*
X021318Y001438D01*
X021395Y001457D01*
X021472Y001480D01*
X021547Y001506D01*
X021621Y001536D01*
X021693Y001570D01*
X021764Y001607D01*
X021833Y001647D01*
X021900Y001691D01*
X021965Y001738D01*
X022027Y001788D01*
X022087Y001841D01*
X022144Y001897D01*
X022198Y001955D01*
X022250Y002016D01*
X022299Y002079D01*
X022344Y002145D01*
X022386Y002213D01*
X022425Y002283D01*
X022461Y002354D01*
X022461Y003754D02*
X022425Y003825D01*
X022386Y003895D01*
X022344Y003963D01*
X022299Y004029D01*
X022250Y004092D01*
X022198Y004153D01*
X022144Y004211D01*
X022087Y004267D01*
X022027Y004320D01*
X021965Y004370D01*
X021900Y004417D01*
X021833Y004461D01*
X021764Y004501D01*
X021693Y004538D01*
X021621Y004572D01*
X021547Y004602D01*
X021472Y004628D01*
X021395Y004651D01*
X021318Y004670D01*
X021239Y004685D01*
X021160Y004697D01*
X021081Y004705D01*
X021001Y004709D01*
X020921Y004709D01*
X020841Y004705D01*
X020762Y004697D01*
X020683Y004685D01*
X020604Y004670D01*
X020527Y004651D01*
X020450Y004628D01*
X020375Y004602D01*
X020301Y004572D01*
X020229Y004538D01*
X020158Y004501D01*
X020089Y004461D01*
X020022Y004417D01*
X019957Y004370D01*
X019895Y004320D01*
X019835Y004267D01*
X019778Y004211D01*
X019724Y004153D01*
X019672Y004092D01*
X019623Y004029D01*
X019578Y003963D01*
X019536Y003895D01*
X019497Y003825D01*
X019461Y003754D01*
D19*
X020120Y007443D03*
X020592Y007443D03*
X027183Y014592D03*
X027655Y014592D03*
D20*
X027419Y014592D03*
X020356Y007443D03*
M02*
